<svg width="39" height="39" viewBox="0 0 39 39" fill="none" xmlns="http://www.w3.org/2000/svg">
<path d="M30.0625 18.2882C28.3987 20.2621 26.9497 22.4077 25.74 24.6888C27.1362 24.0606 28.582 23.5492 30.0625 23.1598V33.3259H5.6875V5.67413H30.0625V18.2882Z" fill="#D2D2D2"/>
<path d="M30.0625 18.2882C28.3987 20.2621 26.9497 22.4077 25.74 24.6888C27.1362 24.0606 28.582 23.5492 30.0625 23.1598C30.0625 32.1873 29.9813 31.6994 30.0625 31.6994C24.2443 31.6994 18.6644 29.3859 14.5503 25.2678C10.4363 21.1497 8.125 15.5644 8.125 9.74058V5.67413H30.0625V18.2882Z" fill="#E3E3E3"/>
<path d="M31.6875 2.42096H4.0625V5.67411H31.6875V2.42096Z" fill="#33363F"/>
<path d="M31.6875 2.42096V4.04754H7.3125C6.88152 4.04754 6.4682 3.87617 6.16345 3.57112C5.8587 3.26608 5.6875 2.85235 5.6875 2.42096H31.6875Z" fill="#33363F"/>
<path d="M31.6875 33.3259H4.0625V36.579H31.6875V33.3259Z" fill="#33363F"/>
<path d="M31.6875 33.3259V34.9524H7.3125C6.88152 34.9524 6.4682 34.7811 6.16345 34.476C5.8587 34.171 5.6875 33.7573 5.6875 33.3259H31.6875Z" fill="#33363F"/>
<path d="M34.9375 2.42095C34.9375 5.83676 34.9944 5.92622 34.7912 6.341C34.6377 6.67845 34.3735 6.95324 34.0425 7.11984C33.7115 7.28643 33.3336 7.33482 32.9714 7.25699C32.6092 7.17917 32.2844 6.97979 32.0509 6.69191C31.8174 6.40403 31.6892 6.04492 31.6875 5.6741V2.42095C31.6875 1.98955 31.8587 1.57583 32.1635 1.27079C32.4682 0.965744 32.8815 0.794373 33.3125 0.794373C33.7435 0.794373 34.1568 0.965744 34.4615 1.27079C34.7663 1.57583 34.9375 1.98955 34.9375 2.42095Z" fill="#B3B3B3"/>
<path d="M34.9375 2.42082C34.9375 5.83664 34.9944 5.9261 34.7913 6.34088C34.544 6.45211 34.273 6.49968 34.0027 6.47926C33.7324 6.45884 33.4716 6.37108 33.2438 6.22396C33.0161 6.07685 32.8287 5.87505 32.6988 5.63695C32.5689 5.39884 32.5006 5.13199 32.5 4.86069C32.5 1.44488 32.4431 1.35542 32.6463 0.94064C32.8935 0.829405 33.1645 0.781833 33.4348 0.802252C33.7051 0.822671 33.966 0.910434 34.1937 1.05755C34.4214 1.20467 34.6088 1.40646 34.7387 1.64457C34.8686 1.88267 34.9369 2.14952 34.9375 2.42082Z" fill="#BABABA"/>
<path d="M4.0625 2.42095C4.0625 5.83676 4.11937 5.92622 3.91625 6.341C3.76266 6.67845 3.49849 6.95324 3.16752 7.11984C2.83655 7.28643 2.45864 7.33482 2.09643 7.25699C1.73422 7.17917 1.40945 6.97979 1.17594 6.69191C0.942428 6.40403 0.814199 6.04492 0.8125 5.6741V2.42095C0.8125 1.98955 0.983705 1.57583 1.28845 1.27079C1.5932 0.965744 2.00652 0.794373 2.4375 0.794373C2.86848 0.794373 3.2818 0.965744 3.58655 1.27079C3.89129 1.57583 4.0625 1.98955 4.0625 2.42095Z" fill="#B3B3B3"/>
<path d="M4.0625 2.42082C4.0625 5.83664 4.11938 5.9261 3.91625 6.34088C3.66905 6.45211 3.39797 6.49968 3.1277 6.47926C2.85743 6.45884 2.59655 6.37108 2.36882 6.22396C2.1411 6.07685 1.95375 5.87505 1.82383 5.63695C1.69392 5.39884 1.62557 5.13199 1.625 4.86069C1.625 1.44488 1.56813 1.35542 1.77125 0.94064C2.01846 0.829405 2.28954 0.781833 2.55981 0.802252C2.83008 0.822671 3.09096 0.910434 3.31868 1.05755C3.54641 1.20467 3.73376 1.40646 3.86368 1.64457C3.99359 1.88267 4.06194 2.14952 4.0625 2.42082Z" fill="#BABABA"/>
<path d="M34.9375 33.3259C34.9375 36.7417 34.9944 36.8311 34.7912 37.2459C34.6377 37.5834 34.3735 37.8581 34.0425 38.0247C33.7115 38.1913 33.3336 38.2397 32.9714 38.1619C32.6092 38.0841 32.2844 37.8847 32.0509 37.5968C31.8174 37.3089 31.6892 36.9498 31.6875 36.579V33.3259C31.6875 32.8945 31.8587 32.4807 32.1635 32.1757C32.4682 31.8706 32.8815 31.6993 33.3125 31.6993C33.7435 31.6993 34.1568 31.8706 34.4615 32.1757C34.7663 32.4807 34.9375 32.8945 34.9375 33.3259Z" fill="#B3B3B3"/>
<path d="M34.9375 33.326C34.9375 36.7418 34.9944 36.8312 34.7913 37.246C34.544 37.3573 34.273 37.4048 34.0027 37.3844C33.7324 37.364 33.4716 37.2762 33.2438 37.1291C33.0161 36.982 32.8287 36.7802 32.6988 36.5421C32.5689 36.304 32.5006 36.0371 32.5 35.7658C32.5 32.35 32.4431 32.2606 32.6463 31.8458C32.8935 31.7346 33.1645 31.687 33.4348 31.7074C33.7051 31.7278 33.966 31.8156 34.1937 31.9627C34.4214 32.1098 34.6088 32.3116 34.7387 32.5497C34.8686 32.7878 34.9369 33.0547 34.9375 33.326Z" fill="#BABABA"/>
<path d="M4.0625 33.3259C4.0625 36.7417 4.11937 36.8311 3.91625 37.2459C3.76266 37.5834 3.49849 37.8581 3.16752 38.0247C2.83655 38.1913 2.45864 38.2397 2.09643 38.1619C1.73422 38.0841 1.40945 37.8847 1.17594 37.5968C0.942428 37.3089 0.814199 36.9498 0.8125 36.579V33.3259C0.8125 32.8945 0.983705 32.4807 1.28845 32.1757C1.5932 31.8706 2.00652 31.6993 2.4375 31.6993C2.86848 31.6993 3.2818 31.8706 3.58655 32.1757C3.89129 32.4807 4.0625 32.8945 4.0625 33.3259Z" fill="#B3B3B3"/>
<path d="M4.0625 33.326C4.0625 36.7418 4.11938 36.8312 3.91625 37.246C3.66905 37.3573 3.39797 37.4048 3.1277 37.3844C2.85743 37.364 2.59655 37.2762 2.36882 37.1291C2.1411 36.982 1.95375 36.7802 1.82383 36.5421C1.69392 36.304 1.62557 36.0371 1.625 35.7658C1.625 32.35 1.56813 32.2606 1.77125 31.8458C2.01846 31.7346 2.28954 31.687 2.55981 31.7074C2.83008 31.7278 3.09096 31.8156 3.31868 31.9627C3.54641 32.1098 3.73376 32.3116 3.86368 32.5497C3.99359 32.7878 4.06194 33.0547 4.0625 33.326Z" fill="#BABABA"/>
<path d="M35.75 16.2468C35.75 16.2468 37.375 17.8734 32.5 20.3132C35.4006 22.4929 27.9581 23.3712 25.74 24.6887C26.0081 24.1764 26.2925 23.6721 26.5525 23.1841C29.6075 18.0686 34.8319 12.9936 37.375 11.3671C37.9399 12.0507 38.2296 12.9207 38.1875 13.8069C38.1875 15.4335 35.75 16.2468 35.75 16.2468Z" fill="#DEDEDE"/>
<path d="M34.9375 15.4334C34.9375 15.4334 36.5625 17.06 31.6875 19.4999C34.0518 21.281 29.5343 22.1919 26.585 23.1841C29.3406 18.6723 32.9245 14.7234 37.1475 11.5459C37.3077 12.0113 37.3847 12.5014 37.375 12.9936C37.375 14.6202 34.9375 15.4334 34.9375 15.4334Z" fill="white"/>
<path d="M39 13.807C39 12.3187 38.0737 9.89506 36.9119 10.7002C34.7227 12.3009 32.7002 14.1183 30.875 16.1249C30.875 5.41384 30.81 6.48738 31.0212 6.48738C31.2162 7.02527 31.5939 7.47745 32.0882 7.76487C32.5825 8.0523 33.1619 8.15669 33.7253 8.05979C34.2887 7.9629 34.8002 7.67088 35.1703 7.23479C35.5404 6.7987 35.7456 6.24628 35.75 5.6741V2.42094C35.7456 1.84876 35.5404 1.29634 35.1703 0.860247C34.8002 0.424156 34.2887 0.132138 33.7253 0.0352421C33.1619 -0.0616541 32.5825 0.0427355 32.0882 0.330163C31.5939 0.61759 31.2162 1.06977 31.0212 1.60765H4.72875C4.53377 1.06977 4.15612 0.61759 3.66183 0.330163C3.16754 0.0427355 2.58805 -0.0616541 2.02466 0.0352421C1.46127 0.132138 0.949827 0.424156 0.579731 0.860247C0.209636 1.29634 0.00443492 1.84876 0 2.42094L0 5.6741C0.00443492 6.24628 0.209636 6.7987 0.579731 7.23479C0.949827 7.67088 1.46127 7.9629 2.02466 8.05979C2.58805 8.15669 3.16754 8.0523 3.66183 7.76487C4.15612 7.47745 4.53377 7.02527 4.72875 6.48738C4.95625 6.48738 4.875 4.47856 4.875 32.5126H4.72875C4.53377 31.9747 4.15612 31.5226 3.66183 31.2351C3.16754 30.9477 2.58805 30.8433 2.02466 30.9402C1.46127 31.0371 0.949827 31.3291 0.579731 31.7652C0.209636 32.2013 0.00443492 32.7537 0 33.3259L0 36.5791C0.00443492 37.1512 0.209636 37.7037 0.579731 38.1397C0.949827 38.5758 1.46127 38.8679 2.02466 38.9648C2.58805 39.0616 3.16754 38.9573 3.66183 38.6698C4.15612 38.3824 4.53377 37.9302 4.72875 37.3923H31.0212C31.2162 37.9302 31.5939 38.3824 32.0882 38.6698C32.5825 38.9573 33.1619 39.0616 33.7253 38.9648C34.2887 38.8679 34.8002 38.5758 35.1703 38.1397C35.5404 37.7037 35.7456 37.1512 35.75 36.5791V33.3259C35.7456 32.7537 35.5404 32.2013 35.1703 31.7652C34.8002 31.3291 34.2887 31.0371 33.7253 30.9402C33.1619 30.8433 32.5825 30.9477 32.0882 31.2351C31.5939 31.5226 31.2162 31.9747 31.0212 32.5126C30.81 32.5126 30.875 33.4886 30.875 23.7454C32.6219 23.1435 34.6531 22.1757 33.7919 20.541C35.2625 19.7277 37.0419 18.3533 36.7981 16.6779C37.6919 16.2468 39 15.3034 39 13.807ZM34.125 2.42094V5.6741C34.125 5.88979 34.0394 6.09666 33.887 6.24918C33.7347 6.4017 33.528 6.48738 33.3125 6.48738C33.097 6.48738 32.8903 6.4017 32.738 6.24918C32.5856 6.09666 32.5 5.88979 32.5 5.6741V2.42094C32.5 2.20524 32.5856 1.99838 32.738 1.84586C32.8903 1.69334 33.097 1.60765 33.3125 1.60765C33.528 1.60765 33.7347 1.69334 33.887 1.84586C34.0394 1.99838 34.125 2.20524 34.125 2.42094ZM30.875 4.86081H4.875V3.23423H30.875V4.86081ZM1.625 5.6741V2.42094C1.625 2.20524 1.7106 1.99838 1.86298 1.84586C2.01535 1.69334 2.22201 1.60765 2.4375 1.60765C2.65299 1.60765 2.85965 1.69334 3.01202 1.84586C3.1644 1.99838 3.25 2.20524 3.25 2.42094V5.6741C3.25 5.88979 3.1644 6.09666 3.01202 6.24918C2.85965 6.4017 2.65299 6.48738 2.4375 6.48738C2.22201 6.48738 2.01535 6.4017 1.86298 6.24918C1.7106 6.09666 1.625 5.88979 1.625 5.6741ZM1.625 36.5791V33.3259C1.625 33.1102 1.7106 32.9033 1.86298 32.7508C2.01535 32.5983 2.22201 32.5126 2.4375 32.5126C2.65299 32.5126 2.85965 32.5983 3.01202 32.7508C3.1644 32.9033 3.25 33.1102 3.25 33.3259V36.5791C3.25 36.7948 3.1644 37.0016 3.01202 37.1541C2.85965 37.3067 2.65299 37.3923 2.4375 37.3923C2.22201 37.3923 2.01535 37.3067 1.86298 37.1541C1.7106 37.0016 1.625 36.7948 1.625 36.5791ZM4.875 34.1392H30.875V35.7658H4.875V34.1392ZM34.125 33.3259V36.5791C34.125 36.7948 34.0394 37.0016 33.887 37.1541C33.7347 37.3067 33.528 37.3923 33.3125 37.3923C33.097 37.3923 32.8903 37.3067 32.738 37.1541C32.5856 37.0016 32.5 36.7948 32.5 36.5791V33.3259C32.5 33.1102 32.5856 32.9033 32.738 32.7508C32.8903 32.5983 33.097 32.5126 33.3125 32.5126C33.528 32.5126 33.7347 32.5983 33.887 32.7508C34.0394 32.9033 34.125 33.1102 34.125 33.3259ZM29.25 32.5126H6.5V6.48738H29.25V17.9954C26.2924 21.459 24.0797 25.4955 22.75 29.8532C22.7153 29.9765 22.7103 30.1064 22.7353 30.2321C22.7603 30.3578 22.8146 30.4758 22.8938 30.5764C22.973 30.6771 23.0749 30.7577 23.1911 30.8115C23.3073 30.8653 23.4346 30.8908 23.5625 30.886C24.6756 30.886 24.0419 29.78 26.3412 25.2825C27.2857 24.8755 28.2577 24.5358 29.25 24.2659V32.5126ZM35.49 15.4742C35.3622 15.5174 35.2471 15.5919 35.1552 15.6908C35.0632 15.7896 34.9974 15.9099 34.9635 16.0406C34.9297 16.1714 34.9289 16.3085 34.9612 16.4397C34.9935 16.5708 35.058 16.6918 35.1488 16.7917C35.1707 16.8403 35.1821 16.893 35.1821 16.9463C35.1821 16.9996 35.1707 17.0523 35.1488 17.1008C35.0756 17.4261 34.6287 18.3207 32.1019 19.5895C31.9789 19.6519 31.8738 19.7446 31.7966 19.859C31.7193 19.9733 31.6723 20.1054 31.6601 20.2429C31.6479 20.3803 31.6709 20.5187 31.7269 20.6448C31.7828 20.771 31.8699 20.8808 31.98 20.9639C32.0978 21.0444 32.2021 21.1433 32.2887 21.2567C31.8256 21.8504 28.7056 22.7125 27.5681 23.0703C30.142 19.0441 33.3814 15.4853 37.1475 12.5464C37.3026 12.9483 37.3799 13.3761 37.375 13.807C37.375 14.6203 35.9775 15.3116 35.49 15.4742Z" fill="black"/>
<path d="M11.375 11.3671H9.75V9.74047C9.75 9.52478 9.6644 9.31791 9.51202 9.16539C9.35965 9.01287 9.15299 8.92719 8.9375 8.92719C8.72201 8.92719 8.51535 9.01287 8.36298 9.16539C8.2106 9.31791 8.125 9.52478 8.125 9.74047V12.1803C8.125 12.396 8.2106 12.6029 8.36298 12.7554C8.51535 12.9079 8.72201 12.9936 8.9375 12.9936H11.375C11.5905 12.9936 11.7972 12.9079 11.9495 12.7554C12.1019 12.6029 12.1875 12.396 12.1875 12.1803C12.1875 11.9646 12.1019 11.7578 11.9495 11.6053C11.7972 11.4527 11.5905 11.3671 11.375 11.3671ZM16.25 12.1803V9.74047C16.25 9.52478 16.1644 9.31791 16.012 9.16539C15.8597 9.01287 15.653 8.92719 15.4375 8.92719C15.222 8.92719 15.0153 9.01287 14.863 9.16539C14.7106 9.31791 14.625 9.52478 14.625 9.74047V12.1803C14.625 12.396 14.7106 12.6029 14.863 12.7554C15.0153 12.9079 15.222 12.9936 15.4375 12.9936C15.653 12.9936 15.8597 12.9079 16.012 12.7554C16.1644 12.6029 16.25 12.396 16.25 12.1803ZM24.375 10.5538H26.8125C27.028 10.5538 27.2347 10.4681 27.387 10.3156C27.5394 10.163 27.625 9.95617 27.625 9.74047C27.625 9.52478 27.5394 9.31791 27.387 9.16539C27.2347 9.01287 27.028 8.92719 26.8125 8.92719H24.375C24.1595 8.92719 23.9528 9.01287 23.8005 9.16539C23.6481 9.31791 23.5625 9.52478 23.5625 9.74047C23.5625 9.95617 23.6481 10.163 23.8005 10.3156C23.9528 10.4681 24.1595 10.5538 24.375 10.5538ZM26.8125 11.3671H25.1875C24.972 11.3671 24.7653 11.4527 24.613 11.6053C24.4606 11.7578 24.375 11.9646 24.375 12.1803C24.375 12.396 24.4606 12.6029 24.613 12.7554C24.7653 12.9079 24.972 12.9936 25.1875 12.9936H26.8125C27.028 12.9936 27.2347 12.9079 27.387 12.7554C27.5394 12.6029 27.625 12.396 27.625 12.1803C27.625 11.9646 27.5394 11.7578 27.387 11.6053C27.2347 11.4527 27.028 11.3671 26.8125 11.3671ZM17.0625 15.4335H14.625C14.4095 15.4335 14.2028 15.5192 14.0505 15.6717C13.8981 15.8242 13.8125 16.0311 13.8125 16.2468V18.6866C13.8125 18.9023 13.8981 19.1092 14.0505 19.2617C14.2028 19.4143 14.4095 19.4999 14.625 19.4999C14.8405 19.4999 15.0472 19.4143 15.1995 19.2617C15.3519 19.1092 15.4375 18.9023 15.4375 18.6866V17.0601H17.0625C17.278 17.0601 17.4847 16.9744 17.637 16.8219C17.7894 16.6693 17.875 16.4625 17.875 16.2468C17.875 16.0311 17.7894 15.8242 17.637 15.6717C17.4847 15.5192 17.278 15.4335 17.0625 15.4335ZM19.5 16.2468V18.6866C19.5 18.9023 19.5856 19.1092 19.738 19.2617C19.8903 19.4143 20.097 19.4999 20.3125 19.4999C20.528 19.4999 20.7347 19.4143 20.887 19.2617C21.0394 19.1092 21.125 18.9023 21.125 18.6866V16.2468C21.125 16.0311 21.0394 15.8242 20.887 15.6717C20.7347 15.5192 20.528 15.4335 20.3125 15.4335C20.097 15.4335 19.8903 15.5192 19.738 15.6717C19.5856 15.8242 19.5 16.0311 19.5 16.2468ZM26.8125 15.4335H25.1875C24.972 15.4335 24.7653 15.5192 24.613 15.6717C24.4606 15.8242 24.375 16.0311 24.375 16.2468V18.6866C24.375 18.9023 24.4606 19.1092 24.613 19.2617C24.7653 19.4143 24.972 19.4999 25.1875 19.4999C25.403 19.4999 25.6097 19.4143 25.762 19.2617C25.9144 19.1092 26 18.9023 26 18.6866V17.0601H26.8125C27.028 17.0601 27.2347 16.9744 27.387 16.8219C27.5394 16.6693 27.625 16.4625 27.625 16.2468C27.625 16.0311 27.5394 15.8242 27.387 15.6717C27.2347 15.5192 27.028 15.4335 26.8125 15.4335ZM11.375 15.4335H8.9375C8.72201 15.4335 8.51535 15.5192 8.36298 15.6717C8.2106 15.8242 8.125 16.0311 8.125 16.2468C8.125 16.4625 8.2106 16.6693 8.36298 16.8219C8.51535 16.9744 8.72201 17.0601 8.9375 17.0601H11.375C11.5905 17.0601 11.7972 16.9744 11.9495 16.8219C12.1019 16.6693 12.1875 16.4625 12.1875 16.2468C12.1875 16.0311 12.1019 15.8242 11.9495 15.6717C11.7972 15.5192 11.5905 15.4335 11.375 15.4335ZM8.9375 19.4999H10.5625C10.778 19.4999 10.9847 19.4143 11.137 19.2617C11.2894 19.1092 11.375 18.9023 11.375 18.6866C11.375 18.4709 11.2894 18.2641 11.137 18.1116C10.9847 17.959 10.778 17.8734 10.5625 17.8734H8.9375C8.72201 17.8734 8.51535 17.959 8.36298 18.1116C8.2106 18.2641 8.125 18.4709 8.125 18.6866C8.125 18.9023 8.2106 19.1092 8.36298 19.2617C8.51535 19.4143 8.72201 19.4999 8.9375 19.4999ZM20.3125 12.1803H21.125C21.3405 12.1803 21.5472 12.0947 21.6995 11.9421C21.8519 11.7896 21.9375 11.5827 21.9375 11.3671V9.74047C21.9375 9.52478 21.8519 9.31791 21.6995 9.16539C21.5472 9.01287 21.3405 8.92719 21.125 8.92719C20.9095 8.92719 20.7028 9.01287 20.5505 9.16539C20.3981 9.31791 20.3125 9.52478 20.3125 9.74047V10.5538H18.6875C18.472 10.5538 18.2653 10.6394 18.113 10.792C17.9606 10.9445 17.875 11.1514 17.875 11.3671C17.875 11.5827 17.9606 11.7896 18.113 11.9421C18.2653 12.0947 18.472 12.1803 18.6875 12.1803C18.6875 12.396 18.7731 12.6029 18.9255 12.7554C19.0778 12.9079 19.2845 12.9936 19.5 12.9936C19.7155 12.9936 19.9222 12.9079 20.0745 12.7554C20.2269 12.6029 20.3125 12.396 20.3125 12.1803ZM21.9375 24.3797H21.125V22.7531C21.125 22.5374 21.0394 22.3305 20.887 22.178C20.7347 22.0255 20.528 21.9398 20.3125 21.9398C20.097 21.9398 19.8903 22.0255 19.738 22.178C19.5856 22.3305 19.5 22.5374 19.5 22.7531V25.193C19.5 25.4087 19.5856 25.6155 19.738 25.768C19.8903 25.9206 20.097 26.0062 20.3125 26.0062H21.9375C22.153 26.0062 22.3597 25.9206 22.512 25.768C22.6644 25.6155 22.75 25.4087 22.75 25.193C22.75 24.9773 22.6644 24.7704 22.512 24.6179C22.3597 24.4654 22.153 24.3797 21.9375 24.3797ZM16.25 22.7531V25.193C16.25 25.4087 16.3356 25.6155 16.488 25.768C16.6403 25.9206 16.847 26.0062 17.0625 26.0062C17.278 26.0062 17.4847 25.9206 17.637 25.768C17.7894 25.6155 17.875 25.4087 17.875 25.193V22.7531C17.875 22.5374 17.7894 22.3305 17.637 22.178C17.4847 22.0255 17.278 21.9398 17.0625 21.9398C16.847 21.9398 16.6403 22.0255 16.488 22.178C16.3356 22.3305 16.25 22.5374 16.25 22.7531ZM13.8125 23.5664V25.193C13.8125 25.4087 13.8981 25.6155 14.0505 25.768C14.2028 25.9206 14.4095 26.0062 14.625 26.0062C14.8405 26.0062 15.0472 25.9206 15.1995 25.768C15.3519 25.6155 15.4375 25.4087 15.4375 25.193V23.5664C15.4375 23.3507 15.3519 23.1438 15.1995 22.9913C15.0472 22.8388 14.8405 22.7531 14.625 22.7531C14.4095 22.7531 14.2028 22.8388 14.0505 22.9913C13.8981 23.1438 13.8125 23.3507 13.8125 23.5664ZM10.5625 22.7531V24.3797H9.75V22.7531C9.75 22.5374 9.6644 22.3305 9.51202 22.178C9.35965 22.0255 9.15299 21.9398 8.9375 21.9398C8.72201 21.9398 8.51535 22.0255 8.36298 22.178C8.2106 22.3305 8.125 22.5374 8.125 22.7531V25.193C8.125 25.4087 8.2106 25.6155 8.36298 25.768C8.51535 25.9206 8.72201 26.0062 8.9375 26.0062H11.375C11.5905 26.0062 11.7972 25.9206 11.9495 25.768C12.1019 25.6155 12.1875 25.4087 12.1875 25.193V22.7531C12.1875 22.5374 12.1019 22.3305 11.9495 22.178C11.7972 22.0255 11.5905 21.9398 11.375 21.9398C11.1595 21.9398 10.9528 22.0255 10.8005 22.178C10.6481 22.3305 10.5625 22.5374 10.5625 22.7531Z" fill="black"/>
</svg>
