<svg width="70" height="39" viewBox="0 0 70 39" fill="none" xmlns="http://www.w3.org/2000/svg">
<path d="M11.667 13L11.0586 14.092L9.09868 13L11.0586 11.908L11.667 13ZM26.2503 32.125C25.56 32.125 25.0003 31.5654 25.0003 30.875C25.0003 30.1846 25.56 29.625 26.2503 29.625L26.2503 32.125ZM25.6419 22.217L11.0586 14.092L12.2754 11.908L26.8587 20.033L25.6419 22.217ZM11.0586 11.908L25.6419 3.78304L26.8587 5.96696L12.2754 14.092L11.0586 11.908ZM11.667 11.75L49.3961 11.75L49.3961 14.25L11.667 14.25L11.667 11.75ZM49.3962 32.125L26.2503 32.125L26.2503 29.625L49.3962 29.625L49.3962 32.125ZM59.5837 21.9375C59.5837 27.5639 55.0226 32.125 49.3962 32.125L49.3962 29.625C53.6418 29.625 57.0837 26.1832 57.0837 21.9375L59.5837 21.9375ZM49.3961 11.75C55.0225 11.75 59.5837 16.3111 59.5837 21.9375L57.0837 21.9375C57.0837 17.6918 53.6418 14.25 49.3961 14.25L49.3961 11.75Z" fill="#33363F"/>
</svg>
