<svg width="80" height="80" viewBox="0 0 80 80" fill="none" xmlns="http://www.w3.org/2000/svg">
<path fill-rule="evenodd" clip-rule="evenodd" d="M62.8545 47.9164H68.2413V41.9116H62.8545V47.9164Z" fill="#9A9A9A"/>
<path fill-rule="evenodd" clip-rule="evenodd" d="M68.2412 47.9175H72.9347V39.2178H68.2412V47.9175Z" fill="white"/>
<path fill-rule="evenodd" clip-rule="evenodd" d="M55.8615 73.358H25.5663C21.7051 73.358 18.5742 70.3073 18.5742 66.545V29.0919H62.8537V66.5449C62.8537 70.3072 59.7227 73.358 55.8615 73.358Z" fill="#6A3D13"/>
<path opacity="0.2" fill-rule="evenodd" clip-rule="evenodd" d="M56.0555 29.0919V66.5452C56.0555 70.3084 52.9247 73.3581 49.0635 73.3581H55.8613C59.7226 73.3581 62.8535 70.3083 62.8535 66.5452V29.0919H56.0555Z" fill="black"/>
<path fill-rule="evenodd" clip-rule="evenodd" d="M62.8534 47.9165V66.5442C62.8534 70.3073 59.7225 73.357 55.8613 73.357H67.2653C71.1265 73.357 74.2573 70.3073 74.2573 66.5441V47.9165H62.8534Z" fill="#6A3D13"/>
<path opacity="0.2" fill-rule="evenodd" clip-rule="evenodd" d="M68.4297 47.9165V66.5442C68.4297 70.3073 65.2987 73.357 61.4375 73.357H67.2643C71.1255 73.357 74.2563 70.3073 74.2563 66.5441V47.9165H68.4297Z" fill="black"/>
<path fill-rule="evenodd" clip-rule="evenodd" d="M18.5739 66.5442V47.9165H7.16992V66.5442C7.16992 70.3075 10.3008 73.3572 14.162 73.3572H25.5659C21.7047 73.3572 18.5739 70.3075 18.5739 66.5442Z" fill="#6A3D13"/>
<path fill-rule="evenodd" clip-rule="evenodd" d="M64.3122 29.0917H17.1151C13.2539 29.0917 10.123 26.041 10.123 22.2787V18.5894C10.123 14.8261 13.2539 11.7764 17.1151 11.7764H64.312C68.1732 11.7764 71.3041 14.8263 71.3041 18.5894V22.2787C71.3041 26.041 68.1734 29.0917 64.3122 29.0917Z" fill="#5E0101"/>
<path fill-rule="evenodd" clip-rule="evenodd" d="M23.5576 29.0917H28.7366V11.7764H23.5576V29.0917ZM52.6914 29.0917H57.8704V11.7764H52.6914V29.0917Z" fill="white"/>
<path fill-rule="evenodd" clip-rule="evenodd" d="M28.332 60.9786H33.511V44.2443H28.332V60.9786ZM47.9168 60.9786H53.0958V44.2443H47.9168V60.9786Z" fill="white"/>
<path fill-rule="evenodd" clip-rule="evenodd" d="M14.9752 39.2165H11.8735C9.88553 39.2165 8.27344 40.7862 8.27344 42.7233V47.9162H18.5743V42.7233C18.5743 40.7862 16.9631 39.2165 14.9752 39.2165Z" fill="white"/>
<path d="M18.5742 29.0919V45.7988C18.5742 49.562 21.7051 52.6117 25.5663 52.6117H28.3321V44.2451H33.5111V52.6117H47.9158V44.2451H53.0958V52.6117H55.8616C59.7228 52.6117 62.8537 49.562 62.8537 45.7988V29.0919H18.5742Z" fill="#6A3D13"/>
<path opacity="0.2" fill-rule="evenodd" clip-rule="evenodd" d="M57.0264 29.0907V45.7976C57.0264 48.4896 55.4213 50.8088 53.0954 51.9159V52.6105H55.8611C59.7225 52.6105 62.8533 49.5608 62.8533 45.7976V29.0907H57.0264ZM64.3122 22.4671H17.1151C13.7706 22.4671 10.9795 20.1781 10.29 17.1209C10.18 17.6028 10.124 18.0948 10.123 18.5884V22.2778C10.123 26.04 13.2539 29.0907 17.1151 29.0907H64.312C68.1732 29.0907 71.3041 26.04 71.3041 22.2778V18.5884C71.3041 18.0841 71.2441 17.5939 71.1371 17.1208C70.4477 20.1781 67.6567 22.4671 64.3122 22.4671ZM18.5741 66.5442V39.4003H12.7472V66.5442C12.7472 70.3075 15.8781 73.3571 19.7393 73.3571H25.566C21.7048 73.3571 18.5741 70.3075 18.5741 66.5442Z" fill="black"/>
<path fill-rule="evenodd" clip-rule="evenodd" d="M72.8004 67.483C72.8004 70.457 70.3172 72.8756 67.265 72.8756H62.2394C62.2646 72.8472 62.2869 72.816 62.3112 72.7876C62.3802 72.7081 62.4443 72.6268 62.5093 72.5453C62.6043 72.4276 62.6963 72.3077 62.7851 72.1857C62.8483 72.0977 62.9075 72.0079 62.9677 71.9179C63.0489 71.7946 63.127 71.6694 63.2018 71.5423C63.2571 71.4478 63.3104 71.3512 63.363 71.2537C63.4319 71.1241 63.4959 70.9926 63.5582 70.8591C63.6048 70.7589 63.6504 70.6585 63.6932 70.5564C63.7503 70.4182 63.8009 70.2782 63.8504 70.1362C63.8874 70.0339 63.9243 69.9318 63.9563 69.8267C64.002 69.6773 64.0389 69.525 64.0758 69.3726C64.1011 69.2715 64.1282 69.1719 64.1487 69.0698C64.1836 68.8985 64.2069 68.7244 64.2302 68.5503C64.2419 68.4622 64.2593 68.3762 64.268 68.2872C64.2943 68.0223 64.3098 67.7545 64.3098 67.483V50.2736H72.8004V67.483ZM20.0313 67.483V52.942C21.515 54.2006 23.4487 54.9689 25.5656 54.9689H26.8748V61.9164C26.8748 62.6998 27.5273 63.3358 28.3314 63.3358H33.5114C34.3155 63.3358 34.9681 62.6998 34.9681 61.9164V54.969H46.4596V61.9164C46.4596 62.6998 47.1121 63.3358 47.9162 63.3358H53.0952C53.8993 63.3358 54.5519 62.6998 54.5519 61.9164V54.969H55.862C57.979 54.969 59.9126 54.2007 61.3965 52.9421V67.483C61.3965 70.457 58.9132 72.8756 55.862 72.8756H25.5656C22.5144 72.8756 20.0313 70.457 20.0313 67.483ZM14.1626 72.8756C11.1104 72.8756 8.62718 70.457 8.62718 67.483V50.2736H17.118V67.483C17.118 67.7545 17.1334 68.0223 17.1597 68.2872C17.1684 68.3762 17.1859 68.4622 17.1976 68.5503C17.2209 68.7244 17.2442 68.8985 17.2791 69.0698C17.2995 69.1719 17.3268 69.2713 17.3509 69.3726C17.3888 69.525 17.4258 69.6773 17.4714 69.8267C17.5035 69.9318 17.5403 70.0339 17.5772 70.1362C17.6268 70.2782 17.6773 70.4182 17.7346 70.5562C17.7774 70.6585 17.823 70.7589 17.8696 70.8591C17.9318 70.9926 17.9958 71.1241 18.0647 71.2537C18.1172 71.3512 18.1706 71.4478 18.226 71.5423C18.3008 71.6694 18.3788 71.7946 18.4601 71.9179C18.5202 72.0079 18.5794 72.0977 18.6426 72.1857C18.7309 72.3088 18.8233 72.427 18.9184 72.5453C18.9835 72.6268 19.0475 72.7081 19.1165 72.7876C19.1408 72.816 19.1631 72.8472 19.1884 72.8756H14.1626ZM9.73044 43.6613C9.73044 42.5097 10.6909 41.5738 11.8728 41.5738H14.9745C16.1565 41.5738 17.1178 42.5097 17.1178 43.6613V47.4349H9.73044V43.6613ZM29.7881 53.5497V46.6023H32.0547V60.4969H29.7881V53.5497ZM49.3729 53.5497V46.6023H51.6386V60.4969H49.3729V53.5497ZM23.5573 31.4491H61.3963V46.7365C61.3963 49.7114 58.9132 52.13 55.862 52.13H54.5519V45.1828C54.5519 44.3983 53.8993 43.7634 53.0952 43.7634H47.9162C47.1121 43.7634 46.4594 44.3983 46.4594 45.1828V52.13H34.968V45.1828C34.968 44.3983 34.3155 43.7634 33.5114 43.7634H28.3314C27.5273 43.7634 26.8747 44.3983 26.8747 45.1828V52.13H25.5656C22.5144 52.13 20.0311 49.7114 20.0311 46.7365V31.4492L23.5573 31.4491ZM11.5795 23.2169V19.5266C11.5795 16.5524 14.0626 14.133 17.1148 14.133H22.1006V28.6105H17.1148C14.0626 28.6105 11.5795 26.1909 11.5795 23.2169ZM25.014 28.6105H27.2797V14.133H25.014V28.6105ZM38.0242 8.55302H43.4034C45.2466 8.55302 46.8208 9.69696 47.4171 11.2943H34.0105C34.6068 9.69696 36.181 8.55302 38.0242 8.55302ZM30.1932 28.6105V14.133H51.2345V28.6105H30.1932ZM54.148 28.6105H56.4135V14.133H54.148V28.6105ZM69.8472 19.5266V23.2169C69.8472 26.1909 67.364 28.6105 64.3128 28.6105H59.327V14.133H64.3128C67.364 14.133 69.8472 16.5524 69.8472 19.5266ZM66.7843 44.2698V47.4349H64.3098V44.2698H66.7843ZM69.6976 41.5738H71.4778V47.4349H69.6976V41.5738ZM74.3911 47.4481V40.1545C74.3911 39.371 73.7385 38.7351 72.9345 38.7351H68.241C67.4369 38.7351 66.7843 39.371 66.7843 40.1545V41.431H64.3098V31.4492H64.3126C68.9712 31.4492 72.7605 27.756 72.7605 23.2169V19.5266C72.7605 14.9874 68.9712 11.2943 64.3128 11.2943H50.4383C49.7622 8.11293 46.8654 5.71429 43.4034 5.71429H38.0242C34.5622 5.71429 31.6654 8.11293 30.9893 11.2943H17.115C12.4565 11.2943 8.66619 14.9874 8.66619 19.5266V23.2169C8.66619 27.756 12.4565 31.4492 17.115 31.4492H17.1178V39.2169C16.4654 38.916 15.7437 38.7352 14.9746 38.7352H11.8728C9.08455 38.7352 6.81699 40.9447 6.81699 43.6614V47.4823C6.18482 47.6376 5.71387 48.191 5.71387 48.8543V67.483C5.71387 72.022 9.50418 75.7143 14.1626 75.7143H67.265C71.9236 75.7143 75.7139 72.022 75.7139 67.483V48.8543C75.7139 48.1162 75.1311 47.5152 74.3911 47.4481Z" fill="#200404"/>
</svg>
