<svg width="56" height="56" viewBox="0 0 56 56" fill="none" xmlns="http://www.w3.org/2000/svg">
<rect x="3" y="11" width="49" height="36" fill="#3E2323"/>
<path d="M7.5 7.5L15 7L26.5 10.5L39.5 7.5H47.5L50 10L49 13L7 12.5V11.5L7.07143 10.5L7.5 7.5Z" fill="#3E2323"/>
<path d="M31.667 46.6875C31.667 49.0693 29.8762 51.0001 27.667 51.0001C25.4578 51.0001 23.667 49.0693 23.667 46.6875C23.667 44.3059 25.4578 42.375 27.667 42.375C29.8762 42.375 31.667 44.3059 31.667 46.6875Z" fill="#968C8C"/>
<path fill-rule="evenodd" clip-rule="evenodd" d="M33.5441 8.48865C31.71 8.78089 29.7764 9.17319 27.6667 9.6572C25.5569 9.17333 23.6235 8.78089 21.7892 8.48879C23.4492 9.19145 25.1365 10.0367 26.9159 10.9632C27.3753 11.2024 27.6667 11.7048 27.6667 12.2548C27.6667 11.7048 27.958 11.2024 28.4175 10.9632C30.1968 10.0367 31.8841 9.19145 33.5441 8.48865ZM27.6667 44.3889C27.6667 45.2192 27.0359 45.8249 26.3333 45.8367V46.1191C17.9751 44.5939 12.0699 44.4984 3.66667 46.0874V12.2349C4.58896 12.0082 5.4752 11.8087 6.33333 11.6354V8.71319C4.96543 8.97697 3.53332 9.30515 2.00879 9.70119C1.41492 9.85543 1 10.4309 1 11.0894V47.8012C1 48.7109 1.77691 49.3904 2.60567 49.2199C12.0397 47.2796 17.9724 47.3943 27.4107 49.242C27.4972 49.259 27.5832 49.2666 27.6676 49.2658C27.7515 49.2665 27.8368 49.2589 27.9227 49.242C37.3609 47.3943 43.2936 47.2794 52.7276 49.2199C53.5564 49.3904 54.3333 48.7109 54.3333 47.8012V11.0894C54.3333 10.4309 53.9184 9.85543 53.3245 9.70119C51.8 9.30515 50.3679 8.97697 49 8.71319V11.6354C49.8581 11.8086 50.7444 12.0082 51.6667 12.2349V46.0874C43.2635 44.4984 37.3583 44.5939 29 46.1191V45.8367C28.2975 45.8249 27.6667 45.2192 27.6667 44.3889Z" fill="#968C8C"/>
<path fill-rule="evenodd" clip-rule="evenodd" d="M7.66667 8.60277V41.0167C7.66667 41.0172 7.66667 41.0164 7.66667 41.0167C7.66805 41.0189 7.67105 41.0239 7.67661 41.0287C7.69577 41.0452 7.72045 41.0525 7.74727 41.0472C14.8668 39.6387 20.2167 41.3626 26.3004 44.3952C26.3073 44.3986 26.3108 44.3993 26.3113 44.3993L26.3133 44.3995C26.3157 44.3993 26.322 44.3979 26.3291 44.393C26.3309 44.3919 26.3323 44.3907 26.3333 44.3897C26.3333 44.39 26.3333 44.3896 26.3333 44.3897V12.2563C19.6944 8.79985 14.6881 6.67777 7.66667 8.60277ZM26.3333 12.2563C26.3333 12.2562 26.3333 12.2562 26.3333 12.2563ZM6.96519 5.82868C14.9901 3.61336 20.7609 6.16224 27.4957 9.66883C28.4176 10.1488 29 11.1554 29 12.2549V44.389C29 46.5267 26.9367 47.8798 25.1812 47.0048C19.3407 44.0934 14.5825 42.6181 8.22852 43.8749C6.61387 44.1944 5 42.9002 5 41.0167V8.58192C5 7.3176 5.77671 6.15676 6.96519 5.82868Z" fill="#968C8C"/>
<path fill-rule="evenodd" clip-rule="evenodd" d="M47.6673 8.60277V41.0167C47.666 41.0189 47.6629 41.0239 47.6573 41.0287C47.6383 41.0452 47.6136 41.0525 47.5868 41.0472C40.4672 39.6388 35.1173 41.3626 29.0336 44.3952C29.0267 44.3986 29.0227 44.3994 29.0227 44.3994L29.0207 44.3995C29.0183 44.3994 29.012 44.3979 29.0049 44.393C29.0031 44.3919 29.0007 44.389 29.0007 44.389V12.2549C35.6396 8.79841 40.6459 6.67777 47.6673 8.60277ZM48.3688 5.82868C40.3439 3.61336 34.5731 6.16224 27.8383 9.66883C26.9164 10.1488 26.334 11.1568 26.334 12.2563V44.3897C26.334 46.5274 28.3973 47.8798 30.1528 47.0048C35.9933 44.0934 40.7515 42.6181 47.1055 43.8749C48.7201 44.1944 50.334 42.9002 50.334 41.0167V8.58192C50.334 7.31761 49.5573 6.15676 48.3688 5.82868Z" fill="#968C8C"/>
<path fill-rule="evenodd" clip-rule="evenodd" d="M10.6929 33.3932C14.5811 33.3524 16.7395 33.7477 20.8694 35.4543L21.8238 32.7697C17.3966 30.9402 14.9062 30.4739 10.667 30.5183L10.6929 33.3932ZM10.6929 26.2056C14.5811 26.1648 16.7395 26.5601 20.8694 28.2667L21.8238 25.5822C17.3966 23.7527 14.9062 23.2863 10.667 23.3308L10.6929 26.2056ZM10.6929 19.0181C14.5811 18.9773 16.7395 19.3726 20.8694 21.0792L21.8238 18.3946C17.3966 16.5651 14.9062 16.0988 10.667 16.1432L10.6929 19.0181Z" fill="#968C8C"/>
<path fill-rule="evenodd" clip-rule="evenodd" d="M44.7974 33.3932C40.9091 33.3524 38.7507 33.7477 34.6208 35.4543L33.6664 32.7697C38.0936 30.9402 40.584 30.4739 44.8232 30.5183L44.7974 33.3932ZM44.7974 26.2056C40.9091 26.1648 38.7507 26.5601 34.6208 28.2667L33.6664 25.5822C38.0936 23.7527 40.584 23.2863 44.8232 23.3308L44.7974 26.2056ZM44.7974 19.0181C40.9091 18.9773 38.7507 19.3726 34.6208 21.0792L33.6664 18.3946C38.0936 16.5651 40.584 16.0988 44.8232 16.1432L44.7974 19.0181Z" fill="#968C8C"/>
</svg>
