<svg width="57" height="56" viewBox="0 0 57 56" fill="none" xmlns="http://www.w3.org/2000/svg">
<path d="M31.6973 46.6875C31.6973 49.0693 29.9065 51.0001 27.6973 51.0001C25.4881 51.0001 23.6973 49.0693 23.6973 46.6875C23.6973 44.3059 25.4881 42.375 27.6973 42.375C29.9065 42.375 31.6973 44.3059 31.6973 46.6875Z" fill="#33363F"/>
<path fill-rule="evenodd" clip-rule="evenodd" d="M33.5744 8.48865C31.7403 8.78089 29.8067 9.17319 27.6969 9.6572C25.5872 9.17333 23.6537 8.78089 21.8195 8.48879C23.4795 9.19145 25.1668 10.0367 26.9461 10.9632C27.4056 11.2024 27.6969 11.7048 27.6969 12.2548C27.6969 11.7048 27.9883 11.2024 28.4477 10.9632C30.2271 10.0367 31.9144 9.19145 33.5744 8.48865ZM27.6969 44.3889C27.6969 45.2192 27.0661 45.8249 26.3636 45.8367V46.119C18.0053 44.5939 12.1001 44.4984 3.69694 46.0874V12.2349C4.61923 12.0082 5.50547 11.8087 6.36361 11.6354V8.71319C4.9957 8.97697 3.56359 9.30515 2.03906 9.70119C1.44519 9.85543 1.03027 10.4309 1.03027 11.0894V47.8012C1.03027 48.7109 1.80718 49.3904 2.63594 49.2199C12.07 47.2796 18.0027 47.3943 27.4409 49.242C27.5275 49.259 27.6135 49.2666 27.6979 49.2658C27.7817 49.2665 27.8671 49.2589 27.9529 49.242C37.3912 47.3943 43.3239 47.2794 52.7579 49.2199C53.5867 49.3904 54.3636 48.7109 54.3636 47.8012V11.0894C54.3636 10.4309 53.9487 9.85543 53.3548 9.70119C51.8303 9.30515 50.3981 8.97697 49.0303 8.71319V11.6354C49.8884 11.8086 50.7747 12.0082 51.6969 12.2349V46.0874C43.2937 44.4984 37.3885 44.5939 29.0303 46.119V45.8367C28.3277 45.8249 27.6969 45.2192 27.6969 44.3889Z" fill="#33363F"/>
<path fill-rule="evenodd" clip-rule="evenodd" d="M7.69694 8.60277V41.0167C7.69694 41.0164 7.69694 41.0172 7.69694 41.0167C7.69833 41.0189 7.70133 41.0239 7.70689 41.0287C7.72605 41.0452 7.75073 41.0525 7.77754 41.0472C14.8971 39.6387 20.2469 41.3626 26.3307 44.3952C26.3376 44.3986 26.3411 44.3993 26.3416 44.3993L26.3436 44.3995C26.346 44.3993 26.3523 44.3979 26.3593 44.393C26.3612 44.3919 26.3625 44.3907 26.3636 44.3897C26.3636 44.3896 26.3636 44.39 26.3636 44.3897V12.2563C19.7247 8.79985 14.7184 6.67777 7.69694 8.60277ZM26.3636 12.2563C26.3636 12.2562 26.3636 12.2562 26.3636 12.2563V12.2563ZM6.99546 5.82868C15.0204 3.61336 20.7912 6.16224 27.526 9.66883C28.4479 10.1488 29.0303 11.1554 29.0303 12.2549V44.389C29.0303 46.5267 26.9669 47.8798 25.2115 47.0048C19.3709 44.0934 14.6128 42.6181 8.25879 43.8749C6.64414 44.1944 5.03027 42.9002 5.03027 41.0167V8.58192C5.03027 7.31761 5.80698 6.15676 6.99546 5.82868Z" fill="#33363F"/>
<path fill-rule="evenodd" clip-rule="evenodd" d="M47.6966 8.60277V41.0167C47.6953 41.0189 47.6922 41.0239 47.6866 41.0287C47.6675 41.0452 47.6429 41.0525 47.6161 41.0472C40.4965 39.6387 35.1466 41.3626 29.0629 44.3952C29.0559 44.3986 29.0519 44.3993 29.0519 44.3993L29.0499 44.3995C29.0475 44.3994 29.0413 44.3979 29.0342 44.393C29.0323 44.3919 29.0299 44.389 29.0299 44.389V12.2549C35.6689 8.79841 40.6751 6.67777 47.6966 8.60277ZM48.3981 5.82868C40.3731 3.61336 34.6023 6.16224 27.8675 9.66883C26.9457 10.1488 26.3633 11.1568 26.3633 12.2563V44.3897C26.3633 46.5274 28.4266 47.8798 30.1821 47.0048C36.0226 44.0934 40.7808 42.6181 47.1348 43.8749C48.7494 44.1944 50.3633 42.9002 50.3633 41.0167V8.58192C50.3633 7.31761 49.5866 6.15676 48.3981 5.82868Z" fill="#33363F"/>
<path fill-rule="evenodd" clip-rule="evenodd" d="M10.7231 33.3932C14.6114 33.3524 16.7698 33.7477 20.8997 35.4543L21.8541 32.7697C17.4269 30.9402 14.9365 30.4739 10.6973 30.5183L10.7231 33.3932ZM10.7231 26.2056C14.6114 26.1648 16.7698 26.5601 20.8997 28.2667L21.8541 25.5822C17.4269 23.7527 14.9365 23.2863 10.6973 23.3308L10.7231 26.2056ZM10.7231 19.0181C14.6114 18.9773 16.7698 19.3726 20.8997 21.0792L21.8541 18.3946C17.4269 16.5651 14.9365 16.0988 10.6973 16.1432L10.7231 19.0181Z" fill="#33363F"/>
<path fill-rule="evenodd" clip-rule="evenodd" d="M44.8276 33.3932C40.9394 33.3524 38.781 33.7477 34.6511 35.4543L33.6967 32.7697C38.1239 30.9402 40.6143 30.4739 44.8535 30.5183L44.8276 33.3932ZM44.8276 26.2056C40.9394 26.1648 38.781 26.5601 34.6511 28.2667L33.6967 25.5822C38.1239 23.7527 40.6143 23.2863 44.8535 23.3308L44.8276 26.2056ZM44.8276 19.0181C40.9394 18.9773 38.781 19.3726 34.6511 21.0792L33.6967 18.3946C38.1239 16.5651 40.6143 16.0988 44.8535 16.1432L44.8276 19.0181Z" fill="#33363F"/>
</svg>
