<svg width="57" height="57" viewBox="0 0 57 57" fill="none" xmlns="http://www.w3.org/2000/svg">
<rect width="56.03" height="56.03" rx="10" fill="#D9D9D9"/>
<path d="M37.3533 37.3533H15.1748C11.9514 37.3533 9.33832 39.9664 9.33832 43.1898V16.3421C9.33832 11.9399 9.33832 9.73886 10.7059 8.37129C12.0735 7.00372 14.2745 7.00372 18.6767 7.00372H37.3533C41.7555 7.00372 43.9565 7.00372 45.3241 8.37129C46.6917 9.73886 46.6917 11.9399 46.6917 16.3421V28.015C46.6917 32.4171 46.6917 34.6182 45.3241 35.9857C43.9565 37.3533 41.7555 37.3533 37.3533 37.3533Z" fill="#33363F"/>
<path d="M45.3241 8.37129L44.617 9.0784V9.0784L45.3241 8.37129ZM45.3241 35.9857L44.617 35.2786V35.2786L45.3241 35.9857ZM15.1748 38.3533H37.3533V36.3533H15.1748V38.3533ZM47.6917 28.015V16.3421H45.6917V28.015H47.6917ZM37.3533 6.00372H18.6767V8.00372H37.3533V6.00372ZM8.33832 16.3421V43.1898H10.3383V16.3421H8.33832ZM25.6804 48.0262H15.1748V50.0262H25.6804V48.0262ZM18.6767 6.00372C16.5039 6.00372 14.7737 6.0016 13.4201 6.18359C12.0377 6.36944 10.8993 6.76363 9.99878 7.66418L11.413 9.0784C11.88 8.61138 12.526 8.32179 13.6866 8.16575C14.8759 8.00585 16.4473 8.00372 18.6767 8.00372V6.00372ZM10.3383 16.3421C10.3383 14.1127 10.3404 12.5413 10.5003 11.352C10.6564 10.1914 10.946 9.54541 11.413 9.0784L9.99878 7.66418C9.09823 8.56474 8.70404 9.7031 8.51818 11.0855C8.33619 12.4391 8.33832 14.1693 8.33832 16.3421H10.3383ZM47.6917 16.3421C47.6917 14.1693 47.6938 12.4391 47.5118 11.0855C47.3259 9.7031 46.9317 8.56474 46.0312 7.66418L44.617 9.0784C45.084 9.54541 45.3736 10.1914 45.5296 11.352C45.6895 12.5413 45.6917 14.1127 45.6917 16.3421H47.6917ZM37.3533 8.00372C39.5827 8.00372 41.1541 8.00585 42.3434 8.16575C43.504 8.32179 44.15 8.61138 44.617 9.0784L46.0312 7.66418C45.1306 6.76363 43.9923 6.36944 42.6099 6.18359C41.2563 6.0016 39.5261 6.00372 37.3533 6.00372V8.00372ZM37.3533 38.3533C39.5261 38.3533 41.2563 38.3554 42.6099 38.1734C43.9923 37.9876 45.1306 37.5934 46.0312 36.6928L44.617 35.2786C44.15 35.7456 43.504 36.0352 42.3434 36.1913C41.1541 36.3512 39.5827 36.3533 37.3533 36.3533V38.3533ZM45.6917 28.015C45.6917 30.2443 45.6895 31.8157 45.5296 33.0051C45.3736 34.1657 45.084 34.8116 44.617 35.2786L46.0312 36.6928C46.9317 35.7923 47.3259 34.6539 47.5118 33.2716C47.6938 31.918 47.6917 30.1878 47.6917 28.015H45.6917ZM10.3383 43.1898C10.3383 40.5187 12.5037 38.3533 15.1748 38.3533V36.3533C11.3991 36.3533 8.33832 39.4141 8.33832 43.1898H10.3383ZM8.33832 43.1898C8.33832 46.9654 11.3991 50.0262 15.1748 50.0262V48.0262C12.5037 48.0262 10.3383 45.8609 10.3383 43.1898H8.33832Z" fill="#33363F"/>
<path d="M15.1111 17.55C14.7311 17.55 14.3877 17.6167 14.0811 17.75C13.7744 17.8767 13.5144 18.0667 13.3011 18.32C13.0877 18.5667 12.9244 18.87 12.8111 19.23C12.6977 19.5833 12.6411 19.9833 12.6411 20.43C12.6411 21.0167 12.7311 21.5267 12.9111 21.96C13.0977 22.3933 13.3711 22.7267 13.7311 22.96C14.0977 23.1933 14.5544 23.31 15.1011 23.31C15.4144 23.31 15.7111 23.2833 15.9911 23.23C16.2711 23.1767 16.5444 23.11 16.8111 23.03V23.81C16.5444 23.91 16.2677 23.9833 15.9811 24.03C15.7011 24.0767 15.3644 24.1 14.9711 24.1C14.2444 24.1 13.6377 23.95 13.1511 23.65C12.6644 23.35 12.2977 22.9233 12.0511 22.37C11.8111 21.8167 11.6911 21.1667 11.6911 20.42C11.6911 19.88 11.7644 19.3867 11.9111 18.94C12.0644 18.4933 12.2844 18.1067 12.5711 17.78C12.8644 17.4533 13.2244 17.2033 13.6511 17.03C14.0777 16.85 14.5677 16.76 15.1211 16.76C15.4877 16.76 15.8411 16.7967 16.1811 16.87C16.5211 16.9433 16.8244 17.0467 17.0911 17.18L16.7311 17.94C16.5111 17.84 16.2644 17.75 15.9911 17.67C15.7244 17.59 15.4311 17.55 15.1111 17.55ZM21.4194 18.64H22.3794L20.0894 21.22L22.5694 24H21.5494L19.1294 21.28V24H18.2494V18.64H19.1294V21.24L21.4194 18.64ZM25.5724 18.55C26.2257 18.55 26.709 18.6933 27.0224 18.98C27.3357 19.2667 27.4924 19.7233 27.4924 20.35V24H26.8524L26.6824 23.24H26.6424C26.489 23.4333 26.329 23.5967 26.1624 23.73C26.0024 23.8567 25.8157 23.95 25.6024 24.01C25.3957 24.07 25.1424 24.1 24.8424 24.1C24.5224 24.1 24.2324 24.0433 23.9724 23.93C23.719 23.8167 23.519 23.6433 23.3724 23.41C23.2257 23.17 23.1524 22.87 23.1524 22.51C23.1524 21.9767 23.3624 21.5667 23.7824 21.28C24.2024 20.9867 24.849 20.8267 25.7224 20.8L26.6324 20.77V20.45C26.6324 20.0033 26.5357 19.6933 26.3424 19.52C26.149 19.3467 25.8757 19.26 25.5224 19.26C25.2424 19.26 24.9757 19.3033 24.7224 19.39C24.469 19.47 24.2324 19.5633 24.0124 19.67L23.7424 19.01C23.9757 18.8833 24.2524 18.7767 24.5724 18.69C24.8924 18.5967 25.2257 18.55 25.5724 18.55ZM25.8324 21.41C25.1657 21.4367 24.7024 21.5433 24.4424 21.73C24.189 21.9167 24.0624 22.18 24.0624 22.52C24.0624 22.82 24.1524 23.04 24.3324 23.18C24.519 23.32 24.7557 23.39 25.0424 23.39C25.4957 23.39 25.8724 23.2667 26.1724 23.02C26.4724 22.7667 26.6224 22.38 26.6224 21.86V21.38L25.8324 21.41ZM30.5579 18.54C30.9645 18.54 31.3179 18.5967 31.6179 18.71C31.9179 18.8167 32.1512 18.9767 32.3179 19.19C32.4845 19.3967 32.5679 19.65 32.5679 19.95C32.5679 20.2767 32.4779 20.5367 32.2979 20.73C32.1179 20.9167 31.8712 21.0533 31.5579 21.14V21.18C31.7712 21.24 31.9679 21.3233 32.1479 21.43C32.3279 21.5367 32.4712 21.6767 32.5779 21.85C32.6912 22.0233 32.7479 22.2467 32.7479 22.52C32.7479 22.8133 32.6645 23.08 32.4979 23.32C32.3379 23.56 32.0879 23.75 31.7479 23.89C31.4145 24.03 30.9845 24.1 30.4579 24.1C30.2045 24.1 29.9612 24.0867 29.7279 24.06C29.5012 24.0333 29.2945 23.9933 29.1079 23.94C28.9279 23.8867 28.7679 23.8233 28.6279 23.75V22.96C28.8545 23.0667 29.1212 23.1633 29.4279 23.25C29.7412 23.3367 30.0812 23.38 30.4479 23.38C30.7145 23.38 30.9545 23.35 31.1679 23.29C31.3879 23.23 31.5612 23.1367 31.6879 23.01C31.8145 22.8767 31.8779 22.6967 31.8779 22.47C31.8779 22.2633 31.8212 22.0967 31.7079 21.97C31.5945 21.8367 31.4245 21.7367 31.1979 21.67C30.9779 21.6033 30.6945 21.57 30.3479 21.57H29.6279V20.85H30.2079C30.6679 20.85 31.0345 20.79 31.3079 20.67C31.5879 20.5433 31.7279 20.33 31.7279 20.03C31.7279 19.7767 31.6212 19.5867 31.4079 19.46C31.2012 19.3333 30.9012 19.27 30.5079 19.27C30.2145 19.27 29.9545 19.3 29.7279 19.36C29.5079 19.4133 29.2645 19.4967 28.9979 19.61L28.6879 18.91C28.9745 18.7833 29.2745 18.69 29.5879 18.63C29.9012 18.57 30.2245 18.54 30.5579 18.54ZM37.2202 18.64H38.1802L35.8902 21.22L38.3702 24H37.3502L34.9302 21.28V24H34.0502V18.64H34.9302V21.24L37.2202 18.64ZM40.1732 21.91C40.1732 21.97 40.1698 22.0567 40.1632 22.17C40.1632 22.2767 40.1598 22.3933 40.1532 22.52C40.1465 22.64 40.1398 22.7567 40.1332 22.87C40.1265 22.9767 40.1198 23.0633 40.1132 23.13L42.9832 18.64H44.0632V24H43.2432V20.84C43.2432 20.7333 43.2432 20.5933 43.2432 20.42C43.2498 20.2467 43.2565 20.0767 43.2632 19.91C43.2698 19.7367 43.2765 19.6067 43.2832 19.52L40.4332 24H39.3432V18.64H40.1732V21.91Z" fill="white"/>
<path d="M46.6917 49.0262H23.3458" stroke="#33363F" stroke-width="2" stroke-linecap="round"/>
</svg>
