<svg width="32" height="38" viewBox="0 0 32 38" fill="none" xmlns="http://www.w3.org/2000/svg">
<path d="M24.7971 37.5C23.9084 37.503 23.0279 37.2961 22.2068 36.8911C21.3856 36.4861 20.6402 35.8911 20.0136 35.1407L15.78 30.0973L11.5442 35.1407C8.99009 38.1817 4.53562 38.1817 1.97926 35.1407C0.703337 33.6215 0 31.5977 0 29.4477C0 27.2978 0.703338 25.274 1.98152 23.7521L6.21507 18.7114L1.98152 13.668C0.703338 12.1488 0 10.125 0 7.97508C0 5.82513 0.703338 3.80133 1.98152 2.27946C4.53562 -0.758925 8.99009 -0.761607 11.5465 2.28214L15.78 7.32553L20.0158 2.28214C22.5699 -0.758923 27.0244 -0.758923 29.5807 2.28214C30.8567 3.80133 31.56 5.82513 31.56 7.97508C31.56 10.125 30.8567 12.1488 29.5785 13.6707L25.3449 18.7114L29.5785 23.7548C30.8567 25.274 31.56 27.2978 31.56 29.4477C31.56 31.5977 30.8567 33.6215 29.5785 35.1433C28.9519 35.893 28.2068 36.4873 27.386 36.8918C26.5653 37.2963 25.6854 37.503 24.7971 37.5ZM15.78 22.5067L23.2034 31.3454C23.6328 31.8333 24.2036 32.1056 24.7971 32.1056C25.3907 32.1056 25.9615 31.8333 26.3909 31.3454C26.817 30.8381 27.0514 30.1671 27.0514 29.4477C27.0514 28.7284 26.817 28.0574 26.3909 27.5501L18.9698 18.7114L26.3909 9.87272C26.817 9.36543 27.0514 8.69173 27.0514 7.97508C27.0514 7.25843 26.817 6.58472 26.3909 6.07743C25.9621 5.58848 25.3914 5.31532 24.7976 5.31482C24.2038 5.31432 23.6328 5.58652 23.2034 6.07475L15.78 14.9161L8.35664 6.07743C7.92723 5.58946 7.35645 5.3172 6.76286 5.3172C6.16926 5.3172 5.59848 5.58946 5.16908 6.07743C4.74302 6.58472 4.50857 7.25843 4.50857 7.97508C4.50857 8.69173 4.74302 9.36543 5.16908 9.87272L12.5902 18.7114L5.16908 27.5501C4.74302 28.0574 4.50857 28.7284 4.50857 29.4477C4.50857 30.1671 4.74302 30.8381 5.16908 31.3454C5.59793 31.8343 6.16865 32.1075 6.7624 32.108C7.35616 32.1085 7.92721 31.8363 8.35664 31.3481L15.78 22.5067Z" fill="black"/>
<path d="M15.78 22.5067L23.2034 31.3454C23.6328 31.8333 24.2036 32.1056 24.7971 32.1056C25.3907 32.1056 25.9615 31.8333 26.3909 31.3454C26.817 30.8381 27.0514 30.1671 27.0514 29.4477C27.0514 28.7284 26.817 28.0574 26.3909 27.5501L18.9698 18.7114L26.3909 9.87272C26.817 9.36543 27.0514 8.69173 27.0514 7.97508C27.0514 7.25843 26.817 6.58472 26.3909 6.07743C25.9621 5.58848 25.3914 5.31532 24.7976 5.31482C24.2038 5.31432 23.6328 5.58652 23.2034 6.07475L15.78 14.9161L8.35664 6.07743C7.92723 5.58946 7.35645 5.3172 6.76286 5.3172C6.16926 5.3172 5.59848 5.58946 5.16908 6.07743C4.74302 6.58472 4.50857 7.25843 4.50857 7.97508C4.50857 8.69173 4.74302 9.36543 5.16908 9.87272L12.5902 18.7114L5.16908 27.5501C4.74302 28.0574 4.50857 28.7284 4.50857 29.4477C4.50857 30.1671 4.74302 30.8381 5.16908 31.3454C5.59793 31.8343 6.16865 32.1075 6.7624 32.108C7.35616 32.1085 7.92721 31.8363 8.35664 31.3481L15.78 22.5067Z" fill="#FF0000"/>
</svg>
