<svg width="45" height="45" viewBox="0 0 45 45" fill="none" xmlns="http://www.w3.org/2000/svg">
<path fill-rule="evenodd" clip-rule="evenodd" d="M38.5743 11.25H5.51074V16.875C7.08123 16.875 7.86647 16.875 8.40639 17.2917C8.54182 17.3962 8.66328 17.5177 8.7678 17.6531C9.18447 18.193 9.18447 18.9782 9.18447 20.5487V33.375C9.18447 36.2034 9.18447 37.6176 10.0632 38.4963C10.9418 39.375 12.356 39.375 15.1845 39.375H28.9006C31.729 39.375 33.1432 39.375 34.0219 38.4963C34.9006 37.6176 34.9006 36.2034 34.9006 33.375V20.5487C34.9006 18.9782 34.9006 18.193 35.3172 17.6531C35.4218 17.5177 35.5432 17.3962 35.6787 17.2917C36.2186 16.875 37.0038 16.875 38.5743 16.875V11.25ZM18.4504 20.625C18.4504 20.0727 18.0026 19.625 17.4504 19.625C16.8981 19.625 16.4504 20.0727 16.4504 20.625V30C16.4504 30.5523 16.8981 31 17.4504 31C18.0026 31 18.4504 30.5523 18.4504 30V20.625ZM27.6347 20.625C27.6347 20.0727 27.187 19.625 26.6347 19.625C26.0824 19.625 25.6347 20.0727 25.6347 20.625V30C25.6347 30.5523 26.0824 31 26.6347 31C27.187 31 27.6347 30.5523 27.6347 30V20.625Z" fill="#222222"/>
<path d="M13.5133 6.63971C13.9947 6.24103 15.0555 5.88873 16.5312 5.63746C18.0068 5.3862 19.8149 5.25 21.6749 5.25C23.535 5.25 25.343 5.38619 26.8187 5.63746C28.2944 5.88873 29.3552 6.24103 29.8366 6.63971" stroke="#222222" stroke-width="3" stroke-linecap="round"/>
</svg>
