<svg width="57" height="57" viewBox="0 0 57 57" fill="none" xmlns="http://www.w3.org/2000/svg">
<path d="M38.5448 18.2098C38.5448 23.5488 34.016 27.9489 28.3388 27.9489C22.6617 27.9489 18.1328 23.5488 18.1328 18.2098C18.1328 12.8707 22.6617 8.4707 28.3388 8.4707C34.016 8.4707 38.5448 12.8707 38.5448 18.2098Z" stroke="#33363F" stroke-width="2" stroke-linecap="round"/>
<path d="M37.876 15.3437C39.4311 14.2717 41.3485 13.8613 43.2062 14.2029C45.064 14.5446 46.7099 15.6102 47.7819 17.1653C48.854 18.7205 49.2643 20.6379 48.9227 22.4956C48.5811 24.3533 47.5155 25.9993 45.9603 27.0713C44.4051 28.1434 42.4878 28.5537 40.63 28.2121C38.7723 27.8705 37.1264 26.8049 36.0543 25.2497" stroke="#33363F" stroke-width="2"/>
<path d="M18.3042 14.9458C16.695 14.017 14.7826 13.7654 12.9878 14.2461C11.1929 14.7269 9.66266 15.9007 8.73359 17.5093C7.80451 19.118 7.55274 21.0297 8.03367 22.8239C8.51459 24.6181 9.68881 26.1479 11.298 27.0766C12.9072 28.0054 14.8196 28.257 16.6144 27.7763C18.4092 27.2955 19.9395 26.1217 20.8686 24.5131" stroke="#33363F" stroke-width="2"/>
<path d="M42.1745 45.5089L41.1942 45.7063L41.3559 46.5089H42.1745V45.5089ZM53.244 44.4008L54.218 44.1745V44.1745L53.244 44.4008ZM36.4199 36.4982L35.8151 35.7019L34.6585 36.5803L35.8918 37.3474L36.4199 36.4982ZM52.323 44.5089H42.1745V46.5089H52.323V44.5089ZM52.2699 44.6271C52.2681 44.6192 52.2664 44.6007 52.2722 44.5777C52.2776 44.5562 52.2871 44.54 52.2961 44.5294C52.3142 44.5079 52.3295 44.5089 52.323 44.5089V46.5089C53.5031 46.5089 54.5142 45.4493 54.218 44.1745L52.2699 44.6271ZM42.4988 35.5519C45.9871 35.5519 48.238 37.131 49.7263 39.0461C51.2423 40.9968 51.9614 43.299 52.2699 44.6271L54.218 44.1745C53.8799 42.7191 53.0758 40.0968 51.3055 37.8189C49.5077 35.5055 46.7094 33.5519 42.4988 33.5519V35.5519ZM37.0248 37.2945C38.3756 36.2685 40.146 35.5519 42.4988 35.5519V33.5519C39.7021 33.5519 37.5083 34.4158 35.8151 35.7019L37.0248 37.2945ZM35.8918 37.3474C39.3377 39.4905 40.679 43.1479 41.1942 45.7063L43.1548 45.3114C42.5958 42.5359 41.0833 38.2209 36.9481 35.649L35.8918 37.3474Z" fill="#33363F"/>
<path d="M19.6637 36.4982L20.1919 37.3473L21.4251 36.5803L20.2686 35.7018L19.6637 36.4982ZM2.83964 44.4008L3.8137 44.6271H3.8137L2.83964 44.4008ZM13.9091 45.5089V46.5089H14.7278L14.8894 45.7063L13.9091 45.5089ZM13.5849 35.5519C15.9377 35.5519 17.708 36.2685 19.0589 37.2945L20.2686 35.7018C18.5754 34.4158 16.3816 33.5519 13.5849 33.5519V35.5519ZM3.8137 44.6271C4.12226 43.299 4.84136 40.9968 6.35731 39.0461C7.84567 37.131 10.0966 35.5519 13.5849 35.5519V33.5519C9.37432 33.5519 6.57601 35.5054 4.77813 37.8189C3.00783 40.0968 2.20371 42.7191 1.86558 44.1745L3.8137 44.6271ZM3.76063 44.5089C3.75413 44.5089 3.76947 44.5079 3.78755 44.5294C3.79652 44.54 3.80606 44.5562 3.81144 44.5777C3.81721 44.6007 3.81554 44.6192 3.8137 44.6271L1.86558 44.1745C1.56942 45.4493 2.58053 46.5089 3.76063 46.5089V44.5089ZM13.9091 44.5089H3.76063V46.5089H13.9091V44.5089ZM14.8894 45.7063C15.4047 43.1479 16.7459 39.4905 20.1919 37.3473L19.1356 35.649C15.0003 38.2209 13.4878 42.5358 12.9288 45.3114L14.8894 45.7063Z" fill="#33363F"/>
<path d="M28.3386 34.5519C40.0651 34.5519 41.9746 44.369 42.2856 47.5661C42.339 48.1158 41.8983 48.5594 41.3461 48.5594H15.3311C14.7788 48.5594 14.3381 48.1158 14.3915 47.5661C14.7025 44.369 16.612 34.5519 28.3386 34.5519Z" stroke="#33363F" stroke-width="2" stroke-linecap="round"/>
</svg>
