<svg width="57" height="57" viewBox="0 0 57 57" fill="none" xmlns="http://www.w3.org/2000/svg">
<path d="M38.6347 18.2098C38.6347 23.5488 34.1058 27.9489 28.4287 27.9489C22.7515 27.9489 18.2227 23.5488 18.2227 18.2098C18.2227 12.8707 22.7515 8.4707 28.4287 8.4707C34.1058 8.4707 38.6347 12.8707 38.6347 18.2098Z" fill="#33363F" stroke="#33363F" stroke-width="2" stroke-linecap="round"/>
<path d="M37.682 14.932L37.5115 15.0496L37.4741 15.2533L35.6524 25.1592L35.6149 25.3629L35.7325 25.5335C36.8798 27.1978 38.6413 28.3382 40.6294 28.7039C42.6176 29.0695 44.6696 28.6303 46.3339 27.483C47.9983 26.3357 49.1387 24.5742 49.5043 22.586C49.8699 20.5979 49.4308 18.5459 48.2834 16.8816C47.1361 15.2172 45.3747 14.0768 43.3865 13.7112C41.3983 13.3456 39.3464 13.7847 37.682 14.932Z" fill="#33363F" stroke="#33363F"/>
<path d="M18.8765 14.8163L18.8228 14.6163L18.6434 14.5127C16.9194 13.5177 14.8706 13.2481 12.9477 13.7631C11.0249 14.2782 9.38537 15.5358 8.38997 17.2593C7.39456 18.9828 7.1248 21.031 7.64007 22.9533C8.15534 24.8757 9.4134 26.5146 11.1374 27.5097C12.8615 28.5047 14.9103 28.7743 16.8331 28.2593C18.756 27.7442 20.3955 26.4866 21.3909 24.7631L21.4945 24.5837L21.4409 24.3836L18.8765 14.8163Z" fill="#33363F" stroke="#33363F"/>
<path fill-rule="evenodd" clip-rule="evenodd" d="M42.2639 45.5089H52.4873C53.049 45.5089 53.4742 45.0189 53.3495 44.4712C52.7273 41.7384 50.3527 34.5519 42.5882 34.5519C40.0134 34.5519 38.0313 35.3421 36.5093 36.4982C40.2999 38.8557 41.7268 42.8419 42.2639 45.5089Z" fill="#33363F"/>
<path d="M42.2639 45.5089L41.2836 45.7063L41.4452 46.5089H42.2639V45.5089ZM53.3495 44.4712L54.3246 44.2492V44.2492L53.3495 44.4712ZM36.5093 36.4982L35.9044 35.7019L34.7479 36.5803L35.9811 37.3474L36.5093 36.4982ZM54.3246 44.2492C54.2019 43.7107 53.666 43.3735 53.1275 43.4962C52.589 43.6188 52.2519 44.1547 52.3745 44.6932L54.3246 44.2492ZM52.4873 44.5089C51.935 44.5089 51.4873 44.9566 51.4873 45.5089C51.4873 46.0611 51.935 46.5089 52.4873 46.5089V44.5089ZM52.4873 44.5089H42.2639V46.5089H52.4873V44.5089ZM52.3745 44.6932C52.3706 44.6761 52.3693 44.6492 52.3769 44.6191C52.3842 44.5905 52.3972 44.5676 52.4112 44.551C52.4393 44.5175 52.4719 44.5089 52.4873 44.5089V46.5089C53.6329 46.5089 54.6044 45.4781 54.3246 44.2492L52.3745 44.6932ZM42.5882 35.5519C46.1054 35.5519 48.3657 37.1576 49.8541 39.0958C51.37 41.0699 52.0777 43.3898 52.3745 44.6932L54.3246 44.2492C53.9991 42.8199 53.2083 40.1801 51.4403 37.8777C49.6448 35.5395 46.8355 33.5519 42.5882 33.5519V35.5519ZM37.1141 37.2945C38.465 36.2685 40.2353 35.5519 42.5882 35.5519V33.5519C39.7915 33.5519 37.5976 34.4158 35.9044 35.7019L37.1141 37.2945ZM35.9811 37.3474C39.4271 39.4905 40.7683 43.1479 41.2836 45.7063L43.2442 45.3114C42.6852 42.5359 41.1726 38.2209 37.0374 35.649L35.9811 37.3474ZM52.3745 44.6932C52.3704 44.6754 52.3693 44.6482 52.3769 44.6182C52.3841 44.5896 52.397 44.5669 52.4108 44.5507C52.4383 44.518 52.4706 44.5089 52.4873 44.5089V46.5089C53.6321 46.5089 54.6042 45.4772 54.3246 44.2492L52.3745 44.6932Z" fill="#33363F"/>
<path fill-rule="evenodd" clip-rule="evenodd" d="M19.7536 36.4982C18.2316 35.3421 16.2495 34.5519 13.6747 34.5519C5.97593 34.5519 3.57618 41.6172 2.92948 44.4008C2.79337 44.9867 3.24898 45.5089 3.85048 45.5089H13.9989C14.5361 42.8419 15.963 38.8557 19.7536 36.4982Z" fill="#33363F"/>
<path d="M19.7536 36.4982L20.2817 37.3473L21.515 36.5803L20.3584 35.7018L19.7536 36.4982ZM2.92948 44.4008L3.90354 44.6271H3.90354L2.92948 44.4008ZM13.9989 45.5089V46.5089H14.8176L14.9792 45.7063L13.9989 45.5089ZM13.6747 35.5519C16.0275 35.5519 17.7979 36.2685 19.1487 37.2945L20.3584 35.7018C18.6652 34.4158 16.4714 33.5519 13.6747 33.5519V35.5519ZM3.90354 44.6271C4.21211 43.299 4.93121 40.9968 6.44716 39.0461C7.93551 37.131 10.1865 35.5519 13.6747 35.5519V33.5519C9.46416 33.5519 6.66586 35.5054 4.86797 37.8189C3.09768 40.0968 2.29356 42.7191 1.95543 44.1745L3.90354 44.6271ZM3.85048 44.5089C3.84398 44.5089 3.85931 44.5079 3.8774 44.5294C3.88637 44.54 3.8959 44.5562 3.90129 44.5777C3.90706 44.6007 3.90538 44.6192 3.90354 44.6271L1.95543 44.1745C1.65926 45.4493 2.67037 46.5089 3.85048 46.5089V44.5089ZM13.9989 44.5089H3.85048V46.5089H13.9989V44.5089ZM14.9792 45.7063C15.4945 43.1479 16.8358 39.4905 20.2817 37.3473L19.2254 35.649C15.0902 38.2209 13.5776 42.5358 13.0186 45.3114L14.9792 45.7063Z" fill="#33363F"/>
<path d="M42.3759 47.5661C42.4294 48.1158 41.9887 48.5594 41.4364 48.5594H15.4214C14.8691 48.5594 14.4284 48.1158 14.4819 47.5661C14.7928 44.369 16.7023 34.5519 28.4289 34.5519C40.1555 34.5519 42.065 44.369 42.3759 47.5661Z" fill="#33363F" stroke="#33363F" stroke-width="2" stroke-linecap="round"/>
</svg>
