<svg width="57" height="57" viewBox="0 0 57 57" fill="none" xmlns="http://www.w3.org/2000/svg">
<path d="M9.33832 26.0487C9.33832 22.4935 9.33832 20.7159 10.0523 19.1534C10.7663 17.5909 12.1072 16.434 14.7889 14.1203L17.3903 11.876C22.2375 7.69401 24.6611 5.60303 27.5481 5.60303C30.435 5.60303 32.8586 7.69401 37.7059 11.876L40.3072 14.1203C42.989 16.434 44.3299 17.5909 45.0438 19.1534C45.7578 20.7159 45.7578 22.4935 45.7578 26.0487V37.1518C45.7578 42.0892 45.7578 44.5578 44.234 46.0917C42.7101 47.6255 40.2575 47.6255 35.3522 47.6255H19.7439C14.8387 47.6255 12.386 47.6255 10.8622 46.0917C9.33832 44.5578 9.33832 42.0892 9.33832 37.1518V26.0487Z" stroke="#33363F" stroke-width="2"/>
<path d="M34.5518 46.6916V31.8164C34.5518 31.2641 34.1041 30.8164 33.5518 30.8164H22.4782C21.9259 30.8164 21.4782 31.2641 21.4782 31.8164V46.6916" stroke="#33363F" stroke-width="2" stroke-linecap="round" stroke-linejoin="round"/>
</svg>
