<svg width="97" height="96" viewBox="0 0 97 96" fill="none" xmlns="http://www.w3.org/2000/svg">
<path d="M9.44902 95.75H6.4268V87.6973H9.44902V95.75ZM3.29868 95.75H0.25V81.6716H3.29868V95.75ZM15.6128 95.75H12.604V81.6716H15.6128V95.75ZM9.44902 75.1978H6.4268V56.8171H9.44902V75.1978Z" fill="#C0C0C0" stroke="black" stroke-width="0.5"/>
<path d="M85.3177 0.00329331C85.6702 0.0188816 86.0098 0.136951 86.2924 0.342205C86.575 0.54746 86.7873 0.830486 86.9023 1.15449C87.0173 1.47849 87.0296 1.82856 86.9373 2.15936C86.8451 2.49016 86.6525 2.7865 86.3848 3.0098C83.6365 5.42009 80.6616 7.54515 77.4997 9.38527C77.3017 9.50184 77.082 9.57954 76.8531 9.61365C76.6243 9.64776 76.3907 9.63773 76.1659 9.58419C75.941 9.53064 75.7292 9.43448 75.5425 9.30143C75.3559 9.16838 75.198 9.00098 75.078 8.80868C74.958 8.61639 74.8782 8.40296 74.8431 8.18069C74.808 7.95842 74.8185 7.73174 74.8736 7.51334C74.9287 7.29494 75.0273 7.08917 75.1643 6.90789C75.3013 6.7266 75.474 6.57323 75.672 6.45666C78.6465 4.72596 81.4393 2.71646 84.0104 0.45689C84.1853 0.299184 84.391 0.177753 84.6158 0.0997864C84.8405 0.0218195 85.0795 -0.0111039 85.3177 0.00329331ZM66.4262 10.7071L67.6272 13.9208C63.4593 15.3803 59.1291 16.359 54.726 16.8366L54.3258 13.4154C58.4616 12.9748 62.5305 12.0678 66.4262 10.7071ZM46.7745 18.858V34.2918H50.2967V18.858H46.7745ZM7.95114 73.7246C5.84445 73.7314 3.82627 74.5472 2.33661 75.9942C0.846945 77.4411 0.00703408 79.4016 0 81.4478C0.00263898 82.9717 0.46991 84.4606 1.34317 85.7265C2.21643 86.9925 3.45615 87.9788 4.9061 88.5608C6.35605 89.1428 7.95115 89.2943 9.48974 88.9964C11.0283 88.6985 12.4417 87.9643 13.551 86.8868C14.6604 85.8093 15.416 84.4367 15.7227 82.9423C16.0294 81.4478 15.8736 79.8985 15.2745 78.4901C14.6753 77.0818 13.6598 75.8776 12.3565 75.0294C11.0531 74.1812 9.52001 73.7272 7.95114 73.7246ZM7.95114 77.1456C8.53156 77.1456 9.10652 77.2571 9.64242 77.4736C10.1783 77.6901 10.6648 78.0074 11.0739 78.4073C11.4831 78.8071 11.8066 79.2816 12.0263 79.8035C12.2459 80.3253 12.3575 80.8841 12.354 81.4478C12.354 83.8322 10.3926 85.7242 7.95114 85.7242C7.37199 85.7276 6.79805 85.6193 6.2623 85.4056C5.72655 85.1919 5.2399 84.877 4.83037 84.4792C4.42084 84.0815 4.09643 83.6088 3.87643 83.0884C3.65643 82.568 3.54514 82.0103 3.54868 81.4478C3.54516 80.8841 3.65635 80.3253 3.87602 79.8035C4.0957 79.2816 4.41957 78.8071 4.82874 78.4073C5.23792 78.0074 5.72437 77.6901 6.26027 77.4736C6.79617 77.2571 7.37073 77.1456 7.95114 77.1456Z" fill="#C0C0C0"/>
<path d="M7.95114 77.1456C8.53156 77.1456 9.10652 77.2571 9.64242 77.4736C10.1783 77.6901 10.6648 78.0074 11.0739 78.4073C11.4831 78.8071 11.8066 79.2816 12.0263 79.8035C12.2459 80.3253 12.3575 80.8841 12.354 81.4478C12.354 83.8322 10.3926 85.7242 7.95114 85.7242C7.37199 85.7276 6.79805 85.6193 6.2623 85.4056C5.72655 85.1919 5.2399 84.877 4.83037 84.4792C4.42084 84.0815 4.09643 83.6088 3.87643 83.0884C3.65643 82.568 3.54514 82.0103 3.54868 81.4478C3.54516 80.8841 3.65635 80.3253 3.87602 79.8035C4.0957 79.2816 4.41957 78.8071 4.82874 78.4073C5.23792 78.0074 5.72437 77.6901 6.26027 77.4736C6.79617 77.2571 7.37073 77.1456 7.95114 77.1456Z" fill="#CBB619"/>
<path d="M85.3026 0.252871V0.252838C85.0973 0.240428 84.8913 0.268824 84.6977 0.335979C84.5043 0.403082 84.3277 0.50743 84.1778 0.642566L84.1754 0.644677C81.5922 2.91491 78.7864 4.93379 75.7981 6.67254M85.3026 0.252871L75.672 6.45666M85.3026 0.252871L85.3067 0.253049M85.3026 0.252871L85.3067 0.253049M75.7981 6.67254C75.798 6.6726 75.7979 6.67269 75.7978 6.67275L75.672 6.45666M75.7981 6.67254C75.7984 6.67239 75.7986 6.67224 75.7989 6.67209L75.672 6.45666M75.7981 6.67254C75.6282 6.77271 75.4805 6.90407 75.3638 7.0586C75.2469 7.21329 75.1629 7.38863 75.116 7.57453C75.0691 7.76038 75.0602 7.95297 75.09 8.14167L74.8431 8.18069M75.672 6.45666C75.474 6.57323 75.3013 6.7266 75.1643 6.90789C75.0273 7.08917 74.9287 7.29494 74.8736 7.51334C74.8185 7.73174 74.808 7.95842 74.8431 8.18069M74.8431 8.18069L75.09 8.14168C75.1199 8.3306 75.1877 8.51231 75.2901 8.67632L75.078 8.80868M74.8431 8.18069C74.8782 8.40296 74.958 8.61639 75.078 8.80868M75.078 8.80868L75.2901 8.67632C75.3924 8.84033 75.5275 8.98365 75.6877 9.09786C75.8479 9.21208 76.0301 9.29486 76.2238 9.34099C76.4176 9.38714 76.619 9.39579 76.8163 9.36638C77.0135 9.33699 77.2027 9.27004 77.3728 9.16984M75.078 8.80868L77.3728 9.16984M85.3067 0.253049C85.6107 0.266496 85.903 0.368354 86.1455 0.544475C86.3878 0.720474 86.5688 0.962394 86.6667 1.23813C86.7645 1.5137 86.7749 1.81111 86.6965 2.09219C86.6181 2.37338 86.4541 2.62646 86.2247 2.81783L86.2246 2.81778M85.3067 0.253049L86.2246 2.81778M86.2246 2.81778L86.22 2.82185M86.2246 2.81778L86.22 2.82185M86.22 2.82185C83.4842 5.22117 80.5224 7.33689 77.3739 9.16919L77.3728 9.16984M86.22 2.82185L77.3728 9.16984M7.95114 76.8956C8.56351 76.8956 9.17029 77.0132 9.73608 77.2418C10.3019 77.4704 10.816 77.8056 11.2487 78.2285C11.6815 78.6514 12.024 79.1537 12.2567 79.7065C12.4893 80.259 12.6076 80.851 12.604 81.4486M7.95114 76.8956L7.95114 85.9742C10.523 85.9742 12.6036 83.978 12.604 81.4486M7.95114 76.8956C7.33875 76.8956 6.73238 77.0132 6.16661 77.2418C5.6008 77.4704 5.08674 77.8056 4.65402 78.2285C4.22129 78.6513 3.87836 79.1536 3.64561 79.7065C3.41305 80.2589 3.29516 80.8506 3.29867 81.4478L7.95114 76.8956ZM12.604 81.4486C12.604 81.4488 12.604 81.4491 12.604 81.4494L12.354 81.4478H12.604C12.604 81.4481 12.604 81.4483 12.604 81.4486ZM7.95114 85.4741L7.94966 85.4742C7.40261 85.4774 6.86064 85.3751 6.35492 85.1734C5.84926 84.9717 5.39039 84.6747 5.00456 84.2999C4.6187 83.9251 4.3135 83.4802 4.1067 82.991C3.89989 82.5019 3.79535 81.9778 3.79869 81.4494L3.79867 81.4463C3.79537 80.9165 3.89984 80.3912 4.10644 79.9005C4.31304 79.4097 4.61785 78.9629 5.00347 78.5861C5.3891 78.2093 5.84794 77.9098 6.35392 77.7054C6.85995 77.5009 7.4027 77.3956 7.95114 77.3956C8.4996 77.3956 9.04276 77.5009 9.54877 77.7054C10.0548 77.9098 10.5136 78.2093 10.8992 78.5861C11.2848 78.9628 11.5892 79.4096 11.7958 79.9005C12.0025 80.3913 12.1073 80.9166 12.104 81.4463V81.4478C12.104 83.6868 10.262 85.4742 7.95114 85.4741ZM54.6034 13.6367C58.5898 13.1936 62.5127 12.3187 66.2774 11.0233L67.3035 13.7687C63.3058 15.1487 59.16 16.0854 54.9455 16.5608L54.6034 13.6367ZM50.0467 34.0418H47.0245V19.108H50.0467V34.0418ZM2.51079 76.1735C3.95316 74.7725 5.90872 73.9813 7.95154 73.9746C9.47231 73.9772 10.9578 74.4175 12.2201 75.239C13.4826 76.0606 14.465 77.2262 15.0444 78.588C15.6238 79.9498 15.7743 81.4474 15.4778 82.892C15.1813 84.3366 14.4507 85.6644 13.3768 86.7075C12.3029 87.7506 10.9337 88.4622 9.44222 88.751C7.95066 89.0398 6.40441 88.8928 4.99922 88.3288C3.59411 87.7648 2.39388 86.8094 1.54896 85.5846C0.704259 84.36 0.252683 82.9206 0.250001 81.448C0.256975 79.4704 1.06874 77.5742 2.51079 76.1735Z" stroke="black" stroke-width="0.5"/>
<path d="M11.7691 0.252338L11.7691 0.252348L11.7714 0.252225C11.9748 0.241344 12.1784 0.270463 12.3699 0.337575C12.5614 0.404692 12.7366 0.508321 12.885 0.641957L12.885 0.64197L12.8873 0.643965C15.4706 2.91428 18.2766 4.93324 21.2649 6.67203L21.2648 6.6722L21.2736 6.67684C21.4527 6.77177 21.6095 6.90064 21.7353 7.05551C21.861 7.21025 21.9528 7.38774 22.0057 7.57708C22.0586 7.76658 22.0716 7.9642 22.0438 8.15811C22.016 8.35218 21.9479 8.53911 21.8434 8.70774C21.739 8.87627 21.6 9.02319 21.4347 9.13921C21.2694 9.25523 21.0817 9.33775 20.8822 9.38162C20.6825 9.42552 20.4757 9.42979 20.2744 9.39407C20.073 9.35833 19.8812 9.28336 19.711 9.17416L19.7112 9.17395L19.7014 9.16825C16.5398 7.33606 13.5783 5.22053 10.8562 2.82153L10.8562 2.82146L10.851 2.81712C10.6216 2.62575 10.4576 2.37267 10.3792 2.09148C10.3008 1.81039 10.3112 1.51299 10.409 1.23741C10.5069 0.961684 10.6879 0.719764 10.9302 0.543763C11.1727 0.367642 11.465 0.265785 11.7691 0.252338ZM64.6661 10.2913C64.6664 6.81713 67.505 3.91684 71.0589 3.69964H71.474C75.2258 3.69964 78.2949 6.67916 78.2949 10.3046C78.2949 13.9173 75.2257 16.9096 71.4744 16.9098C69.6664 16.903 67.9359 16.2014 66.6608 14.9606C65.3859 13.7198 64.6695 12.041 64.6661 10.2913ZM71.474 6.59469H71.224V6.61582C70.8133 6.64241 70.4091 6.73446 70.0279 6.88905C69.5696 7.07491 69.1534 7.34743 68.8034 7.6912C68.4535 8.03495 68.1767 8.44321 67.9897 8.89244C67.8029 9.34122 67.7098 9.82161 67.7152 10.3059C67.7159 12.3551 69.3821 13.9627 71.474 13.9627C72.4757 13.9627 73.4376 13.5764 74.1481 12.8864C74.8588 12.1961 75.2593 11.2581 75.2593 10.2787C75.2593 9.29927 74.8588 8.36153 74.1481 7.67122C73.4377 6.98119 72.4757 6.59469 71.474 6.59469ZM42.4723 13.6361L42.1303 16.56C37.9163 16.0826 33.7654 15.1404 29.7723 13.7677L30.7984 11.0223C34.5761 12.3178 38.4921 13.1946 42.4723 13.6361Z" fill="#C0C0C0" stroke="black" stroke-width="0.5"/>
<path d="M48.802 11.7595V11.7386H48.552C47.5503 11.7386 46.5883 12.1251 45.8779 12.8151C45.1672 13.5054 44.7667 14.4432 44.7667 15.4226C44.7667 16.402 45.1672 17.34 45.8779 18.0303C46.5881 18.7201 47.5497 19.1064 48.551 19.1066C49.0458 19.1102 49.5366 19.0181 49.9947 18.8353C50.4531 18.6524 50.8698 18.3823 51.2202 18.0406C51.5707 17.6989 51.8483 17.2922 52.0357 16.8443C52.2229 16.3968 52.3162 15.9175 52.3107 15.4343C52.31 13.4697 50.7772 11.8836 48.802 11.7595ZM25.5918 3.69896H25.8418V3.69038C29.4667 3.82018 32.4127 6.75943 32.4127 10.2911C32.4127 13.9168 29.3299 16.9091 25.5918 16.9091C21.8533 16.9091 18.7705 13.9164 18.7705 10.3039C18.7705 6.6788 21.853 3.69896 25.5918 3.69896ZM41.7311 15.4485C41.7311 11.8225 44.8008 8.8305 48.552 8.8305C49.9026 8.8305 51.2225 9.2196 52.3444 9.94772C53.4662 10.6758 54.3393 11.7098 54.8546 12.9183C55.37 14.1268 55.5049 15.4561 55.2423 16.7384C54.9797 18.0207 54.3313 19.1996 53.3779 20.1257C52.4245 21.0518 51.2085 21.6833 49.8839 21.9392C48.5594 22.1951 47.1867 22.0636 45.9394 21.5618C44.6922 21.06 43.6274 20.2107 42.8787 19.1224C42.1302 18.0343 41.7311 16.7558 41.7311 15.4485ZM29.3636 10.3029C29.3631 8.24309 27.6996 6.60707 25.5918 6.60707C23.484 6.60707 21.8201 8.24307 21.8196 10.3029C21.8159 10.7865 21.9113 11.2657 22.1003 11.7127C22.2894 12.1598 22.5683 12.5655 22.9201 12.906C23.2719 13.2464 23.6896 13.5148 24.1487 13.696C24.607 13.8769 25.0977 13.9672 25.5918 13.962C26.086 13.9672 26.5763 13.8769 27.0345 13.696C27.4936 13.5148 27.9113 13.2464 28.2631 12.906C28.6149 12.5655 28.8938 12.1598 29.0829 11.7127C29.2719 11.2657 29.3673 10.7864 29.3636 10.3029Z" fill="#C0C0C0" stroke="black" stroke-width="0.5"/>
<path d="M90.6368 94.7552H87.628V86.7025H90.6368V94.7552ZM84.4999 94.7552H81.1367V80.7027H84.4999V94.7552ZM96.47 94.7552H93.7784V80.7027H96.4699L96.47 94.7552ZM90.6368 74.2029H87.628V56.25H90.6368V74.2029Z" fill="#C0C0C0" stroke="black" stroke-width="0.5"/>
<mask id="path-7-inside-1_1045_2409" fill="white">
<path fill-rule="evenodd" clip-rule="evenodd" d="M28.6622 26.6962C26.8845 28.426 25.8862 30.7703 25.8862 33.2144C25.8862 35.6585 26.8845 38.0028 28.6622 39.7326L35.0661 45.9527L26.6342 54.1554L22.4186 50.0606C21.0908 48.7685 19.3983 47.8881 17.5552 47.5308C15.7121 47.1734 13.8012 47.3551 12.0645 48.053C10.3277 48.7508 8.84294 49.9333 7.79841 51.451C6.75387 52.9687 6.19629 54.753 6.19629 56.5786C6.19629 58.4041 6.75387 60.1887 7.79841 61.7064C8.84294 63.224 10.3277 64.4065 12.0645 65.1044C13.8012 65.8022 15.7121 65.984 17.5552 65.6266C19.3983 65.2692 21.0908 64.3888 22.4186 63.0968L26.6342 59.002L35.0796 67.1916L28.6756 73.4119C26.894 75.1423 25.8932 77.4892 25.8932 79.9364C25.8932 82.3836 26.894 84.7306 28.6756 86.461C30.4572 88.1914 32.8736 89.1636 35.3931 89.1636C37.9126 89.1636 40.3286 88.1916 42.1102 86.4612L48.5541 80.2409L54.958 86.4612C56.7378 88.1933 59.1532 89.1677 61.6727 89.1701C64.1922 89.1725 66.6093 88.2028 68.3926 86.474C70.1759 84.7453 71.1795 82.3993 71.182 79.9521C71.1845 77.5048 70.1858 75.1569 68.4061 73.4247L62.0021 67.2047L70.434 59.002L74.6899 63.0968C76.0177 64.3888 77.7102 65.2692 79.5533 65.6266C81.3964 65.984 83.3073 65.8022 85.0441 65.1044C86.7808 64.4065 88.2652 63.224 89.3097 61.7064C90.3542 60.1887 90.9118 58.4041 90.9118 56.5786C90.9118 54.753 90.3542 52.9687 89.3097 51.451C88.2652 49.9333 86.7808 48.7508 85.0441 48.053C83.3073 47.3551 81.3964 47.1734 79.5533 47.5308C77.7102 47.8881 76.0177 48.7685 74.6899 50.0606L70.434 54.1554L61.989 45.9657L68.3926 39.7455C70.1742 38.015 71.1751 35.6681 71.1751 33.2209C71.1751 30.7737 70.1742 28.4266 68.3926 26.6962C66.6111 24.9657 64.195 23.9938 61.6755 23.9938C59.156 23.9938 56.7396 24.9657 54.958 26.6962L48.5541 32.9164L42.1102 26.6962C40.323 24.9711 37.9058 24.0029 35.3862 24.0029C32.8666 24.0029 30.4493 24.9711 28.6622 26.6962ZM31.1706 29.1324C31.7237 28.5913 32.3815 28.162 33.1062 27.8689C33.8309 27.5759 34.6081 27.425 35.3931 27.425C36.1781 27.425 36.9553 27.5759 37.68 27.8689C38.4047 28.162 39.0625 28.5913 39.6156 29.1324L46.0192 35.3527L37.5742 43.5295L31.1706 37.3092C30.6127 36.7751 30.1697 36.1388 29.8673 35.4369C29.5649 34.735 29.4093 33.9818 29.4093 33.2209C29.4093 32.4601 29.5649 31.7068 29.8673 31.0049C30.1697 30.3031 30.6127 29.6665 31.1706 29.1324ZM57.453 29.1324C58.0061 28.5913 58.6639 28.162 59.3886 27.8689C60.1133 27.5759 60.8905 27.425 61.6755 27.425C62.4605 27.425 63.2378 27.5759 63.9625 27.8689C64.6872 28.162 65.345 28.5913 65.898 29.1324C66.4539 29.6663 66.8949 30.3021 67.196 31.0028C67.4972 31.7034 67.6524 32.4551 67.6524 33.2144C67.6524 33.9737 67.4972 34.7254 67.196 35.426C66.8949 36.1267 66.4539 36.7625 65.898 37.2964L59.4941 43.5295L51.049 35.3655L57.453 29.1324ZM48.5541 37.7887L56.986 45.9527L48.5541 54.1554L40.0826 45.9657L48.5541 37.7887ZM37.5742 48.3889L46.0192 56.5657L37.5742 64.7684L29.1426 56.5657L37.5742 48.3889ZM59.4941 48.3889L67.9659 56.5657L59.4941 64.7684L51.049 56.5657L59.4941 48.3889ZM11.4387 52.4968C11.994 51.9549 12.6539 51.5249 13.3808 51.2315C14.1077 50.9381 14.8875 50.787 15.6746 50.787C16.4618 50.787 17.2412 50.9381 17.9681 51.2315C18.695 51.5249 19.3548 51.9549 19.9102 52.4968L24.1396 56.5657L19.9102 60.6606C18.775 61.6501 17.2935 62.1808 15.7687 62.1437C14.2439 62.1067 12.7914 61.5047 11.7086 60.4612C10.6258 59.4178 9.99467 58.0118 9.94447 56.5311C9.89427 55.0504 10.4289 53.6072 11.4387 52.4968ZM77.1581 52.4968C77.9912 51.6784 79.0561 51.1189 80.2173 50.8896C81.3786 50.6603 82.5837 50.7715 83.6797 51.209C84.7758 51.6465 85.7133 52.3905 86.373 53.3467C87.0327 54.3028 87.3847 55.4276 87.3847 56.5786C87.3847 57.7296 87.0327 58.8546 86.373 59.8107C85.7133 60.7668 84.7758 61.5109 83.6797 61.9484C82.5837 62.3859 81.3786 62.497 80.2173 62.2677C79.0561 62.0384 77.9912 61.479 77.1581 60.6606L72.9421 56.5657L77.1581 52.4968ZM48.5541 59.002L56.986 67.1916L48.5541 75.3686L40.0826 67.2047L48.5541 59.002ZM37.5742 69.6279L46.0192 77.7918L39.6156 84.0249C39.0625 84.566 38.4047 84.9954 37.68 85.2884C36.9553 85.5815 36.1781 85.7323 35.3931 85.7323C34.6081 85.7323 33.8309 85.5815 33.1062 85.2884C32.3815 84.9954 31.7237 84.566 31.1706 84.0249C30.6147 83.4911 30.1734 82.8553 29.8722 82.1546C29.571 81.4539 29.4158 80.7022 29.4158 79.943C29.4158 79.1837 29.571 78.4318 29.8722 77.7311C30.1734 77.0305 30.6147 76.3949 31.1706 75.861L37.5742 69.6279ZM59.4941 69.6279L65.898 75.8481C66.4559 76.3822 66.8989 77.0186 67.2013 77.7205C67.5037 78.4223 67.6594 79.1756 67.6594 79.9364C67.6594 80.6973 67.5037 81.4505 67.2013 82.1524C66.8989 82.8543 66.4559 83.4908 65.898 84.0249C65.3452 84.5641 64.688 84.9918 63.9645 85.2837C63.241 85.5756 62.4655 85.7258 61.6821 85.7258C60.8987 85.7258 60.1231 85.5756 59.3996 85.2837C58.6761 84.9918 58.0189 84.5641 57.4661 84.0249L51.0625 77.8047L59.4941 69.6279Z"/>
<path d="M48.5541 37.7887L56.986 45.9527L48.5541 54.1554L40.0826 45.9657L48.5541 37.7887Z"/>
<path d="M59.4941 48.3889L67.9659 56.5657L59.4941 64.7684L51.049 56.5657L59.4941 48.3889Z"/>
<path d="M37.5742 48.3889L46.0192 56.5657L37.5742 64.7684L29.1426 56.5657L37.5742 48.3889Z"/>
<path d="M48.5541 59.002L56.986 67.1916L48.5541 75.3686L40.0826 67.2047L48.5541 59.002Z"/>
<path d="M37.5742 69.6279L46.0192 77.7918L39.6156 84.0249C39.0625 84.566 38.4047 84.9954 37.68 85.2884C36.9553 85.5815 36.1781 85.7323 35.3931 85.7323C34.6081 85.7323 33.8309 85.5815 33.1062 85.2884C32.3815 84.9954 31.7237 84.566 31.1706 84.0249C30.6147 83.4911 30.1734 82.8553 29.8722 82.1546C29.571 81.4539 29.4158 80.7022 29.4158 79.943C29.4158 79.1837 29.571 78.4318 29.8722 77.7311C30.1734 77.0305 30.6147 76.3949 31.1706 75.861L37.5742 69.6279Z"/>
<path d="M59.4941 69.6279L65.898 75.8481C66.4559 76.3822 66.8989 77.0186 67.2013 77.7205C67.5037 78.4223 67.6594 79.1756 67.6594 79.9364C67.6594 80.6973 67.5037 81.4505 67.2013 82.1524C66.8989 82.8543 66.4559 83.4908 65.898 84.0249C65.3452 84.5641 64.688 84.9918 63.9645 85.2837C63.241 85.5756 62.4655 85.7258 61.6821 85.7258C60.8987 85.7258 60.1231 85.5756 59.3996 85.2837C58.6761 84.9918 58.0189 84.5641 57.4661 84.0249L51.0625 77.8047L59.4941 69.6279Z"/>
<path d="M31.1706 29.1324C31.7237 28.5913 32.3815 28.162 33.1062 27.8689C33.8309 27.5759 34.6081 27.425 35.3931 27.425C36.1781 27.425 36.9553 27.5759 37.68 27.8689C38.4047 28.162 39.0625 28.5913 39.6156 29.1324L46.0192 35.3527L37.5742 43.5295L31.1706 37.3092C30.6127 36.7751 30.1697 36.1388 29.8673 35.4369C29.5649 34.735 29.4093 33.9818 29.4093 33.2209C29.4093 32.4601 29.5649 31.7068 29.8673 31.0049C30.1697 30.3031 30.6127 29.6665 31.1706 29.1324Z"/>
<path d="M57.453 29.1324C58.0061 28.5913 58.6639 28.162 59.3886 27.8689C60.1133 27.5759 60.8905 27.425 61.6755 27.425C62.4605 27.425 63.2378 27.5759 63.9625 27.8689C64.6872 28.162 65.345 28.5913 65.898 29.1324C66.4539 29.6663 66.8949 30.3021 67.196 31.0028C67.4972 31.7034 67.6524 32.4551 67.6524 33.2144C67.6524 33.9737 67.4972 34.7254 67.196 35.426C66.8949 36.1267 66.4539 36.7625 65.898 37.2964L59.4941 43.5295L51.049 35.3655L57.453 29.1324Z"/>
<path d="M77.1581 52.4968C77.9912 51.6784 79.0561 51.1189 80.2173 50.8896C81.3786 50.6603 82.5837 50.7715 83.6797 51.209C84.7758 51.6465 85.7133 52.3905 86.373 53.3467C87.0327 54.3028 87.3847 55.4276 87.3847 56.5786C87.3847 57.7296 87.0327 58.8546 86.373 59.8107C85.7133 60.7668 84.7758 61.5109 83.6797 61.9484C82.5837 62.3859 81.3786 62.497 80.2173 62.2677C79.0561 62.0384 77.9912 61.479 77.1581 60.6606L72.9421 56.5657L77.1581 52.4968Z"/>
<path d="M11.4387 52.4968C11.994 51.9549 12.6539 51.5249 13.3808 51.2315C14.1077 50.9381 14.8875 50.787 15.6746 50.787C16.4618 50.787 17.2412 50.9381 17.9681 51.2315C18.695 51.5249 19.3548 51.9549 19.9102 52.4968L24.1396 56.5657L19.9102 60.6606C18.775 61.6501 17.2935 62.1808 15.7687 62.1437C14.2439 62.1067 12.7914 61.5047 11.7086 60.4612C10.6258 59.4178 9.99467 58.0118 9.94447 56.5311C9.89427 55.0504 10.4289 53.6072 11.4387 52.4968Z"/>
</mask>
<path fill-rule="evenodd" clip-rule="evenodd" d="M28.6622 26.6962C26.8845 28.426 25.8862 30.7703 25.8862 33.2144C25.8862 35.6585 26.8845 38.0028 28.6622 39.7326L35.0661 45.9527L26.6342 54.1554L22.4186 50.0606C21.0908 48.7685 19.3983 47.8881 17.5552 47.5308C15.7121 47.1734 13.8012 47.3551 12.0645 48.053C10.3277 48.7508 8.84294 49.9333 7.79841 51.451C6.75387 52.9687 6.19629 54.753 6.19629 56.5786C6.19629 58.4041 6.75387 60.1887 7.79841 61.7064C8.84294 63.224 10.3277 64.4065 12.0645 65.1044C13.8012 65.8022 15.7121 65.984 17.5552 65.6266C19.3983 65.2692 21.0908 64.3888 22.4186 63.0968L26.6342 59.002L35.0796 67.1916L28.6756 73.4119C26.894 75.1423 25.8932 77.4892 25.8932 79.9364C25.8932 82.3836 26.894 84.7306 28.6756 86.461C30.4572 88.1914 32.8736 89.1636 35.3931 89.1636C37.9126 89.1636 40.3286 88.1916 42.1102 86.4612L48.5541 80.2409L54.958 86.4612C56.7378 88.1933 59.1532 89.1677 61.6727 89.1701C64.1922 89.1725 66.6093 88.2028 68.3926 86.474C70.1759 84.7453 71.1795 82.3993 71.182 79.9521C71.1845 77.5048 70.1858 75.1569 68.4061 73.4247L62.0021 67.2047L70.434 59.002L74.6899 63.0968C76.0177 64.3888 77.7102 65.2692 79.5533 65.6266C81.3964 65.984 83.3073 65.8022 85.0441 65.1044C86.7808 64.4065 88.2652 63.224 89.3097 61.7064C90.3542 60.1887 90.9118 58.4041 90.9118 56.5786C90.9118 54.753 90.3542 52.9687 89.3097 51.451C88.2652 49.9333 86.7808 48.7508 85.0441 48.053C83.3073 47.3551 81.3964 47.1734 79.5533 47.5308C77.7102 47.8881 76.0177 48.7685 74.6899 50.0606L70.434 54.1554L61.989 45.9657L68.3926 39.7455C70.1742 38.015 71.1751 35.6681 71.1751 33.2209C71.1751 30.7737 70.1742 28.4266 68.3926 26.6962C66.6111 24.9657 64.195 23.9938 61.6755 23.9938C59.156 23.9938 56.7396 24.9657 54.958 26.6962L48.5541 32.9164L42.1102 26.6962C40.323 24.9711 37.9058 24.0029 35.3862 24.0029C32.8666 24.0029 30.4493 24.9711 28.6622 26.6962ZM31.1706 29.1324C31.7237 28.5913 32.3815 28.162 33.1062 27.8689C33.8309 27.5759 34.6081 27.425 35.3931 27.425C36.1781 27.425 36.9553 27.5759 37.68 27.8689C38.4047 28.162 39.0625 28.5913 39.6156 29.1324L46.0192 35.3527L37.5742 43.5295L31.1706 37.3092C30.6127 36.7751 30.1697 36.1388 29.8673 35.4369C29.5649 34.735 29.4093 33.9818 29.4093 33.2209C29.4093 32.4601 29.5649 31.7068 29.8673 31.0049C30.1697 30.3031 30.6127 29.6665 31.1706 29.1324ZM57.453 29.1324C58.0061 28.5913 58.6639 28.162 59.3886 27.8689C60.1133 27.5759 60.8905 27.425 61.6755 27.425C62.4605 27.425 63.2378 27.5759 63.9625 27.8689C64.6872 28.162 65.345 28.5913 65.898 29.1324C66.4539 29.6663 66.8949 30.3021 67.196 31.0028C67.4972 31.7034 67.6524 32.4551 67.6524 33.2144C67.6524 33.9737 67.4972 34.7254 67.196 35.426C66.8949 36.1267 66.4539 36.7625 65.898 37.2964L59.4941 43.5295L51.049 35.3655L57.453 29.1324ZM48.5541 37.7887L56.986 45.9527L48.5541 54.1554L40.0826 45.9657L48.5541 37.7887ZM37.5742 48.3889L46.0192 56.5657L37.5742 64.7684L29.1426 56.5657L37.5742 48.3889ZM59.4941 48.3889L67.9659 56.5657L59.4941 64.7684L51.049 56.5657L59.4941 48.3889ZM11.4387 52.4968C11.994 51.9549 12.6539 51.5249 13.3808 51.2315C14.1077 50.9381 14.8875 50.787 15.6746 50.787C16.4618 50.787 17.2412 50.9381 17.9681 51.2315C18.695 51.5249 19.3548 51.9549 19.9102 52.4968L24.1396 56.5657L19.9102 60.6606C18.775 61.6501 17.2935 62.1808 15.7687 62.1437C14.2439 62.1067 12.7914 61.5047 11.7086 60.4612C10.6258 59.4178 9.99467 58.0118 9.94447 56.5311C9.89427 55.0504 10.4289 53.6072 11.4387 52.4968ZM77.1581 52.4968C77.9912 51.6784 79.0561 51.1189 80.2173 50.8896C81.3786 50.6603 82.5837 50.7715 83.6797 51.209C84.7758 51.6465 85.7133 52.3905 86.373 53.3467C87.0327 54.3028 87.3847 55.4276 87.3847 56.5786C87.3847 57.7296 87.0327 58.8546 86.373 59.8107C85.7133 60.7668 84.7758 61.5109 83.6797 61.9484C82.5837 62.3859 81.3786 62.497 80.2173 62.2677C79.0561 62.0384 77.9912 61.479 77.1581 60.6606L72.9421 56.5657L77.1581 52.4968ZM48.5541 59.002L56.986 67.1916L48.5541 75.3686L40.0826 67.2047L48.5541 59.002ZM37.5742 69.6279L46.0192 77.7918L39.6156 84.0249C39.0625 84.566 38.4047 84.9954 37.68 85.2884C36.9553 85.5815 36.1781 85.7323 35.3931 85.7323C34.6081 85.7323 33.8309 85.5815 33.1062 85.2884C32.3815 84.9954 31.7237 84.566 31.1706 84.0249C30.6147 83.4911 30.1734 82.8553 29.8722 82.1546C29.571 81.4539 29.4158 80.7022 29.4158 79.943C29.4158 79.1837 29.571 78.4318 29.8722 77.7311C30.1734 77.0305 30.6147 76.3949 31.1706 75.861L37.5742 69.6279ZM59.4941 69.6279L65.898 75.8481C66.4559 76.3822 66.8989 77.0186 67.2013 77.7205C67.5037 78.4223 67.6594 79.1756 67.6594 79.9364C67.6594 80.6973 67.5037 81.4505 67.2013 82.1524C66.8989 82.8543 66.4559 83.4908 65.898 84.0249C65.3452 84.5641 64.688 84.9918 63.9645 85.2837C63.241 85.5756 62.4655 85.7258 61.6821 85.7258C60.8987 85.7258 60.1231 85.5756 59.3996 85.2837C58.6761 84.9918 58.0189 84.5641 57.4661 84.0249L51.0625 77.8047L59.4941 69.6279Z" fill="#C0C0C0"/>
<path d="M48.5541 37.7887L56.986 45.9527L48.5541 54.1554L40.0826 45.9657L48.5541 37.7887Z" fill="#CBB619"/>
<path d="M59.4941 48.3889L67.9659 56.5657L59.4941 64.7684L51.049 56.5657L59.4941 48.3889Z" fill="#CBB619"/>
<path d="M37.5742 48.3889L46.0192 56.5657L37.5742 64.7684L29.1426 56.5657L37.5742 48.3889Z" fill="#CBB619"/>
<path d="M48.5541 59.002L56.986 67.1916L48.5541 75.3686L40.0826 67.2047L48.5541 59.002Z" fill="#CBB619"/>
<path d="M37.5742 69.6279L46.0192 77.7918L39.6156 84.0249C39.0625 84.566 38.4047 84.9954 37.68 85.2884C36.9553 85.5815 36.1781 85.7323 35.3931 85.7323C34.6081 85.7323 33.8309 85.5815 33.1062 85.2884C32.3815 84.9954 31.7237 84.566 31.1706 84.0249C30.6147 83.4911 30.1734 82.8553 29.8722 82.1546C29.571 81.4539 29.4158 80.7022 29.4158 79.943C29.4158 79.1837 29.571 78.4318 29.8722 77.7311C30.1734 77.0305 30.6147 76.3949 31.1706 75.861L37.5742 69.6279Z" fill="#CBB619"/>
<path d="M59.4941 69.6279L65.898 75.8481C66.4559 76.3822 66.8989 77.0186 67.2013 77.7205C67.5037 78.4223 67.6594 79.1756 67.6594 79.9364C67.6594 80.6973 67.5037 81.4505 67.2013 82.1524C66.8989 82.8543 66.4559 83.4908 65.898 84.0249C65.3452 84.5641 64.688 84.9918 63.9645 85.2837C63.241 85.5756 62.4655 85.7258 61.6821 85.7258C60.8987 85.7258 60.1231 85.5756 59.3996 85.2837C58.6761 84.9918 58.0189 84.5641 57.4661 84.0249L51.0625 77.8047L59.4941 69.6279Z" fill="#CBB619"/>
<path d="M31.1706 29.1324C31.7237 28.5913 32.3815 28.162 33.1062 27.8689C33.8309 27.5759 34.6081 27.425 35.3931 27.425C36.1781 27.425 36.9553 27.5759 37.68 27.8689C38.4047 28.162 39.0625 28.5913 39.6156 29.1324L46.0192 35.3527L37.5742 43.5295L31.1706 37.3092C30.6127 36.7751 30.1697 36.1388 29.8673 35.4369C29.5649 34.735 29.4093 33.9818 29.4093 33.2209C29.4093 32.4601 29.5649 31.7068 29.8673 31.0049C30.1697 30.3031 30.6127 29.6665 31.1706 29.1324Z" fill="#CBB619"/>
<path d="M57.453 29.1324C58.0061 28.5913 58.6639 28.162 59.3886 27.8689C60.1133 27.5759 60.8905 27.425 61.6755 27.425C62.4605 27.425 63.2378 27.5759 63.9625 27.8689C64.6872 28.162 65.345 28.5913 65.898 29.1324C66.4539 29.6663 66.8949 30.3021 67.196 31.0028C67.4972 31.7034 67.6524 32.4551 67.6524 33.2144C67.6524 33.9737 67.4972 34.7254 67.196 35.426C66.8949 36.1267 66.4539 36.7625 65.898 37.2964L59.4941 43.5295L51.049 35.3655L57.453 29.1324Z" fill="#CBB619"/>
<path d="M77.1581 52.4968C77.9912 51.6784 79.0561 51.1189 80.2173 50.8896C81.3786 50.6603 82.5837 50.7715 83.6797 51.209C84.7758 51.6465 85.7133 52.3905 86.373 53.3467C87.0327 54.3028 87.3847 55.4276 87.3847 56.5786C87.3847 57.7296 87.0327 58.8546 86.373 59.8107C85.7133 60.7668 84.7758 61.5109 83.6797 61.9484C82.5837 62.3859 81.3786 62.497 80.2173 62.2677C79.0561 62.0384 77.9912 61.479 77.1581 60.6606L72.9421 56.5657L77.1581 52.4968Z" fill="#CBB619"/>
<path d="M11.4387 52.4968C11.994 51.9549 12.6539 51.5249 13.3808 51.2315C14.1077 50.9381 14.8875 50.787 15.6746 50.787C16.4618 50.787 17.2412 50.9381 17.9681 51.2315C18.695 51.5249 19.3548 51.9549 19.9102 52.4968L24.1396 56.5657L19.9102 60.6606C18.775 61.6501 17.2935 62.1808 15.7687 62.1437C14.2439 62.1067 12.7914 61.5047 11.7086 60.4612C10.6258 59.4178 9.99467 58.0118 9.94447 56.5311C9.89427 55.0504 10.4289 53.6072 11.4387 52.4968Z" fill="#CBB619"/>
<path fill-rule="evenodd" clip-rule="evenodd" d="M28.6622 26.6962C26.8845 28.426 25.8862 30.7703 25.8862 33.2144C25.8862 35.6585 26.8845 38.0028 28.6622 39.7326L35.0661 45.9527L26.6342 54.1554L22.4186 50.0606C21.0908 48.7685 19.3983 47.8881 17.5552 47.5308C15.7121 47.1734 13.8012 47.3551 12.0645 48.053C10.3277 48.7508 8.84294 49.9333 7.79841 51.451C6.75387 52.9687 6.19629 54.753 6.19629 56.5786C6.19629 58.4041 6.75387 60.1887 7.79841 61.7064C8.84294 63.224 10.3277 64.4065 12.0645 65.1044C13.8012 65.8022 15.7121 65.984 17.5552 65.6266C19.3983 65.2692 21.0908 64.3888 22.4186 63.0968L26.6342 59.002L35.0796 67.1916L28.6756 73.4119C26.894 75.1423 25.8932 77.4892 25.8932 79.9364C25.8932 82.3836 26.894 84.7306 28.6756 86.461C30.4572 88.1914 32.8736 89.1636 35.3931 89.1636C37.9126 89.1636 40.3286 88.1916 42.1102 86.4612L48.5541 80.2409L54.958 86.4612C56.7378 88.1933 59.1532 89.1677 61.6727 89.1701C64.1922 89.1725 66.6093 88.2028 68.3926 86.474C70.1759 84.7453 71.1795 82.3993 71.182 79.9521C71.1845 77.5048 70.1858 75.1569 68.4061 73.4247L62.0021 67.2047L70.434 59.002L74.6899 63.0968C76.0177 64.3888 77.7102 65.2692 79.5533 65.6266C81.3964 65.984 83.3073 65.8022 85.0441 65.1044C86.7808 64.4065 88.2652 63.224 89.3097 61.7064C90.3542 60.1887 90.9118 58.4041 90.9118 56.5786C90.9118 54.753 90.3542 52.9687 89.3097 51.451C88.2652 49.9333 86.7808 48.7508 85.0441 48.053C83.3073 47.3551 81.3964 47.1734 79.5533 47.5308C77.7102 47.8881 76.0177 48.7685 74.6899 50.0606L70.434 54.1554L61.989 45.9657L68.3926 39.7455C70.1742 38.015 71.1751 35.6681 71.1751 33.2209C71.1751 30.7737 70.1742 28.4266 68.3926 26.6962C66.6111 24.9657 64.195 23.9938 61.6755 23.9938C59.156 23.9938 56.7396 24.9657 54.958 26.6962L48.5541 32.9164L42.1102 26.6962C40.323 24.9711 37.9058 24.0029 35.3862 24.0029C32.8666 24.0029 30.4493 24.9711 28.6622 26.6962ZM31.1706 29.1324C31.7237 28.5913 32.3815 28.162 33.1062 27.8689C33.8309 27.5759 34.6081 27.425 35.3931 27.425C36.1781 27.425 36.9553 27.5759 37.68 27.8689C38.4047 28.162 39.0625 28.5913 39.6156 29.1324L46.0192 35.3527L37.5742 43.5295L31.1706 37.3092C30.6127 36.7751 30.1697 36.1388 29.8673 35.4369C29.5649 34.735 29.4093 33.9818 29.4093 33.2209C29.4093 32.4601 29.5649 31.7068 29.8673 31.0049C30.1697 30.3031 30.6127 29.6665 31.1706 29.1324ZM57.453 29.1324C58.0061 28.5913 58.6639 28.162 59.3886 27.8689C60.1133 27.5759 60.8905 27.425 61.6755 27.425C62.4605 27.425 63.2378 27.5759 63.9625 27.8689C64.6872 28.162 65.345 28.5913 65.898 29.1324C66.4539 29.6663 66.8949 30.3021 67.196 31.0028C67.4972 31.7034 67.6524 32.4551 67.6524 33.2144C67.6524 33.9737 67.4972 34.7254 67.196 35.426C66.8949 36.1267 66.4539 36.7625 65.898 37.2964L59.4941 43.5295L51.049 35.3655L57.453 29.1324ZM48.5541 37.7887L56.986 45.9527L48.5541 54.1554L40.0826 45.9657L48.5541 37.7887ZM37.5742 48.3889L46.0192 56.5657L37.5742 64.7684L29.1426 56.5657L37.5742 48.3889ZM59.4941 48.3889L67.9659 56.5657L59.4941 64.7684L51.049 56.5657L59.4941 48.3889ZM11.4387 52.4968C11.994 51.9549 12.6539 51.5249 13.3808 51.2315C14.1077 50.9381 14.8875 50.787 15.6746 50.787C16.4618 50.787 17.2412 50.9381 17.9681 51.2315C18.695 51.5249 19.3548 51.9549 19.9102 52.4968L24.1396 56.5657L19.9102 60.6606C18.775 61.6501 17.2935 62.1808 15.7687 62.1437C14.2439 62.1067 12.7914 61.5047 11.7086 60.4612C10.6258 59.4178 9.99467 58.0118 9.94447 56.5311C9.89427 55.0504 10.4289 53.6072 11.4387 52.4968ZM77.1581 52.4968C77.9912 51.6784 79.0561 51.1189 80.2173 50.8896C81.3786 50.6603 82.5837 50.7715 83.6797 51.209C84.7758 51.6465 85.7133 52.3905 86.373 53.3467C87.0327 54.3028 87.3847 55.4276 87.3847 56.5786C87.3847 57.7296 87.0327 58.8546 86.373 59.8107C85.7133 60.7668 84.7758 61.5109 83.6797 61.9484C82.5837 62.3859 81.3786 62.497 80.2173 62.2677C79.0561 62.0384 77.9912 61.479 77.1581 60.6606L72.9421 56.5657L77.1581 52.4968ZM48.5541 59.002L56.986 67.1916L48.5541 75.3686L40.0826 67.2047L48.5541 59.002ZM37.5742 69.6279L46.0192 77.7918L39.6156 84.0249C39.0625 84.566 38.4047 84.9954 37.68 85.2884C36.9553 85.5815 36.1781 85.7323 35.3931 85.7323C34.6081 85.7323 33.8309 85.5815 33.1062 85.2884C32.3815 84.9954 31.7237 84.566 31.1706 84.0249C30.6147 83.4911 30.1734 82.8553 29.8722 82.1546C29.571 81.4539 29.4158 80.7022 29.4158 79.943C29.4158 79.1837 29.571 78.4318 29.8722 77.7311C30.1734 77.0305 30.6147 76.3949 31.1706 75.861L37.5742 69.6279ZM59.4941 69.6279L65.898 75.8481C66.4559 76.3822 66.8989 77.0186 67.2013 77.7205C67.5037 78.4223 67.6594 79.1756 67.6594 79.9364C67.6594 80.6973 67.5037 81.4505 67.2013 82.1524C66.8989 82.8543 66.4559 83.4908 65.898 84.0249C65.3452 84.5641 64.688 84.9918 63.9645 85.2837C63.241 85.5756 62.4655 85.7258 61.6821 85.7258C60.8987 85.7258 60.1231 85.5756 59.3996 85.2837C58.6761 84.9918 58.0189 84.5641 57.4661 84.0249L51.0625 77.8047L59.4941 69.6279Z" stroke="black" mask="url(#path-7-inside-1_1045_2409)"/>
<path d="M48.5541 37.7887L56.986 45.9527L48.5541 54.1554L40.0826 45.9657L48.5541 37.7887Z" stroke="black" mask="url(#path-7-inside-1_1045_2409)"/>
<path d="M59.4941 48.3889L67.9659 56.5657L59.4941 64.7684L51.049 56.5657L59.4941 48.3889Z" stroke="black" mask="url(#path-7-inside-1_1045_2409)"/>
<path d="M37.5742 48.3889L46.0192 56.5657L37.5742 64.7684L29.1426 56.5657L37.5742 48.3889Z" stroke="black" mask="url(#path-7-inside-1_1045_2409)"/>
<path d="M48.5541 59.002L56.986 67.1916L48.5541 75.3686L40.0826 67.2047L48.5541 59.002Z" stroke="black" mask="url(#path-7-inside-1_1045_2409)"/>
<path d="M37.5742 69.6279L46.0192 77.7918L39.6156 84.0249C39.0625 84.566 38.4047 84.9954 37.68 85.2884C36.9553 85.5815 36.1781 85.7323 35.3931 85.7323C34.6081 85.7323 33.8309 85.5815 33.1062 85.2884C32.3815 84.9954 31.7237 84.566 31.1706 84.0249C30.6147 83.4911 30.1734 82.8553 29.8722 82.1546C29.571 81.4539 29.4158 80.7022 29.4158 79.943C29.4158 79.1837 29.571 78.4318 29.8722 77.7311C30.1734 77.0305 30.6147 76.3949 31.1706 75.861L37.5742 69.6279Z" stroke="black" mask="url(#path-7-inside-1_1045_2409)"/>
<path d="M59.4941 69.6279L65.898 75.8481C66.4559 76.3822 66.8989 77.0186 67.2013 77.7205C67.5037 78.4223 67.6594 79.1756 67.6594 79.9364C67.6594 80.6973 67.5037 81.4505 67.2013 82.1524C66.8989 82.8543 66.4559 83.4908 65.898 84.0249C65.3452 84.5641 64.688 84.9918 63.9645 85.2837C63.241 85.5756 62.4655 85.7258 61.6821 85.7258C60.8987 85.7258 60.1231 85.5756 59.3996 85.2837C58.6761 84.9918 58.0189 84.5641 57.4661 84.0249L51.0625 77.8047L59.4941 69.6279Z" stroke="black" mask="url(#path-7-inside-1_1045_2409)"/>
<path d="M31.1706 29.1324C31.7237 28.5913 32.3815 28.162 33.1062 27.8689C33.8309 27.5759 34.6081 27.425 35.3931 27.425C36.1781 27.425 36.9553 27.5759 37.68 27.8689C38.4047 28.162 39.0625 28.5913 39.6156 29.1324L46.0192 35.3527L37.5742 43.5295L31.1706 37.3092C30.6127 36.7751 30.1697 36.1388 29.8673 35.4369C29.5649 34.735 29.4093 33.9818 29.4093 33.2209C29.4093 32.4601 29.5649 31.7068 29.8673 31.0049C30.1697 30.3031 30.6127 29.6665 31.1706 29.1324Z" stroke="black" mask="url(#path-7-inside-1_1045_2409)"/>
<path d="M57.453 29.1324C58.0061 28.5913 58.6639 28.162 59.3886 27.8689C60.1133 27.5759 60.8905 27.425 61.6755 27.425C62.4605 27.425 63.2378 27.5759 63.9625 27.8689C64.6872 28.162 65.345 28.5913 65.898 29.1324C66.4539 29.6663 66.8949 30.3021 67.196 31.0028C67.4972 31.7034 67.6524 32.4551 67.6524 33.2144C67.6524 33.9737 67.4972 34.7254 67.196 35.426C66.8949 36.1267 66.4539 36.7625 65.898 37.2964L59.4941 43.5295L51.049 35.3655L57.453 29.1324Z" stroke="black" mask="url(#path-7-inside-1_1045_2409)"/>
<path d="M77.1581 52.4968C77.9912 51.6784 79.0561 51.1189 80.2173 50.8896C81.3786 50.6603 82.5837 50.7715 83.6797 51.209C84.7758 51.6465 85.7133 52.3905 86.373 53.3467C87.0327 54.3028 87.3847 55.4276 87.3847 56.5786C87.3847 57.7296 87.0327 58.8546 86.373 59.8107C85.7133 60.7668 84.7758 61.5109 83.6797 61.9484C82.5837 62.3859 81.3786 62.497 80.2173 62.2677C79.0561 62.0384 77.9912 61.479 77.1581 60.6606L72.9421 56.5657L77.1581 52.4968Z" stroke="black" mask="url(#path-7-inside-1_1045_2409)"/>
<path d="M11.4387 52.4968C11.994 51.9549 12.6539 51.5249 13.3808 51.2315C14.1077 50.9381 14.8875 50.787 15.6746 50.787C16.4618 50.787 17.2412 50.9381 17.9681 51.2315C18.695 51.5249 19.3548 51.9549 19.9102 52.4968L24.1396 56.5657L19.9102 60.6606C18.775 61.6501 17.2935 62.1808 15.7687 62.1437C14.2439 62.1067 12.7914 61.5047 11.7086 60.4612C10.6258 59.4178 9.99467 58.0118 9.94447 56.5311C9.89427 55.0504 10.4289 53.6072 11.4387 52.4968Z" stroke="black" mask="url(#path-7-inside-1_1045_2409)"/>
<path d="M9.26403 80.1886L9.26415 80.1887C9.4236 80.343 9.55004 80.5263 9.63628 80.7281C9.72252 80.9298 9.76689 81.146 9.76689 81.3644C9.76689 81.5827 9.72252 81.799 9.63628 82.0007C9.55004 82.2024 9.4236 82.3857 9.26415 82.5401L9.26403 82.5402C9.10513 82.6951 8.91624 82.818 8.70815 82.902C8.50006 82.9859 8.27691 83.0291 8.05151 83.0291C7.82612 83.0291 7.60297 82.9859 7.39488 82.902C7.18679 82.818 6.9979 82.6951 6.839 82.5402L6.83887 82.5401C6.67942 82.3857 6.55299 82.2024 6.46675 82.0007C6.38051 81.799 6.33613 81.5827 6.33613 81.3644C6.33613 81.146 6.38051 80.9298 6.46675 80.7281C6.55299 80.5263 6.67942 80.343 6.83887 80.1887L6.839 80.1886C6.9979 80.0337 7.18679 79.9107 7.39488 79.8268C7.60297 79.7429 7.82612 79.6997 8.05151 79.6997C8.27691 79.6997 8.50006 79.7429 8.70815 79.8268C8.91624 79.9107 9.10513 80.0337 9.26403 80.1886Z" fill="#711C0B" stroke="black" stroke-width="0.1"/>
<path d="M89.1367 73.6059C88.0677 73.5651 87.0011 73.7346 86.0013 74.1042C85.0014 74.4738 84.0888 75.0358 83.3182 75.7567C82.5476 76.4775 81.9352 77.3421 81.5174 78.2987C81.0996 79.2553 80.8849 80.2841 80.8867 81.3232C80.8885 82.3623 81.1064 83.3903 81.5276 84.3455C81.9487 85.3007 82.5647 86.1635 83.3377 86.8818C84.1108 87.6001 85.025 88.1592 86.0261 88.5256C87.0272 88.8919 88.0943 89.0579 89.1632 89.0136C91.2103 88.9287 93.1447 88.0782 94.5611 86.64C95.9775 85.2018 96.7664 83.2875 96.763 81.2973C96.7595 79.3071 95.9638 77.3952 94.5424 75.9617C93.121 74.5282 91.1842 73.6841 89.1367 73.6059ZM89.1367 77.0269C89.7171 77.0269 90.2917 77.1384 90.8276 77.3549C91.3635 77.5714 91.8499 77.8888 92.2591 78.2886C92.6683 78.6884 92.9922 79.163 93.2118 79.6848C93.4315 80.2066 93.5427 80.7654 93.5392 81.3291C93.5392 83.7135 91.5782 85.6055 89.1367 85.6055C88.5576 85.6089 87.9832 85.5006 87.4475 85.2869C86.9117 85.0732 86.4251 84.7583 86.0155 84.3606C85.606 83.9628 85.282 83.4901 85.062 82.9697C84.842 82.4493 84.7303 81.8917 84.7338 81.3291C84.7303 80.7654 84.8419 80.2066 85.0616 79.6848C85.2813 79.163 85.6047 78.6884 86.0139 78.2886C86.4231 77.8888 86.9095 77.5714 87.4454 77.3549C87.9813 77.1384 88.5563 77.0269 89.1367 77.0269Z" fill="#C0C0C0"/>
<path d="M89.1367 77.0269C89.7171 77.0269 90.2917 77.1384 90.8276 77.3549C91.3635 77.5714 91.8499 77.8888 92.2591 78.2886C92.6683 78.6884 92.9922 79.163 93.2118 79.6848C93.4315 80.2066 93.5427 80.7654 93.5392 81.3291C93.5392 83.7135 91.5782 85.6055 89.1367 85.6055C88.5576 85.6089 87.9832 85.5006 87.4475 85.2869C86.9117 85.0732 86.4251 84.7583 86.0155 84.3606C85.606 83.9628 85.282 83.4901 85.062 82.9697C84.842 82.4493 84.7303 81.8917 84.7338 81.3291C84.7303 80.7654 84.8419 80.2066 85.0616 79.6848C85.2813 79.163 85.6047 78.6884 86.0139 78.2886C86.4231 77.8888 86.9095 77.5714 87.4454 77.3549C87.9813 77.1384 88.5563 77.0269 89.1367 77.0269Z" fill="#CBB619"/>
<path d="M89.1367 76.7769C89.7491 76.7769 90.3555 76.8945 90.9212 77.1231C91.4871 77.3517 92.0011 77.687 92.4338 78.1098C92.8666 78.5327 93.2095 79.0349 93.4422 79.5878C93.6749 80.1404 93.7928 80.7325 93.7892 81.3299M89.1367 76.7769L89.1374 85.8555M89.1367 76.7769C88.5243 76.7769 87.9176 76.8945 87.3518 77.1231C86.786 77.3517 86.2719 77.687 85.8392 78.1098C85.4064 78.5327 85.0639 79.035 84.8312 79.5878C84.5987 80.1401 84.4803 80.7318 84.4838 81.3291L89.1367 76.7769ZM93.7892 81.3299C93.7892 81.3302 93.7892 81.3304 93.7892 81.3307L93.5392 81.3291H93.7892C93.7892 81.3294 93.7892 81.3296 93.7892 81.3299ZM93.7892 81.3299C93.7888 83.859 91.709 85.8551 89.1374 85.8555M89.1374 85.8555C89.1377 85.8555 89.1379 85.8555 89.1382 85.8555L89.1367 85.6055V85.8555C89.1369 85.8555 89.1372 85.8555 89.1374 85.8555ZM89.1367 85.3555L89.1352 85.3555C88.5882 85.3587 88.0458 85.2564 87.5401 85.0547C87.0344 84.853 86.5756 84.556 86.1897 84.1812C85.8039 83.8065 85.4991 83.3616 85.2923 82.8724C85.0854 82.3831 84.9805 81.859 84.9839 81.3307L84.9838 81.3276C84.9805 80.7979 85.0854 80.2727 85.292 79.7818C85.4987 79.2909 85.8031 78.8442 86.1886 78.4674C86.5743 78.0906 87.0331 77.7911 87.5391 77.5867C88.0451 77.3823 88.5883 77.2769 89.1367 77.2769C89.6852 77.2769 90.2279 77.3823 90.7339 77.5867C91.2399 77.7911 91.6988 78.0906 92.0844 78.4674C92.47 78.8442 92.7748 79.291 92.9814 79.7818C93.188 80.2725 93.2925 80.7978 93.2892 81.3276V81.3291C93.2892 83.5681 91.4475 85.3555 89.1367 85.3555ZM86.088 74.3387C87.0569 73.9805 88.0908 73.8162 89.1272 73.8557C91.1124 73.9315 92.9888 74.7499 94.3649 76.1377C95.7407 77.5253 96.5096 79.3743 96.513 81.2977C96.5163 83.2211 95.754 85.0726 94.383 86.4646C93.0118 87.8568 91.1377 88.6815 89.1528 88.7638C88.1166 88.8067 87.0822 88.6458 86.112 88.2908C85.1419 87.9358 84.2564 87.3941 83.5079 86.6987C82.7595 86.0033 82.1636 85.1684 81.7563 84.2447C81.3491 83.321 81.1385 82.3272 81.1367 81.3228C81.135 80.3184 81.3424 79.3238 81.7465 78.3988C82.1506 77.4737 82.743 76.637 83.489 75.9392C84.235 75.2414 85.119 74.6969 86.088 74.3387Z" stroke="black" stroke-width="0.5"/>
<path d="M90.4477 80.1855L90.4478 80.1856C90.6073 80.34 90.7337 80.5233 90.8199 80.725C90.9062 80.9268 90.9505 81.143 90.9505 81.3613C90.9505 81.5797 90.9062 81.7959 90.8199 81.9976C90.7337 82.1994 90.6073 82.3827 90.4478 82.537L90.4477 82.5372C90.2888 82.692 90.0999 82.815 89.8918 82.8989C89.6837 82.9828 89.4606 83.0261 89.2352 83.0261C89.0098 83.0261 88.7866 82.9828 88.5785 82.8989C88.3704 82.815 88.1815 82.692 88.0227 82.5372L88.0225 82.537C87.8631 82.3827 87.7366 82.1994 87.6504 81.9976C87.5642 81.7959 87.5198 81.5797 87.5198 81.3613C87.5198 81.143 87.5642 80.9268 87.6504 80.725C87.7366 80.5233 87.8631 80.34 88.0225 80.1856L88.0227 80.1855C88.1815 80.0306 88.3704 79.9077 88.5785 79.8238C88.7866 79.7398 89.0098 79.6966 89.2352 79.6966C89.4606 79.6966 89.6837 79.7398 89.8918 79.8238C90.0999 79.9077 90.2888 80.0306 90.4477 80.1855ZM82.6964 55.331L82.6965 55.3311C82.8559 55.4855 82.9824 55.6688 83.0686 55.8705C83.1549 56.0723 83.1992 56.2885 83.1992 56.5068C83.1992 56.7252 83.1549 56.9414 83.0686 57.1432C82.9824 57.3449 82.8559 57.5282 82.6965 57.6825L82.6964 57.6827C82.5375 57.8375 82.3486 57.9605 82.1405 58.0444C81.9324 58.1284 81.7093 58.1716 81.4838 58.1716C81.2585 58.1716 81.0353 58.1284 80.8272 58.0444C80.6191 57.9605 80.4302 57.8375 80.2713 57.6827L80.2712 57.6825C80.1118 57.5282 79.9853 57.3449 79.8991 57.1432C79.8129 56.9414 79.7685 56.7252 79.7685 56.5068C79.7685 56.2885 79.8129 56.0723 79.8991 55.8705C79.9853 55.6688 80.1118 55.4855 80.2712 55.3311L80.2713 55.331C80.4302 55.1761 80.6191 55.0532 80.8272 54.9693C81.0353 54.8853 81.2585 54.8421 81.4838 54.8421C81.7093 54.8421 81.9324 54.8853 82.1405 54.9693C82.3486 55.0532 82.5375 55.1761 82.6964 55.331ZM17.017 55.331L17.0171 55.3311C17.1765 55.4855 17.303 55.6688 17.3892 55.8705C17.4755 56.0723 17.5198 56.2885 17.5198 56.5068C17.5198 56.7252 17.4755 56.9414 17.3892 57.1432C17.303 57.3449 17.1765 57.5282 17.0171 57.6825L17.017 57.6827C16.8581 57.8375 16.6692 57.9605 16.4611 58.0444C16.253 58.1284 16.0298 58.1716 15.8044 58.1716C15.579 58.1716 15.3559 58.1284 15.1478 58.0444C14.9397 57.9605 14.7508 57.8375 14.5919 57.6827L14.5918 57.6825C14.4324 57.5282 14.3059 57.3449 14.2197 57.1432C14.1334 56.9414 14.0891 56.7252 14.0891 56.5068C14.0891 56.2885 14.1334 56.0723 14.2197 55.8705C14.3059 55.6688 14.4324 55.4855 14.5918 55.3311L14.5919 55.331C14.7508 55.1761 14.9397 55.0532 15.1478 54.9693C15.3559 54.8853 15.579 54.8421 15.8044 54.8421C16.0298 54.8421 16.253 54.8853 16.4611 54.9693C16.6692 55.0532 16.8581 55.1761 17.017 55.331ZM90.4826 82.573C90.319 82.7324 90.1246 82.859 89.9105 82.9453C89.6964 83.0316 89.4669 83.0761 89.2352 83.0761C89.0034 83.0761 88.7739 83.0316 88.5598 82.9453C88.3458 82.859 88.1514 82.7324 87.9878 82.573C87.8236 82.414 87.6933 82.2252 87.6044 82.0173C87.5155 81.8094 87.4698 81.5865 87.4698 81.3613C87.4698 81.1362 87.5155 80.9133 87.6044 80.7054C87.6933 80.4975 87.8236 80.3086 87.9878 80.1497L90.4826 82.573ZM82.7313 57.7185C82.5677 57.8779 82.3733 58.0045 82.1592 58.0908C81.9451 58.1771 81.7156 58.2216 81.4838 58.2216C81.2521 58.2216 81.0226 58.1771 80.8085 58.0908C80.5945 58.0045 80.4 57.8779 80.2364 57.7185C80.0723 57.5596 79.942 57.3707 79.8531 57.1628C79.7642 56.9549 79.7185 56.732 79.7185 56.5068C79.7185 56.2817 79.7642 56.0588 79.8531 55.8509C79.942 55.643 80.0723 55.4541 80.2364 55.2952L82.7313 57.7185Z" fill="#711C0B" stroke="black" stroke-width="0.1"/>
</svg>
