<svg width="32" height="33" viewBox="0 0 32 33" fill="none" xmlns="http://www.w3.org/2000/svg">
<path d="M9.82129 9.9247V7.65262C9.82129 5.4895 9.82129 4.40794 10.5175 3.80943C11.2138 3.21092 12.2831 3.37326 14.4217 3.69794L22.4987 4.92419C24.9316 5.29354 26.148 5.47822 26.8731 6.32165C27.5981 7.16507 27.5981 8.39545 27.5981 10.8562V22.1314C27.5981 24.5922 27.5981 25.8226 26.8731 26.666C26.148 27.5094 24.9316 27.6941 22.4987 28.0634L14.4217 29.2897C12.2831 29.6144 11.2138 29.7767 10.5175 29.1782C9.82129 28.5797 9.82129 27.4981 9.82129 25.335V23.33" stroke="#33363F" stroke-width="2"/>
<path d="M21.249 16.4938L22.048 15.8924L22.5007 16.4938L22.048 17.0952L21.249 16.4938ZM6.01174 17.4938C5.45945 17.4938 5.01174 17.0461 5.01174 16.4938C5.01174 15.9415 5.45945 15.4938 6.01174 15.4938V17.4938ZM16.9689 9.14522L22.048 15.8924L20.4501 17.0952L15.371 10.3481L16.9689 9.14522ZM22.048 17.0952L16.9689 23.8424L15.371 22.6395L20.4501 15.8924L22.048 17.0952ZM21.249 17.4938H6.01174V15.4938H21.249V17.4938Z" fill="#33363F"/>
</svg>
