<svg width="157" height="157" viewBox="0 0 157 157" fill="none" xmlns="http://www.w3.org/2000/svg">
<path d="M26.167 67.417C26.167 66.4742 26.167 66.0028 26.4599 65.7099C26.7528 65.417 27.2242 65.417 28.167 65.417H128.834C129.776 65.417 130.248 65.417 130.541 65.7099C130.834 66.0028 130.834 66.4742 130.834 67.417V127.711C130.834 129.21 130.834 129.96 130.41 130.503C129.986 131.045 129.259 131.227 127.804 131.591L88.2017 141.492C83.3755 142.698 80.9624 143.301 78.5003 143.301C76.0382 143.301 73.6251 142.698 68.7989 141.492L29.1968 131.591C27.7417 131.227 27.0142 131.045 26.5906 130.503C26.167 129.96 26.167 129.21 26.167 127.711V67.417Z" fill="#676D6F" stroke="#EDE0E0" stroke-width="3"/>
<path d="M107.937 65.4167V39.4375C107.937 34.7235 107.937 32.3664 106.473 30.902C105.009 29.4375 102.652 29.4375 97.9375 29.4375H59.0625C54.3485 29.4375 51.9914 29.4375 50.527 30.902C49.0625 32.3664 49.0625 34.7235 49.0625 39.4375V65.4167" stroke="#EDE0E0" stroke-width="7"/>
<circle cx="78.5003" cy="98.1253" r="12.0833" fill="#8F8F8F" stroke="#EDE0E0" stroke-width="2"/>
<path d="M78.5 104.667V121.021" stroke="#8F8F8F" stroke-width="4" stroke-linecap="round"/>
</svg>
