<svg width="42" height="42" viewBox="0 0 42 42" fill="none" xmlns="http://www.w3.org/2000/svg">
<path d="M7 19.5C7 18.5572 7 18.0858 7.29289 17.7929C7.58579 17.5 8.05719 17.5 9 17.5H33C33.9428 17.5 34.4142 17.5 34.7071 17.7929C35 18.0858 35 18.5572 35 19.5V31.8769C35 33.3768 35 34.1267 34.5764 34.6693C34.1528 35.2118 33.4253 35.3937 31.9701 35.7575L30.7014 36.0746C25.8752 37.2812 23.4621 37.8845 21 37.8845C18.5379 37.8845 16.1248 37.2812 11.2986 36.0746L10.0299 35.7575C8.57474 35.3937 7.84718 35.2118 7.42359 34.6693C7 34.1267 7 33.3768 7 31.8769V19.5Z" fill="#1F2425"/>
<path d="M28.875 17.5V15.75C28.875 13.0676 28.875 11.7264 28.3737 10.693C27.8836 9.68245 27.0675 8.86639 26.057 8.37626C25.0236 7.875 23.6824 7.875 21 7.875V7.875C18.3176 7.875 16.9764 7.875 15.943 8.37626C14.9325 8.86639 14.1164 9.68245 13.6263 10.693C13.125 11.7264 13.125 13.0676 13.125 15.75V17.5" stroke="#222222" stroke-width="4"/>
<circle cx="21" cy="26.25" r="3.5" fill="#8F8F8F"/>
<path d="M21 28V32.375" stroke="#8F8F8F" stroke-linecap="round"/>
</svg>
