<svg width="177" height="177" viewBox="0 0 177 177" fill="none" xmlns="http://www.w3.org/2000/svg">
<path d="M85.791 132.057C75.6965 132.057 67.4854 123.846 67.4854 113.751C67.4854 103.657 75.6965 95.4443 85.791 95.4443C95.8856 95.4443 104.098 103.657 104.098 113.751C104.098 123.846 95.8856 132.057 85.791 132.057ZM85.791 99.5914C77.9837 99.5914 71.6338 105.943 71.6338 113.75C71.6338 121.557 77.985 127.907 85.791 127.907C93.5984 127.907 99.9496 121.556 99.9496 113.75C99.9496 105.944 93.5984 99.5914 85.791 99.5914ZM85.791 121.235C81.6633 121.235 78.3059 117.878 78.3059 113.75C78.3059 109.622 81.6633 106.265 85.791 106.265C89.9187 106.265 93.2762 109.622 93.2762 113.75C93.2762 117.878 89.9187 121.235 85.791 121.235ZM85.791 110.415C83.9505 110.415 82.4543 111.912 82.4543 113.751C82.4543 115.591 83.9519 117.088 85.791 117.088C87.6302 117.088 89.1278 115.591 89.1278 113.751C89.1278 111.912 87.6315 110.415 85.791 110.415Z" fill="black"/>
<path fill-rule="evenodd" clip-rule="evenodd" d="M85.791 99.5914C77.9837 99.5914 71.6338 105.943 71.6338 113.75C71.6338 121.557 77.985 127.907 85.791 127.907C93.5984 127.907 99.9496 121.556 99.9496 113.75C99.9496 105.944 93.5984 99.5914 85.791 99.5914ZM78.3059 113.75C78.3059 117.878 81.6633 121.235 85.791 121.235C89.9187 121.235 93.2762 117.878 93.2762 113.75C93.2762 109.622 89.9187 106.265 85.791 106.265C81.6633 106.265 78.3059 109.622 78.3059 113.75Z" fill="#DA2828" fill-opacity="0.8"/>
<path d="M114.655 101.402C112.318 101.402 110.076 100.295 108.66 98.4411C103.205 91.1509 94.8751 86.979 85.7914 86.979C76.7077 86.979 68.3776 91.1509 62.9363 98.4231C61.505 100.295 59.2649 101.402 56.9279 101.402C55.2948 101.402 53.7447 100.883 52.4476 99.9C50.8574 98.7135 49.8189 96.9642 49.534 94.9854C49.2492 93.0011 49.7553 91.0264 50.9597 89.4251C59.287 78.346 71.9826 71.9934 85.7914 71.9934C99.6002 71.9934 112.296 78.3474 120.624 89.4251C121.829 91.0278 122.334 93.0025 122.049 94.9868C121.764 96.9656 120.725 98.7135 119.124 99.9096C117.838 100.882 116.288 101.402 114.655 101.402ZM85.7914 82.8305C96.1943 82.8305 105.736 87.6081 111.969 95.9382C113.031 97.3293 115.218 97.6653 116.632 96.5923C117.354 96.0516 117.816 95.2744 117.943 94.395C118.07 93.51 117.845 92.6291 117.308 91.9156C109.772 81.8902 98.2837 76.1405 85.7914 76.1405C73.2991 76.1405 61.812 81.8902 54.2757 91.917C53.7392 92.6305 53.5138 93.5114 53.641 94.395C53.7668 95.2744 54.2287 96.0516 54.9408 96.584C56.3845 97.6778 58.5431 97.3404 59.6272 95.9216C65.8471 87.6081 75.3885 82.8305 85.7914 82.8305Z" fill="black"/>
<path d="M85.7914 82.8305C96.1943 82.8305 105.736 87.6081 111.969 95.9382C113.031 97.3293 115.218 97.6653 116.632 96.5923C117.354 96.0516 117.816 95.2744 117.943 94.395C118.07 93.51 117.845 92.6291 117.308 91.9156C109.772 81.8902 98.2837 76.1405 85.7914 76.1405C73.2991 76.1405 61.812 81.8902 54.2757 91.917C53.7392 92.6305 53.5138 93.5114 53.641 94.395C53.7668 95.2744 54.2287 96.0516 54.9408 96.584C56.3845 97.6778 58.5431 97.3404 59.6272 95.9216C65.8471 87.6081 75.3885 82.8305 85.7914 82.8305Z" fill="#DA2828" fill-opacity="0.8"/>
<path d="M132.682 83.5383C130.475 83.5383 128.393 82.5704 126.967 80.8833C116.698 68.7021 101.691 61.7176 85.7912 61.7176C69.8916 61.7176 54.8839 68.7022 44.6165 80.882C43.1895 82.5704 41.107 83.5383 38.9014 83.5383C37.1424 83.5383 35.4278 82.9133 34.0712 81.778C30.9198 79.0968 30.5243 74.3675 33.1779 71.2244C46.287 55.6705 65.4652 46.75 85.7912 46.75C106.117 46.75 125.295 55.6719 138.407 71.2258C141.059 74.3675 140.663 79.0981 137.522 81.7683C136.156 82.9119 134.441 83.5383 132.682 83.5383ZM85.7912 57.5691C102.916 57.5691 119.08 65.0916 130.138 78.2076C131.286 79.5669 133.465 79.755 134.846 78.5976C136.239 77.4125 136.42 75.3009 135.236 73.9001C122.914 59.2811 104.892 50.8971 85.7912 50.8971C66.6904 50.8971 48.6682 59.281 36.3487 73.8974C35.165 75.2995 35.3448 77.4125 36.7483 78.6059C38.1035 79.7398 40.2953 79.5697 41.4458 78.2048C52.5027 65.0916 68.6664 57.5691 85.7912 57.5691Z" fill="black"/>
<path d="M85.7912 57.5691C102.916 57.5691 119.08 65.0916 130.138 78.2076C131.286 79.5669 133.465 79.755 134.846 78.5976C136.239 77.4125 136.42 75.3009 135.236 73.9001C122.914 59.2811 104.892 50.8971 85.7912 50.8971C66.6904 50.8971 48.6682 59.281 36.3487 73.8974C35.165 75.2995 35.3448 77.4125 36.7483 78.6059C38.1035 79.7398 40.2953 79.5697 41.4458 78.2048C52.5027 65.0916 68.6664 57.5691 85.7912 57.5691Z" fill="#DA2828" fill-opacity="0.8"/>
<path d="M150.72 65.7983C148.57 65.7983 146.522 64.8746 145.103 63.2636C130.069 46.2287 108.45 36.4564 85.7912 36.4564C63.1324 36.4564 41.5135 46.2274 26.4768 63.265C25.0608 64.8746 23.0129 65.7983 20.8626 65.7983C19.0318 65.7983 17.2701 65.1304 15.9025 63.9177C14.4132 62.6082 13.5213 60.7815 13.3996 58.7805C13.2779 56.7865 13.9347 54.8644 15.2484 53.3696C33.1295 33.1059 58.8402 21.4861 85.7912 21.4861C112.744 21.4861 138.454 33.1059 156.333 53.3668C159.062 56.474 158.764 61.2074 155.672 63.9232C154.312 65.1304 152.551 65.7983 150.72 65.7983ZM85.7912 32.308C109.639 32.308 132.392 42.5906 148.216 60.5187C149.387 61.849 151.605 61.9845 152.928 60.8133C154.308 59.6005 154.435 57.4931 153.22 56.1076C136.131 36.744 111.553 25.6359 85.7912 25.6359C60.0294 25.6359 35.4527 36.744 18.3611 56.1131C17.7789 56.7755 17.4858 57.6356 17.5411 58.5289C17.595 59.4194 17.9891 60.2283 18.6487 60.8091C19.9859 61.9928 22.1956 61.849 23.3655 60.5229C39.1904 42.5906 61.9432 32.308 85.7912 32.308Z" fill="black"/>
<path d="M85.7912 32.308C109.639 32.308 132.392 42.5906 148.216 60.5187C149.387 61.849 151.605 61.9845 152.928 60.8133C154.308 59.6005 154.435 57.4931 153.22 56.1076C136.131 36.744 111.553 25.6359 85.7912 25.6359C60.0294 25.6359 35.4527 36.744 18.3611 56.1131C17.7789 56.7755 17.4858 57.6356 17.5411 58.5289C17.595 59.4194 17.9891 60.2283 18.6487 60.8091C19.9859 61.9928 22.1956 61.849 23.3655 60.5229C39.1904 42.5906 61.9432 32.308 85.7912 32.308Z" fill="#DA2828" fill-opacity="0.8"/>
<path d="M156.125 155.512C154.124 155.512 152.242 154.734 150.829 153.319L138.093 140.575L125.357 153.319C123.943 154.733 122.062 155.512 120.06 155.512C118.057 155.512 116.177 154.734 114.763 153.319C113.35 151.905 112.57 150.024 112.57 148.023C112.57 146.022 113.349 144.14 114.763 142.727L127.516 129.99L114.763 117.246C113.352 115.84 112.573 113.963 112.57 111.964C112.569 109.96 113.347 108.076 114.762 106.66C116.177 105.247 118.057 104.467 120.06 104.467C122.062 104.467 123.943 105.246 125.356 106.66L138.093 119.404L150.829 106.66C152.242 105.247 154.122 104.467 156.125 104.467C158.127 104.467 160.008 105.246 161.422 106.659C162.838 108.076 163.615 109.96 163.614 111.962C163.613 113.962 162.833 115.838 161.421 117.246L148.67 129.987L161.422 142.723C164.341 145.645 164.341 150.396 161.424 153.317C160.008 154.734 158.127 155.512 156.125 155.512ZM138.093 135.568C138.643 135.568 139.171 135.787 139.56 136.175L153.763 150.386C155.023 151.649 157.227 151.645 158.488 150.386C159.789 149.084 159.789 146.964 158.488 145.661L144.269 131.46C143.879 131.071 143.66 130.543 143.66 129.991C143.66 129.441 143.879 128.913 144.267 128.524L158.488 114.313C159.117 113.685 159.464 112.851 159.464 111.961C159.464 111.066 159.119 110.227 158.487 109.595C157.227 108.336 155.021 108.332 153.762 109.595L139.559 123.806C138.78 124.584 137.401 124.584 136.624 123.806L122.421 109.595C121.162 108.335 118.958 108.335 117.696 109.595C117.064 110.227 116.717 111.066 116.719 111.961C116.72 112.851 117.066 113.685 117.694 114.31L131.916 128.524C132.304 128.913 132.523 129.441 132.523 129.991C132.523 130.542 132.304 131.07 131.914 131.46L117.695 145.663C117.066 146.292 116.717 147.131 116.717 148.024C116.717 148.918 117.064 149.757 117.695 150.388C118.956 151.647 121.16 151.647 122.421 150.388L136.624 136.177C137.014 135.787 137.543 135.568 138.093 135.568Z" fill="black"/>
<path d="M138.093 135.568C138.643 135.568 139.171 135.787 139.56 136.175L153.763 150.386C155.023 151.649 157.227 151.645 158.488 150.386C159.789 149.084 159.789 146.964 158.488 145.661L144.269 131.46C143.879 131.071 143.66 130.543 143.66 129.991C143.66 129.441 143.879 128.913 144.267 128.524L158.488 114.313C159.117 113.685 159.464 112.851 159.464 111.961C159.464 111.066 159.119 110.227 158.487 109.595C157.227 108.336 155.021 108.332 153.762 109.595L139.559 123.806C138.78 124.584 137.401 124.584 136.624 123.806L122.421 109.595C121.162 108.335 118.958 108.335 117.696 109.595C117.064 110.227 116.717 111.066 116.719 111.961C116.72 112.851 117.066 113.685 117.694 114.31L131.916 128.524C132.304 128.913 132.523 129.441 132.523 129.991C132.523 130.542 132.304 131.07 131.914 131.46L117.695 145.663C117.066 146.292 116.717 147.131 116.717 148.024C116.717 148.918 117.064 149.757 117.695 150.388C118.956 151.647 121.16 151.647 122.421 150.388L136.624 136.177C137.014 135.787 137.543 135.568 138.093 135.568Z" fill="#DA2828" fill-opacity="0.8"/>
</svg>
