<svg width="29" height="29" viewBox="0 0 29 29" fill="none" xmlns="http://www.w3.org/2000/svg">
<path d="M25.3591 0.0421143C24.808 0.191866 23.911 0.953104 23.706 1.45228C23.4625 2.0388 23.4369 3.34912 23.6419 3.68607C23.7701 3.87325 23.6932 4.16028 23.2062 5.27093C21.6044 9.01472 21.2712 9.70108 21.0662 9.63868C20.9636 9.61372 20.3357 9.35166 19.695 9.07711C18.1444 8.41571 17.6703 8.34084 16.927 8.6653C16.2222 8.9648 15.7224 9.65116 15.6071 10.4498C15.5046 11.2111 15.9659 11.9723 16.7476 12.3217C17.4012 12.6088 17.7344 12.6212 18.311 12.3841L18.7595 12.1969L18.5545 12.6587C18.4392 12.9083 18.1444 13.5946 17.9009 14.1811C17.6575 14.7677 17.4268 15.2668 17.4012 15.2918C17.3755 15.3168 17.0295 15.0422 16.6195 14.6803C16.2094 14.3184 15.6456 13.8442 15.3636 13.6445C14.8254 13.2577 13.2877 12.5339 12.7238 12.3966C12.4803 12.3342 12.3522 12.1845 12.2369 11.7851C12.0575 11.236 11.327 10.4374 10.9938 10.4374C10.635 10.4374 10.8657 9.33918 11.5833 7.56712C12.3266 5.74515 11.3783 4.54714 9.14853 4.52218C8.28995 4.5097 8.11054 4.47226 7.55951 4.09788C6.4959 3.424 5.7142 3.57375 3.93297 4.8092C3.25379 5.29589 3.24097 5.29589 2.67713 5.12118C1.48537 4.78424 0.152643 5.45812 0.0116816 6.48142C-0.10365 7.31754 0.652414 8.34084 1.511 8.51555C3.6126 8.92736 4.72747 9.53885 5.38102 10.637L5.7142 11.1861L5.31695 11.6229C4.82999 12.172 4.71466 12.5963 4.90688 13.1204C5.0991 13.6445 5.12473 13.5946 4.45837 14.0064C3.71512 14.4557 1.97232 16.5272 1.39566 17.6629C-0.0652064 20.4832 -0.167724 22.8917 1.02404 25.2877C1.89544 27.0223 3.79201 28.4325 5.76546 28.8318C6.47027 28.9691 7.34166 28.994 9.9943 28.9316L13.3389 28.8443L14.1206 28.445L14.9151 28.0456V28.4699C14.9151 28.8693 15.2099 29.1563 15.3636 28.9067C15.4021 28.8443 15.684 28.6696 16.0044 28.5198C17.1192 27.9832 20.246 24.5015 21.1046 22.8418C21.4506 22.1804 22.809 19.0356 23.2831 17.8001C23.5394 17.1512 23.9495 16.1404 24.1929 15.5663L24.6286 14.5181L24.9106 15.0672C25.3078 15.8783 25.7051 16.1154 26.6534 16.1029C27.5504 16.0905 27.9476 15.8783 28.3577 15.167C28.819 14.3933 28.6396 13.3076 27.9733 12.6961C27.6529 12.3966 25.9485 11.573 25.1412 11.3234C24.8721 11.236 24.6543 11.0988 24.6543 11.0114C24.6543 10.9365 24.8593 10.3874 25.1156 9.81339C25.3719 9.22687 25.7948 8.21604 26.0639 7.56712C26.9993 5.27093 27.0122 5.2335 27.717 4.89655C28.6524 4.43482 28.9344 3.96061 28.9856 2.825C29.0241 1.95145 29.0112 1.85161 28.614 1.29004C28.0245 0.416494 27.4094 0.054594 26.4227 0.00467682C25.9742 -0.00780106 25.5 0.00467682 25.3591 0.0421143ZM27.576 0.915665C28.1911 1.40236 28.4987 2.7626 28.4987 2.7626C28.4987 2.7626 28.1527 4.13532 27.2685 4.53466C26.6277 4.82168 26.5124 4.83416 25.9485 4.69689C24.6799 4.39738 24.0135 3.71103 24.0135 2.68772C24.0135 1.87657 24.2186 1.38988 24.7183 1.0155C25.3719 0.541286 25.6794 0.453934 26.4355 0.503851C26.9481 0.553768 27.2428 0.653601 27.576 0.915665ZM7.23915 4.52218C7.81581 4.90903 8.12336 5.48308 8.21306 6.39407C8.28995 7.09291 8.53343 7.46729 8.71283 7.16779C8.89224 6.89324 8.89224 6.65613 8.6872 5.8949C8.58469 5.49556 8.53343 5.13366 8.57187 5.09622C8.61032 5.04631 8.9435 5.02135 9.31512 5.03383C10.0199 5.04631 10.7888 5.30837 11.0579 5.62035C11.3655 5.96977 11.3655 6.71853 11.0707 7.44233C10.7247 8.29092 10.3403 9.51389 10.2762 9.93818C10.2378 10.2377 10.1865 10.2502 9.40482 10.2751C8.14899 10.3001 7.35448 10.4249 6.72656 10.6994C6.27805 10.8866 6.13709 10.9116 6.04738 10.7868C5.99613 10.6994 5.94487 10.5871 5.94487 10.5372C5.94487 10.4998 5.7142 10.1753 5.43228 9.82587C4.80436 9.05216 4.12519 8.6653 2.80528 8.31588C0.972781 7.84167 0.562712 7.54216 0.562712 6.69357C0.562712 5.82002 1.58788 5.35829 2.80528 5.69523C3.36912 5.84498 3.38194 5.84498 4.0483 5.37077C5.07347 4.64697 5.9705 4.19772 6.38057 4.19772C6.59841 4.19772 6.98285 4.34747 7.23915 4.52218ZM25.7691 5.18358L26.4355 5.34581L26.2561 5.78258C26.1536 6.03217 26.0639 6.24432 26.0639 6.26928C26.0639 6.29424 25.9485 6.36911 25.8076 6.44398C25.4616 6.63117 24.6543 6.40655 24.1417 5.99473C23.706 5.63283 23.6804 5.49556 23.9495 4.8716L24.1289 4.43482L24.6158 4.73433C24.8849 4.89655 25.4103 5.1087 25.7691 5.18358ZM23.6932 6.31919C23.8213 6.51886 24.6799 6.9182 25.2053 7.00555C25.4616 7.05547 25.6794 7.11787 25.6794 7.13035C25.6794 7.15531 25.5513 7.47977 25.4103 7.86662C25.1412 8.55298 25.1156 8.56546 24.6286 8.56546C24.0904 8.56546 23.3087 8.241 22.9627 7.85415C22.7577 7.642 22.7577 7.5796 23.0781 6.90572C23.4112 6.20688 23.5394 6.06961 23.6932 6.31919ZM24.2186 9.03968C24.7312 9.08959 24.7824 9.12703 24.7055 9.36414C24.4877 10.0755 24.0904 10.8117 23.9238 10.8117C23.8341 10.8117 23.2959 10.6121 22.7449 10.3625L21.7325 9.91323L22.0144 9.27678C22.181 8.91488 22.3476 8.52802 22.3861 8.41571C22.463 8.21604 22.527 8.241 23.0652 8.57794C23.4112 8.81505 23.8854 9.00224 24.2186 9.03968ZM18.9774 9.3267C19.5925 9.57629 20.1179 9.81339 21.1943 10.2876C21.9632 10.637 23.4241 11.2235 24.8337 11.7602C26.679 12.459 27.6785 13.0206 27.9092 13.4948C28.0245 13.7194 28.1142 14.0563 28.1142 14.2435C28.1142 14.6554 27.6657 15.3916 27.371 15.479C26.1792 15.8034 25.8332 15.6787 25.295 14.6928C25.0643 14.281 24.7696 13.8442 24.6414 13.7319C24.2826 13.4199 20.4639 11.8226 19.7463 11.6853C19.2465 11.5854 18.9902 11.6104 18.3751 11.8226C17.7215 12.0347 17.5293 12.0597 17.1577 11.9349C15.8634 11.5231 15.8634 9.67612 17.1449 9.11455C17.6062 8.91488 18.1188 8.97728 18.9774 9.3267ZM10.9426 10.9989C11.4039 11.236 11.7115 11.6478 11.7115 12.0347C11.7115 12.3092 11.673 12.3217 11.3655 12.2344C10.8144 12.0597 8.87942 12.147 7.96958 12.3716C7.52107 12.484 6.80345 12.771 6.36775 12.9956C5.50917 13.4573 5.43228 13.4324 5.43228 12.6462C5.43228 12.3716 5.56043 12.1221 5.90642 11.7851C6.16272 11.5231 6.47027 11.3109 6.5856 11.3109C6.70093 11.3109 6.84189 11.261 6.91878 11.1861C7.30322 10.8117 10.289 10.6745 10.9426 10.9989ZM20.6176 12.484C20.9765 12.6462 21.9119 13.0455 22.7064 13.37C23.5778 13.7319 24.1417 14.0314 24.1417 14.1437C24.1417 14.2435 23.911 14.8675 23.6419 15.5289C23.36 16.1903 22.8987 17.3384 22.6167 18.0747C22.3348 18.811 21.9376 19.7594 21.7325 20.1962C21.5275 20.6329 21.1815 21.4066 20.9508 21.9183C20.4254 23.1163 19.1311 24.8884 17.6831 26.3984C16.4144 27.7212 16.1325 27.9583 15.7353 28.0831C15.479 28.1579 15.4405 28.0955 15.3124 27.3717C15.2355 26.935 15.1714 25.8742 15.1714 25.0007C15.1714 23.578 15.2227 23.2536 15.6712 21.519C16.0044 20.296 16.4273 19.073 16.8758 18.1121C17.2602 17.2885 17.6831 16.2402 17.8369 15.7785C18.2085 14.6554 19.0927 12.6961 19.3618 12.4091C19.6309 12.1096 19.8488 12.1221 20.6176 12.484ZM11.7115 12.6961C13.3774 12.9582 15.1842 13.969 16.6835 15.4665L17.2346 16.0156L16.9783 16.6271C16.8501 16.964 16.4913 17.7377 16.1966 18.3617C15.9019 18.9732 15.4533 20.2461 15.197 21.1695C14.7485 22.8043 14.7357 22.9291 14.7229 25.1255C14.7101 27.7336 14.7101 27.7336 13.5824 28.1455C12.9929 28.3576 12.5188 28.395 9.58423 28.42C5.91924 28.445 5.47073 28.395 4.2277 27.7461C3.04875 27.1346 2.11329 26.2112 1.56225 25.1504C0.985595 24.0023 0.844634 23.5032 0.742117 22.2303C0.6396 21.0447 0.934337 19.8467 1.72885 18.1995C2.24143 17.1013 3.71512 15.1795 4.43274 14.6554C5.06066 14.2061 6.94441 13.2452 7.67485 12.9956C8.87942 12.6088 10.4172 12.484 11.7115 12.6961Z" fill="black"/>
<path d="M20.6176 12.484C20.9765 12.6462 21.9119 13.0455 22.7064 13.37C23.5778 13.7319 24.1417 14.0314 24.1417 14.1437C24.1417 14.2435 23.911 14.8675 23.6419 15.5289C23.36 16.1903 22.8987 17.3384 22.6167 18.0747C22.3348 18.811 21.9376 19.7594 21.7325 20.1962C21.5275 20.6329 21.1815 21.4066 20.9508 21.9183C20.4254 23.1163 19.1311 24.8884 17.6831 26.3984C16.4144 27.7212 16.1325 27.9583 15.7353 28.0831C15.479 28.1579 15.4405 28.0955 15.3124 27.3717C15.2355 26.935 15.1714 25.8742 15.1714 25.0007C15.1714 23.578 15.2227 23.2536 15.6712 21.519C16.0044 20.296 16.4273 19.073 16.8758 18.1121C17.2602 17.2885 17.6831 16.2402 17.8369 15.7785C18.2085 14.6554 19.0927 12.6961 19.3618 12.4091C19.6309 12.1096 19.8488 12.1221 20.6176 12.484Z" fill="#C0C0C0"/>
<path d="M18.9774 9.3267C19.5925 9.57629 20.1179 9.81339 21.1943 10.2876C21.9632 10.637 23.4241 11.2235 24.8337 11.7602C26.679 12.459 27.6785 13.0206 27.9092 13.4948C28.0245 13.7194 28.1142 14.0563 28.1142 14.2435C28.1142 14.6554 27.6657 15.3916 27.371 15.479C26.1792 15.8034 25.8332 15.6787 25.295 14.6928C25.0643 14.281 24.7696 13.8442 24.6414 13.7319C24.2826 13.4199 20.4639 11.8226 19.7463 11.6853C19.2465 11.5854 18.9902 11.6104 18.3751 11.8226C17.7215 12.0347 17.5293 12.0597 17.1577 11.9349C15.8634 11.5231 15.8634 9.67612 17.1449 9.11455C17.6062 8.91488 18.1188 8.97728 18.9774 9.3267Z" fill="#FFB245"/>
<path d="M24.2186 9.03968C24.7312 9.08959 24.7824 9.12703 24.7055 9.36414C24.4877 10.0755 24.0904 10.8117 23.9238 10.8117C23.8341 10.8117 23.2959 10.6121 22.7449 10.3625L21.7325 9.91323L22.0144 9.27678C22.181 8.91488 22.3476 8.52802 22.3861 8.41571C22.463 8.21604 22.527 8.241 23.0652 8.57794C23.4112 8.81505 23.8854 9.00224 24.2186 9.03968Z" fill="#5E0000"/>
<path d="M23.6932 6.31919C23.8213 6.51886 24.6799 6.9182 25.2053 7.00555C25.4616 7.05547 25.6794 7.11787 25.6794 7.13035C25.6794 7.15531 25.5513 7.47977 25.4103 7.86662C25.1412 8.55298 25.1156 8.56546 24.6286 8.56546C24.0904 8.56546 23.3087 8.241 22.9627 7.85415C22.7577 7.642 22.7577 7.5796 23.0781 6.90572C23.4112 6.20688 23.5394 6.06961 23.6932 6.31919Z" fill="#5E0000"/>
<path d="M25.7691 5.18358L26.4355 5.34581L26.2561 5.78258C26.1536 6.03217 26.0639 6.24432 26.0639 6.26928C26.0639 6.29424 25.9485 6.36911 25.8076 6.44398C25.4616 6.63117 24.6543 6.40655 24.1417 5.99473C23.706 5.63283 23.6804 5.49556 23.9495 4.8716L24.1289 4.43482L24.6158 4.73433C24.8849 4.89655 25.4103 5.1087 25.7691 5.18358Z" fill="#5E0000"/>
<path d="M27.576 0.915665C28.1911 1.40236 28.4987 2.7626 28.4987 2.7626C28.4987 2.7626 28.1527 4.13532 27.2685 4.53466C26.6277 4.82168 26.5124 4.83416 25.9485 4.69689C24.6799 4.39738 24.0135 3.71103 24.0135 2.68772C24.0135 1.87657 24.2186 1.38988 24.7183 1.0155C25.3719 0.541286 25.6794 0.453934 26.4355 0.503851C26.9481 0.553768 27.2428 0.653601 27.576 0.915665Z" fill="#C0C0C0"/>
<path d="M11.7115 12.6961C13.3774 12.9582 15.1842 13.969 16.6835 15.4665L17.2346 16.0156L16.9783 16.6271C16.8501 16.964 16.4913 17.7377 16.1966 18.3617C15.9019 18.9732 15.4533 20.2461 15.197 21.1695C14.7485 22.8043 14.7357 22.9291 14.7229 25.1255C14.7101 27.7336 14.7101 27.7336 13.5824 28.1455C12.9929 28.3576 12.5188 28.395 9.58423 28.42C5.91924 28.445 5.47073 28.395 4.2277 27.7461C3.04875 27.1346 2.11329 26.2112 1.56225 25.1504C0.985595 24.0023 0.844634 23.5032 0.742117 22.2303C0.6396 21.0447 0.934337 19.8467 1.72885 18.1995C2.24143 17.1013 3.71512 15.1795 4.43274 14.6554C5.06066 14.2061 6.94441 13.2452 7.67485 12.9956C8.87942 12.6088 10.4172 12.484 11.7115 12.6961Z" fill="#571B01"/>
<path d="M10.9426 10.9989C11.4039 11.236 11.7115 11.6478 11.7115 12.0347C11.7115 12.3092 11.673 12.3217 11.3655 12.2344C10.8144 12.0597 8.87942 12.147 7.96958 12.3716C7.52107 12.484 6.80345 12.771 6.36775 12.9956C5.50917 13.4573 5.43228 13.4324 5.43228 12.6462C5.43228 12.3716 5.56043 12.1221 5.90642 11.7851C6.16272 11.5231 6.47027 11.3109 6.5856 11.3109C6.70093 11.3109 6.84189 11.261 6.91878 11.1861C7.30322 10.8117 10.289 10.6745 10.9426 10.9989Z" fill="#571B01"/>
<path d="M7.23915 4.52218C7.81581 4.90903 8.12336 5.48308 8.21306 6.39407C8.28995 7.09291 8.53343 7.46729 8.71283 7.16779C8.89224 6.89324 8.89224 6.65613 8.6872 5.8949C8.58469 5.49556 8.53343 5.13366 8.57187 5.09622C8.61032 5.04631 8.9435 5.02135 9.31512 5.03383C10.0199 5.04631 10.7888 5.30837 11.0579 5.62035C11.3655 5.96977 11.3655 6.71853 11.0707 7.44233C10.7247 8.29092 10.3403 9.51389 10.2762 9.93818C10.2378 10.2377 10.1865 10.2502 9.40482 10.2751C8.14899 10.3001 7.35448 10.4249 6.72656 10.6994C6.27805 10.8866 6.13709 10.9116 6.04738 10.7868C5.99613 10.6994 5.94487 10.5871 5.94487 10.5372C5.94487 10.4998 5.7142 10.1753 5.43228 9.82587C4.80436 9.05216 4.12519 8.6653 2.80528 8.31588C0.972781 7.84167 0.562712 7.54216 0.562712 6.69357C0.562712 5.82002 1.58788 5.35829 2.80528 5.69523C3.36912 5.84498 3.38194 5.84498 4.0483 5.37077C5.07347 4.64697 5.9705 4.19772 6.38057 4.19772C6.59841 4.19772 6.98285 4.34747 7.23915 4.52218Z" fill="#571B01"/>
<ellipse cx="2.27169" cy="2.9526" rx="2.27169" ry="2.9526" transform="matrix(0.760954 0.648805 -0.714037 0.700108 6.0293 16.9865)" fill="#A7A4A4" fill-opacity="0.22"/>
</svg>
