<svg width="57" height="57" viewBox="0 0 57 57" fill="none" xmlns="http://www.w3.org/2000/svg">
<g clip-path="url(#clip0_1115_2146)">
<path fill-rule="evenodd" clip-rule="evenodd" d="M11.4654 14.3854L18.0246 14.3259L20.0105 18.1663C20.2512 18.7022 20.883 18.6427 21.0937 18.1961L23.0494 14.2664L34.4529 14.177L34.483 17.303C34.483 17.6305 34.7538 17.8984 35.0847 17.8984L39.7484 17.8389C40.0794 17.8389 40.3502 17.5709 40.3201 17.2434L40.29 14.1175L43.359 14.0877L43.6298 42.5785L39.598 42.6082L37.6423 38.8571C37.4316 38.4105 36.7697 38.3808 36.5591 38.8869L34.6936 42.638L20.4618 42.7868V40.2266C20.4618 39.8991 20.1609 39.6311 19.7999 39.6609L15.1963 39.6907C14.8654 39.6907 14.5946 39.9586 14.6247 40.3456V42.8166L11.7362 42.8464L11.4654 14.3854ZM14.6547 21.3816H40.4405C41.2228 21.3816 41.2228 20.1908 40.4405 20.1908H14.6547C13.8724 20.1908 13.8724 21.3816 14.6547 21.3816ZM14.6547 26.5022H40.4405C41.2228 26.5022 41.2228 25.3113 40.4405 25.3113H14.6547C13.8724 25.3113 13.8724 26.5022 14.6547 26.5022ZM14.6547 31.6228H40.4405C41.2228 31.6228 41.2228 30.4319 40.4405 30.4319H14.6547C13.8724 30.4319 13.8724 31.6228 14.6547 31.6228ZM40.4405 35.5823H14.6547C13.8724 35.5823 13.8724 36.7731 14.6547 36.7731H40.4405C41.2228 36.7731 41.2228 35.5823 40.4405 35.5823ZM20.5521 16.6183L18.9273 13.4625C18.8069 13.2244 18.5662 13.1053 18.3255 13.1351L11.4654 13.1946L11.4353 11.4381C11.4353 10.1877 10.6229 9.11599 9.47954 8.66943C9.47954 7.80607 9.53972 7.0618 8.90786 6.49615C8.57689 6.16867 8.12557 5.96028 7.64415 5.96028L5.56806 5.99005C4.57514 5.99005 3.76275 6.82363 3.79284 7.80607C3.79284 8.10378 3.76275 8.43126 3.76275 8.72897C2.64948 9.17553 1.86719 10.2771 1.86719 11.5274L2.16807 45.8532C2.19816 47.1334 3.01055 48.2051 4.12381 48.6517C4.12381 48.9494 4.1539 49.2769 4.1539 49.5746C4.1539 50.557 4.99638 51.3609 5.98929 51.3609L8.0353 51.3311C9.05831 51.3311 9.8406 50.4975 9.8406 49.5151V48.5922C10.9539 48.1456 11.7663 47.0441 11.7362 45.7937V44.0372L15.2565 44.0075C15.5875 44.0075 15.8282 43.7395 15.8282 43.412V40.8815L19.2583 40.8517L19.2883 43.3823C19.2883 43.7097 19.5591 43.9777 19.8901 43.9777L35.0246 43.8288C35.2653 43.8586 35.506 43.7395 35.6263 43.5014H35.5962L37.1307 40.4349L38.6653 43.412C38.7555 43.6502 38.9661 43.7991 39.2369 43.7991L43.6298 43.7693L43.6599 45.496C43.6599 46.7761 44.4723 47.8479 45.5856 48.2647C45.5856 48.5624 45.6157 48.8899 45.6157 49.1876C45.6157 50.1998 46.4581 51.0036 47.4511 50.9738H49.4971C50.5201 50.9441 51.3325 50.1403 51.3024 49.1578V48.2349C52.4156 47.7884 53.228 46.6868 53.228 45.4067L52.897 11.0809C52.897 9.83049 52.0847 8.72897 50.9413 8.31218C50.9714 7.44882 51.0015 6.70455 50.3997 6.10913C50.0687 5.81142 49.5873 5.60303 49.1059 5.60303L47.0599 5.6328C46.0369 5.6328 45.2245 6.43661 45.2546 7.44882C45.2546 7.74653 45.2245 8.07401 45.2245 8.37172C44.1112 8.81828 43.3289 9.89003 43.3289 11.1702L43.359 12.9267L39.6883 12.9564C39.3573 12.9564 39.0865 13.2244 39.0865 13.5816L39.1166 16.6778L35.6865 16.7076L35.6564 13.5816C35.6564 13.2244 35.3856 12.9564 34.9945 12.9862L22.6582 13.1053C22.4175 13.1053 22.1768 13.2541 22.1167 13.4923L20.5521 16.6183ZM44.8334 45.496L44.5325 11.1702C44.5325 10.1282 45.3449 9.35416 46.3378 9.32439H47.6617V47.2822H46.6988C45.6758 47.312 44.8635 46.4784 44.8334 45.496ZM48.8652 47.2822V9.29462H49.8581C50.851 9.29462 51.6935 10.0984 51.6935 11.1106L52.0245 45.4365C52.0245 46.4189 51.2121 47.2525 50.1891 47.2525L48.8652 47.2822ZM10.2318 11.4679L10.5627 45.7937C10.5627 46.7761 9.75034 47.6097 8.72733 47.6097L7.22292 47.6395V9.68164L8.39636 9.65187C9.41937 9.65187 10.2318 10.4855 10.2318 11.4679ZM6.01938 9.68164V47.6395L5.23708 47.6693C4.21408 47.6693 3.40169 46.8655 3.37161 45.8532L3.07072 11.5274C3.07072 10.5152 3.88311 9.71141 4.87602 9.68164H6.01938ZM5.35744 48.8303L8.63707 48.8006C8.66716 50.3784 8.63707 50.1403 5.98929 50.17C5.29726 50.17 5.32735 49.4853 5.35744 48.8303ZM5.59814 7.18088C8.27601 7.15111 8.27601 6.91295 8.27601 8.4908H4.99638C4.96629 7.86561 4.90611 7.18088 5.59814 7.18088ZM46.8192 48.4731L50.0988 48.4433C50.1289 50.0212 50.0988 49.783 47.4511 49.783C46.759 49.8128 46.7891 49.128 46.8192 48.4731ZM49.7378 8.10378L46.4581 8.13355C46.4281 7.47859 46.3679 6.82363 47.0599 6.82363C49.7378 6.79386 49.7679 6.5557 49.7378 8.10378Z" fill="#33363F"/>
</g>
<defs>
<clipPath id="clip0_1115_2146">
<rect width="56.03" height="56.03" fill="white"/>
</clipPath>
</defs>
</svg>
