<svg width="57" height="57" viewBox="0 0 57 57" fill="none" xmlns="http://www.w3.org/2000/svg">
<g clip-path="url(#clip0_528_589)">
<path fill-rule="evenodd" clip-rule="evenodd" d="M5.02647 48.6974V8.65554H3.79284C3.25125 8.65554 2.76984 8.89496 2.43887 9.25408C2.07781 9.6132 1.86719 10.092 1.86719 10.6307L2.19816 46.7821C2.19816 47.3208 2.40878 47.7996 2.76984 48.1587C3.1309 48.4879 3.61231 48.7273 4.1539 48.6974H5.02647ZM7.76451 49.8645L4.24417 49.8945V50.6426L4.27426 50.7025H4.24417C4.27426 50.882 4.33443 51.0317 4.45479 51.1514C4.57514 51.2711 4.72558 51.3309 4.90611 51.3609H4.9362L7.10256 51.3309C7.28309 51.3309 7.43353 51.2412 7.55389 51.1214C7.70433 51.0017 7.76451 50.8521 7.76451 50.6426V49.8645ZM7.46362 8.62562H6.23V48.6974L7.76451 48.6675H7.82468C8.36627 48.6675 8.84769 48.458 9.20875 48.0989C9.53972 47.7397 9.75034 47.2908 9.75034 46.7522V46.7222L9.44945 10.6008V10.5409C9.41937 10.0022 9.20875 9.52342 8.84769 9.19422C8.51672 8.8351 8.0353 8.62562 7.5238 8.62562H7.46362ZM5.68841 7.45848L7.37336 7.42855V6.65046C7.37336 6.4709 7.28309 6.29134 7.16274 6.17163C7.04239 6.05193 6.86186 5.99207 6.68133 5.99207H4.54505C4.33443 6.022 4.18399 6.08185 4.06364 6.20156C3.94328 6.32127 3.85302 6.50083 3.85302 6.68039L3.88311 7.45848H5.56806C5.59814 7.45848 5.59814 7.45848 5.62823 7.45848C5.65832 7.45848 5.65832 7.45848 5.68841 7.45848ZM51.2121 49.4755L49.3165 49.5054C49.2864 49.5054 49.2864 49.5054 49.2864 49.5054C49.2564 49.5054 49.2564 49.5054 49.2564 49.5054H47.7219V50.3134C47.7219 50.493 47.782 50.6426 47.9325 50.7623C48.0528 50.882 48.2033 50.9718 48.4139 50.9718L50.5502 50.9419C50.7307 50.9419 50.9112 50.882 51.0316 50.7324C51.1519 50.6127 51.2121 50.4631 51.2121 50.2536V49.4755ZM49.2864 7.06943L50.8209 7.03951V6.26141V6.23149C50.8209 6.05193 50.7307 5.90229 50.6103 5.78259C50.49 5.66288 50.3395 5.60303 50.159 5.60303H50.1289H50.0988L47.9926 5.63295C47.8121 5.63295 47.6316 5.69281 47.5112 5.81251C47.3909 5.96215 47.3307 6.11178 47.3307 6.29134V7.06943H49.2263C49.2564 7.06943 49.2564 7.06943 49.2864 7.06943ZM49.8882 8.2665V48.3083H51.2422L51.3024 48.2784C51.8139 48.2784 52.2953 48.0689 52.6563 47.7098C52.9873 47.3507 53.1979 46.9018 53.228 46.393V46.3332L52.897 10.1818C52.897 9.64312 52.6563 9.1643 52.2953 8.80518C51.9643 8.44606 51.4528 8.23657 50.9112 8.23657L49.8882 8.2665ZM45.3449 12.6956L45.6157 43.9391L45.6458 46.393C45.6458 46.9317 45.8865 47.4105 46.2475 47.7697C46.5785 48.1288 47.09 48.3383 47.6316 48.3383L48.6847 48.3083V8.2665H47.3006H47.2404C46.7289 8.29642 46.2475 8.50591 45.8865 8.86503C45.5555 9.19422 45.3449 9.67305 45.3148 10.1818V10.2417L45.3449 12.6956ZM14.053 19.7583H41.0422C41.3732 19.7583 41.644 20.0277 41.644 20.3569C41.644 20.6861 41.3732 20.9554 41.0422 20.9554H14.053C13.722 20.9554 13.4512 20.6861 13.4512 20.3569C13.4512 20.0277 13.722 19.7583 14.053 19.7583ZM13.4512 25.7736C13.4512 25.4444 13.722 25.175 14.053 25.175H41.0422C41.3732 25.175 41.644 25.4444 41.644 25.7736C41.644 26.1028 41.3732 26.3721 41.0422 26.3721H14.053C13.722 26.3721 13.4512 26.1028 13.4512 25.7736ZM10.653 13.5934L10.9238 43.6398H14.053L14.0229 40.9165C14.0229 40.5873 14.2937 40.3179 14.6247 40.3179L19.4689 40.288C19.7999 40.2581 20.0706 40.5274 20.0706 40.8566L20.1007 43.5799L35.0546 43.4303L37.0405 39.4201C37.0706 39.3004 37.1909 39.2106 37.3113 39.1508C37.5821 39.0012 37.9431 39.1209 38.0936 39.4201L40.1396 43.4004L44.4121 43.3704L44.1413 13.2942L40.8918 13.3241L40.9219 16.646C40.9219 16.9752 40.6511 17.2445 40.3201 17.2445L35.4458 17.3043C35.1148 17.3043 34.844 17.035 34.844 16.7058L34.8139 13.384L22.8087 13.5037L20.7627 17.6335C20.6122 17.9328 20.2512 18.0525 19.9503 17.9328C19.8299 17.8729 19.7397 17.7532 19.6795 17.6635L17.5733 13.5336L10.653 13.5934ZM41.0422 30.5918C41.3732 30.5918 41.644 30.8611 41.644 31.1903C41.644 31.5195 41.3732 31.7888 41.0422 31.7888H14.053C13.722 31.7888 13.4512 31.5195 13.4512 31.1903C13.4512 30.8611 13.722 30.5918 14.053 30.5918H41.0422ZM41.0422 35.9786C41.3732 35.9786 41.644 36.2479 41.644 36.5771C41.644 36.9063 41.3732 37.1756 41.0422 37.1756H14.053C13.722 37.1756 13.4512 36.9063 13.4512 36.5771C13.4512 36.2479 13.722 35.9786 14.053 35.9786H41.0422Z" fill="black"/>
</g>
<defs>
<clipPath id="clip0_528_589">
<rect width="56.03" height="56.03" rx="20" fill="white"/>
</clipPath>
</defs>
</svg>
