<svg width="67" height="67" viewBox="0 0 67 67" fill="none" xmlns="http://www.w3.org/2000/svg">
<g filter="url(#filter0_b_513_1922)">
<g clip-path="url(#clip0_513_1922)">
<rect width="67" height="67" rx="12.1973" fill="url(#paint0_linear_513_1922)" fill-opacity="0.9"/>
<g filter="url(#filter1_b_513_1922)">
<rect x="54.0625" y="9.74121" width="3.69655" height="3.69655" fill="url(#paint1_linear_513_1922)" fill-opacity="0.7"/>
</g>
<g filter="url(#filter2_b_513_1922)">
<rect x="57.7598" y="13.4377" width="3.69655" height="3.69655" fill="url(#paint2_linear_513_1922)" fill-opacity="0.7"/>
</g>
<g filter="url(#filter3_b_513_1922)">
<rect x="50.3662" y="13.4377" width="3.69655" height="3.69655" fill="url(#paint3_linear_513_1922)" fill-opacity="0.7"/>
</g>
<g filter="url(#filter4_b_513_1922)">
<rect x="54.0625" y="17.1343" width="3.69655" height="3.69655" fill="url(#paint4_linear_513_1922)" fill-opacity="0.7"/>
</g>
<g filter="url(#filter5_b_513_1922)">
<rect x="54.0625" y="9.74121" width="3.69655" height="3.69655" fill="url(#paint5_linear_513_1922)" fill-opacity="0.7"/>
</g>
<g filter="url(#filter6_b_513_1922)">
<rect x="57.7598" y="13.4377" width="3.69655" height="3.69655" fill="url(#paint6_linear_513_1922)" fill-opacity="0.7"/>
</g>
<g filter="url(#filter7_b_513_1922)">
<rect x="50.3662" y="13.4377" width="3.69655" height="3.69655" fill="url(#paint7_linear_513_1922)" fill-opacity="0.7"/>
</g>
<g filter="url(#filter8_b_513_1922)">
<rect x="54.0625" y="17.1343" width="3.69655" height="3.69655" fill="url(#paint8_linear_513_1922)" fill-opacity="0.7"/>
</g>
<g filter="url(#filter9_b_513_1922)">
<rect x="10.166" y="18.9827" width="3.69655" height="3.69655" fill="url(#paint9_linear_513_1922)" fill-opacity="0.7"/>
</g>
<g filter="url(#filter10_b_513_1922)">
<rect x="13.8623" y="22.6792" width="3.69655" height="3.69655" fill="url(#paint10_linear_513_1922)" fill-opacity="0.7"/>
</g>
<g filter="url(#filter11_b_513_1922)">
<rect x="6.46875" y="22.6792" width="3.69655" height="3.69655" fill="url(#paint11_linear_513_1922)" fill-opacity="0.7"/>
</g>
<g filter="url(#filter12_b_513_1922)">
<rect x="10.166" y="26.3757" width="3.69655" height="3.69655" fill="url(#paint12_linear_513_1922)" fill-opacity="0.7"/>
</g>
<g filter="url(#filter13_b_513_1922)">
<rect x="10.166" y="18.9827" width="3.69655" height="3.69655" fill="url(#paint13_linear_513_1922)" fill-opacity="0.7"/>
</g>
<g filter="url(#filter14_b_513_1922)">
<rect x="13.8623" y="22.6792" width="3.69655" height="3.69655" fill="url(#paint14_linear_513_1922)" fill-opacity="0.7"/>
</g>
<g filter="url(#filter15_b_513_1922)">
<rect x="6.46875" y="22.6792" width="3.69655" height="3.69655" fill="url(#paint15_linear_513_1922)" fill-opacity="0.7"/>
</g>
<g filter="url(#filter16_b_513_1922)">
<rect x="10.166" y="26.3757" width="3.69655" height="3.69655" fill="url(#paint16_linear_513_1922)" fill-opacity="0.7"/>
</g>
<g filter="url(#filter17_b_513_1922)">
<rect x="22.4238" y="2.34839" width="3.69655" height="3.69655" fill="url(#paint17_linear_513_1922)" fill-opacity="0.7"/>
</g>
<g filter="url(#filter18_b_513_1922)">
<rect x="26.1201" y="6.04492" width="3.69655" height="3.69655" fill="url(#paint18_linear_513_1922)" fill-opacity="0.7"/>
</g>
<g filter="url(#filter19_b_513_1922)">
<rect x="18.7266" y="6.04492" width="3.69655" height="3.69655" fill="url(#paint19_linear_513_1922)" fill-opacity="0.7"/>
</g>
<g filter="url(#filter20_b_513_1922)">
<rect x="22.4238" y="9.74146" width="3.69655" height="3.69655" fill="url(#paint20_linear_513_1922)" fill-opacity="0.7"/>
</g>
<g filter="url(#filter21_b_513_1922)">
<rect x="22.4238" y="2.34839" width="3.69655" height="3.69655" fill="url(#paint21_linear_513_1922)" fill-opacity="0.7"/>
</g>
<g filter="url(#filter22_b_513_1922)">
<rect x="26.1201" y="6.04492" width="3.69655" height="3.69655" fill="url(#paint22_linear_513_1922)" fill-opacity="0.7"/>
</g>
<g filter="url(#filter23_b_513_1922)">
<rect x="18.7266" y="6.04492" width="3.69655" height="3.69655" fill="url(#paint23_linear_513_1922)" fill-opacity="0.7"/>
</g>
<g filter="url(#filter24_b_513_1922)">
<rect x="22.4238" y="9.74146" width="3.69655" height="3.69655" fill="url(#paint24_linear_513_1922)" fill-opacity="0.7"/>
</g>
<g filter="url(#filter25_bd_513_1922)">
<path d="M31.2444 36.5168C28.6272 34.9234 22.6768 26.1226 29.4991 18.916C29.8694 20.3228 30.2092 23.0055 31.6137 22.7032C33.0182 22.4009 28.1309 13.9926 36.0354 9.74121C36.5397 16.5901 51.4963 21.9939 39.9965 36.558C40.5888 31.2143 36.6405 28.2789 35.1938 25.6894C33.5595 28.4327 30.4707 31.3504 31.2446 36.5168H31.2444Z" fill="url(#paint25_linear_513_1922)" fill-opacity="0.7" shape-rendering="crispEdges"/>
<path d="M32.2593 13.5428C32.9201 12.1819 34.0657 10.8844 35.9852 9.83419C36.1409 11.5324 37.1672 13.1396 38.4383 14.8077C38.7824 15.2592 39.1446 15.7154 39.513 16.1795C40.5329 17.4641 41.6008 18.8092 42.4677 20.2857C43.6462 22.2929 44.4483 24.536 44.2424 27.1823C44.0394 29.7912 42.8561 32.7993 40.0739 36.3658C40.31 33.7725 39.4797 31.7496 38.4086 30.06C37.8773 29.222 37.2864 28.4653 36.7375 27.7624C36.7194 27.7392 36.7014 27.7161 36.6834 27.6931C36.1184 26.9694 35.6033 26.304 35.2442 25.6613L35.1954 25.5739L35.1442 25.6599C34.8242 26.1969 34.4467 26.7424 34.0527 27.3117C32.4614 29.6111 30.6003 32.3003 31.1695 36.4008C30.5382 35.9841 29.7287 35.1712 28.9554 34.0746C28.1393 32.9174 27.3664 31.4484 26.8874 29.8052C25.9368 26.5439 26.1437 22.5976 29.4694 19.032C29.5172 19.222 29.5653 19.4331 29.616 19.6555C29.7499 20.2433 29.9017 20.9098 30.1146 21.471C30.269 21.878 30.4583 22.2383 30.7024 22.478C30.9493 22.7205 31.253 22.8399 31.6259 22.7596C31.7315 22.7369 31.8081 22.6748 31.8587 22.5822C31.9079 22.4921 31.9321 22.3744 31.9404 22.2373C31.9571 21.963 31.9111 21.5872 31.8427 21.1394C31.8198 20.9901 31.7944 20.8322 31.7678 20.6667C31.6339 19.8355 31.469 18.8117 31.4448 17.7018C31.4158 16.3718 31.5892 14.9227 32.2593 13.5428Z" stroke="#DFFFFC" stroke-opacity="0.5" stroke-width="0.115517" shape-rendering="crispEdges"/>
</g>
<g filter="url(#filter26_b_513_1922)">
<path d="M32.6556 37.2224C30.0384 35.629 24.0879 26.8281 30.9103 19.6216C31.2805 21.0284 31.6204 23.7111 33.0249 23.4087C34.4294 23.1064 29.542 14.6981 37.4466 10.4468C37.9508 17.2957 52.9074 22.6995 41.4076 37.2636C41.9999 31.9199 38.0516 28.9845 36.6049 26.395C34.9706 29.1383 31.8818 32.0559 32.6557 37.2224H32.6556Z" fill="url(#paint26_linear_513_1922)" fill-opacity="0.3"/>
<path d="M33.6704 14.2483C34.3312 12.8875 35.4768 11.59 37.3963 10.5398C37.552 12.238 38.5783 13.8452 39.8494 15.5132C40.1936 15.9648 40.5557 16.421 40.9242 16.8851C41.944 18.1696 43.012 19.5148 43.8788 20.9912C45.0573 22.9984 45.8594 25.2415 45.6535 27.8879C45.4505 30.4967 44.2673 33.5048 41.4851 37.0713C41.7211 34.478 40.8908 32.4551 39.8197 30.7655C39.2885 29.9276 38.6975 29.1708 38.1486 28.4679C38.1305 28.4448 38.1125 28.4217 38.0945 28.3986C37.5295 27.675 37.0145 27.0096 36.6554 26.3668L36.6065 26.2794L36.5553 26.3654C36.2354 26.9025 35.8579 27.4479 35.4638 28.0173C33.8725 30.3167 32.0114 33.0059 32.5806 37.1064C31.9493 36.6897 31.1398 35.8767 30.3665 34.7802C29.5504 33.6229 28.7775 32.154 28.2985 30.5108C27.3479 27.2495 27.5548 23.3032 30.8805 19.7376C30.9284 19.9275 30.9765 20.1387 31.0271 20.3611C31.161 20.9489 31.3128 21.6154 31.5257 22.1766C31.6801 22.5836 31.8694 22.9438 32.1135 23.1836C32.3604 23.426 32.6641 23.5455 33.037 23.4652C33.1426 23.4425 33.2192 23.3804 33.2698 23.2877C33.319 23.1977 33.3432 23.08 33.3516 22.9428C33.3682 22.6686 33.3223 22.2927 33.2538 21.845C33.231 21.6956 33.2055 21.5378 33.1789 21.3723C33.045 20.541 32.8801 19.5172 32.856 18.4074C32.827 17.0774 33.0004 15.6283 33.6704 14.2483Z" stroke="#DFFFFC" stroke-opacity="0.5" stroke-width="0.115517"/>
</g>
<g filter="url(#filter27_d_513_1922)">
<g filter="url(#filter28_b_513_1922)">
<path d="M41.1088 37.5227C41.2496 37.6167 41.3276 37.7802 41.3122 37.9488L38.8509 64.9567C38.8064 65.4444 38.1333 65.537 37.9589 65.0793L37.6731 64.3293C37.6516 64.2731 37.6414 64.2133 37.6429 64.1532L38.336 36.5226C38.3451 36.1587 38.752 35.9477 39.0546 36.15L41.1088 37.5227Z" fill="url(#paint27_linear_513_1922)" fill-opacity="0.4"/>
<path d="M37.733 64.3065L37.6731 64.3293L37.733 64.3065L38.0189 65.0565C38.1691 65.4505 38.7487 65.3709 38.7869 64.9509L41.2483 37.943C41.2616 37.7978 41.1944 37.657 41.0732 37.576L39.019 36.2034C38.7583 36.0292 38.408 36.2108 38.4002 36.5242L37.7071 64.1548C37.7058 64.2066 37.7146 64.2581 37.733 64.3065Z" stroke="#DFFFFC" stroke-opacity="0.5" stroke-width="0.128352"/>
</g>
<g filter="url(#filter29_b_513_1922)">
<path d="M38.7688 36.0581C39.0339 36.0581 39.2447 36.2807 39.2302 36.5454L37.7405 63.8074C37.7271 64.0525 37.5245 64.2443 37.2791 64.2443L33.8415 64.2443C33.5961 64.2443 33.3935 64.0525 33.3801 63.8074L31.8904 36.5454C31.8759 36.2807 32.0866 36.0581 32.3517 36.0581L38.7688 36.0581Z" fill="url(#paint28_linear_513_1922)" fill-opacity="0.4"/>
<path d="M38.7688 36.1223C38.9971 36.1223 39.1786 36.3139 39.1661 36.5419L37.6764 63.8039C37.6649 64.0149 37.4904 64.1801 37.2791 64.1801L33.8415 64.1801C33.6302 64.1801 33.4557 64.0149 33.4442 63.8039L31.9544 36.5419C31.942 36.3139 32.1235 36.1223 32.3517 36.1223L38.7688 36.1223Z" stroke="#DFFFFC" stroke-opacity="0.5" stroke-width="0.128352"/>
</g>
<g filter="url(#filter30_b_513_1922)">
<path d="M33.9975 37.4447C34.0854 37.5262 34.1382 37.6386 34.1448 37.7582L35.6623 65.3186C35.6733 65.5171 35.4451 65.6358 35.2888 65.5129L33.5195 64.1215C33.4149 64.0393 33.3509 63.9161 33.3437 63.7833L31.8692 36.555C31.8467 36.1403 32.34 35.9088 32.6446 36.1911L33.9975 37.4447Z" fill="url(#paint29_linear_513_1922)" fill-opacity="0.4"/>
<path d="M33.9539 37.4918C34.0295 37.5619 34.075 37.6587 34.0807 37.7618L35.5983 65.3221C35.6062 65.4655 35.4414 65.5512 35.3285 65.4625L33.5591 64.0711C33.4691 64.0003 33.414 63.8941 33.4078 63.7798L31.9332 36.5515C31.9139 36.1945 32.3387 35.9951 32.601 36.2382L33.9539 37.4918Z" stroke="#DFFFFC" stroke-opacity="0.5" stroke-width="0.128352"/>
</g>
<g filter="url(#filter31_b_513_1922)">
<path d="M40.8812 37.4441C41.1531 37.4441 41.3662 37.6777 41.3413 37.9485L38.8344 65.2105C38.8126 65.4483 38.6131 65.6303 38.3743 65.6303L35.5034 65.6303C35.3803 65.6303 35.2787 65.5337 35.2727 65.4107L33.9022 37.735C33.8944 37.5767 34.0206 37.4441 34.1791 37.4441L40.8812 37.4441Z" fill="url(#paint30_linear_513_1922)" fill-opacity="0.4"/>
<path d="M40.8812 37.5083C41.1153 37.5083 41.2988 37.7094 41.2774 37.9426L38.7705 65.2046C38.7517 65.4094 38.5799 65.5661 38.3743 65.5661L35.5034 65.5661C35.4145 65.5661 35.3412 65.4963 35.3368 65.4075L33.9663 37.7319C33.9603 37.6102 34.0573 37.5083 34.1791 37.5083L40.8812 37.5083Z" stroke="#DFFFFC" stroke-opacity="0.5" stroke-width="0.128352"/>
</g>
</g>
</g>
<rect x="0.693103" y="0.693103" width="65.6138" height="65.6138" rx="11.5042" stroke="#DFFFFC" stroke-opacity="0.5" stroke-width="1.38621"/>
</g>
<defs>
<filter id="filter0_b_513_1922" x="-3.69655" y="-3.69655" width="74.3931" height="74.3931" filterUnits="userSpaceOnUse" color-interpolation-filters="sRGB">
<feFlood flood-opacity="0" result="BackgroundImageFix"/>
<feGaussianBlur in="BackgroundImageFix" stdDeviation="1.84828"/>
<feComposite in2="SourceAlpha" operator="in" result="effect1_backgroundBlur_513_1922"/>
<feBlend mode="normal" in="SourceGraphic" in2="effect1_backgroundBlur_513_1922" result="shape"/>
</filter>
<filter id="filter1_b_513_1922" x="53.5491" y="9.2278" width="4.72311" height="4.72335" filterUnits="userSpaceOnUse" color-interpolation-filters="sRGB">
<feFlood flood-opacity="0" result="BackgroundImageFix"/>
<feGaussianBlur in="BackgroundImageFix" stdDeviation="0.256705"/>
<feComposite in2="SourceAlpha" operator="in" result="effect1_backgroundBlur_513_1922"/>
<feBlend mode="normal" in="SourceGraphic" in2="effect1_backgroundBlur_513_1922" result="shape"/>
</filter>
<filter id="filter2_b_513_1922" x="57.2464" y="12.9243" width="4.72311" height="4.72335" filterUnits="userSpaceOnUse" color-interpolation-filters="sRGB">
<feFlood flood-opacity="0" result="BackgroundImageFix"/>
<feGaussianBlur in="BackgroundImageFix" stdDeviation="0.256705"/>
<feComposite in2="SourceAlpha" operator="in" result="effect1_backgroundBlur_513_1922"/>
<feBlend mode="normal" in="SourceGraphic" in2="effect1_backgroundBlur_513_1922" result="shape"/>
</filter>
<filter id="filter3_b_513_1922" x="49.8528" y="12.9243" width="4.72311" height="4.72335" filterUnits="userSpaceOnUse" color-interpolation-filters="sRGB">
<feFlood flood-opacity="0" result="BackgroundImageFix"/>
<feGaussianBlur in="BackgroundImageFix" stdDeviation="0.256705"/>
<feComposite in2="SourceAlpha" operator="in" result="effect1_backgroundBlur_513_1922"/>
<feBlend mode="normal" in="SourceGraphic" in2="effect1_backgroundBlur_513_1922" result="shape"/>
</filter>
<filter id="filter4_b_513_1922" x="53.5491" y="16.6209" width="4.72311" height="4.72335" filterUnits="userSpaceOnUse" color-interpolation-filters="sRGB">
<feFlood flood-opacity="0" result="BackgroundImageFix"/>
<feGaussianBlur in="BackgroundImageFix" stdDeviation="0.256705"/>
<feComposite in2="SourceAlpha" operator="in" result="effect1_backgroundBlur_513_1922"/>
<feBlend mode="normal" in="SourceGraphic" in2="effect1_backgroundBlur_513_1922" result="shape"/>
</filter>
<filter id="filter5_b_513_1922" x="53.5491" y="9.2278" width="4.72311" height="4.72335" filterUnits="userSpaceOnUse" color-interpolation-filters="sRGB">
<feFlood flood-opacity="0" result="BackgroundImageFix"/>
<feGaussianBlur in="BackgroundImageFix" stdDeviation="0.256705"/>
<feComposite in2="SourceAlpha" operator="in" result="effect1_backgroundBlur_513_1922"/>
<feBlend mode="normal" in="SourceGraphic" in2="effect1_backgroundBlur_513_1922" result="shape"/>
</filter>
<filter id="filter6_b_513_1922" x="57.2464" y="12.9243" width="4.72311" height="4.72335" filterUnits="userSpaceOnUse" color-interpolation-filters="sRGB">
<feFlood flood-opacity="0" result="BackgroundImageFix"/>
<feGaussianBlur in="BackgroundImageFix" stdDeviation="0.256705"/>
<feComposite in2="SourceAlpha" operator="in" result="effect1_backgroundBlur_513_1922"/>
<feBlend mode="normal" in="SourceGraphic" in2="effect1_backgroundBlur_513_1922" result="shape"/>
</filter>
<filter id="filter7_b_513_1922" x="49.8528" y="12.9243" width="4.72311" height="4.72335" filterUnits="userSpaceOnUse" color-interpolation-filters="sRGB">
<feFlood flood-opacity="0" result="BackgroundImageFix"/>
<feGaussianBlur in="BackgroundImageFix" stdDeviation="0.256705"/>
<feComposite in2="SourceAlpha" operator="in" result="effect1_backgroundBlur_513_1922"/>
<feBlend mode="normal" in="SourceGraphic" in2="effect1_backgroundBlur_513_1922" result="shape"/>
</filter>
<filter id="filter8_b_513_1922" x="53.5491" y="16.6209" width="4.72311" height="4.72335" filterUnits="userSpaceOnUse" color-interpolation-filters="sRGB">
<feFlood flood-opacity="0" result="BackgroundImageFix"/>
<feGaussianBlur in="BackgroundImageFix" stdDeviation="0.256705"/>
<feComposite in2="SourceAlpha" operator="in" result="effect1_backgroundBlur_513_1922"/>
<feBlend mode="normal" in="SourceGraphic" in2="effect1_backgroundBlur_513_1922" result="shape"/>
</filter>
<filter id="filter9_b_513_1922" x="9.65261" y="18.4693" width="4.72311" height="4.72335" filterUnits="userSpaceOnUse" color-interpolation-filters="sRGB">
<feFlood flood-opacity="0" result="BackgroundImageFix"/>
<feGaussianBlur in="BackgroundImageFix" stdDeviation="0.256705"/>
<feComposite in2="SourceAlpha" operator="in" result="effect1_backgroundBlur_513_1922"/>
<feBlend mode="normal" in="SourceGraphic" in2="effect1_backgroundBlur_513_1922" result="shape"/>
</filter>
<filter id="filter10_b_513_1922" x="13.3489" y="22.1658" width="4.72311" height="4.72335" filterUnits="userSpaceOnUse" color-interpolation-filters="sRGB">
<feFlood flood-opacity="0" result="BackgroundImageFix"/>
<feGaussianBlur in="BackgroundImageFix" stdDeviation="0.256705"/>
<feComposite in2="SourceAlpha" operator="in" result="effect1_backgroundBlur_513_1922"/>
<feBlend mode="normal" in="SourceGraphic" in2="effect1_backgroundBlur_513_1922" result="shape"/>
</filter>
<filter id="filter11_b_513_1922" x="5.95534" y="22.1658" width="4.72311" height="4.72335" filterUnits="userSpaceOnUse" color-interpolation-filters="sRGB">
<feFlood flood-opacity="0" result="BackgroundImageFix"/>
<feGaussianBlur in="BackgroundImageFix" stdDeviation="0.256705"/>
<feComposite in2="SourceAlpha" operator="in" result="effect1_backgroundBlur_513_1922"/>
<feBlend mode="normal" in="SourceGraphic" in2="effect1_backgroundBlur_513_1922" result="shape"/>
</filter>
<filter id="filter12_b_513_1922" x="9.65261" y="25.8623" width="4.72311" height="4.72335" filterUnits="userSpaceOnUse" color-interpolation-filters="sRGB">
<feFlood flood-opacity="0" result="BackgroundImageFix"/>
<feGaussianBlur in="BackgroundImageFix" stdDeviation="0.256705"/>
<feComposite in2="SourceAlpha" operator="in" result="effect1_backgroundBlur_513_1922"/>
<feBlend mode="normal" in="SourceGraphic" in2="effect1_backgroundBlur_513_1922" result="shape"/>
</filter>
<filter id="filter13_b_513_1922" x="9.65261" y="18.4693" width="4.72311" height="4.72335" filterUnits="userSpaceOnUse" color-interpolation-filters="sRGB">
<feFlood flood-opacity="0" result="BackgroundImageFix"/>
<feGaussianBlur in="BackgroundImageFix" stdDeviation="0.256705"/>
<feComposite in2="SourceAlpha" operator="in" result="effect1_backgroundBlur_513_1922"/>
<feBlend mode="normal" in="SourceGraphic" in2="effect1_backgroundBlur_513_1922" result="shape"/>
</filter>
<filter id="filter14_b_513_1922" x="13.3489" y="22.1658" width="4.72311" height="4.72335" filterUnits="userSpaceOnUse" color-interpolation-filters="sRGB">
<feFlood flood-opacity="0" result="BackgroundImageFix"/>
<feGaussianBlur in="BackgroundImageFix" stdDeviation="0.256705"/>
<feComposite in2="SourceAlpha" operator="in" result="effect1_backgroundBlur_513_1922"/>
<feBlend mode="normal" in="SourceGraphic" in2="effect1_backgroundBlur_513_1922" result="shape"/>
</filter>
<filter id="filter15_b_513_1922" x="5.95534" y="22.1658" width="4.72311" height="4.72335" filterUnits="userSpaceOnUse" color-interpolation-filters="sRGB">
<feFlood flood-opacity="0" result="BackgroundImageFix"/>
<feGaussianBlur in="BackgroundImageFix" stdDeviation="0.256705"/>
<feComposite in2="SourceAlpha" operator="in" result="effect1_backgroundBlur_513_1922"/>
<feBlend mode="normal" in="SourceGraphic" in2="effect1_backgroundBlur_513_1922" result="shape"/>
</filter>
<filter id="filter16_b_513_1922" x="9.65261" y="25.8623" width="4.72311" height="4.72335" filterUnits="userSpaceOnUse" color-interpolation-filters="sRGB">
<feFlood flood-opacity="0" result="BackgroundImageFix"/>
<feGaussianBlur in="BackgroundImageFix" stdDeviation="0.256705"/>
<feComposite in2="SourceAlpha" operator="in" result="effect1_backgroundBlur_513_1922"/>
<feBlend mode="normal" in="SourceGraphic" in2="effect1_backgroundBlur_513_1922" result="shape"/>
</filter>
<filter id="filter17_b_513_1922" x="21.9104" y="1.83498" width="4.72311" height="4.72335" filterUnits="userSpaceOnUse" color-interpolation-filters="sRGB">
<feFlood flood-opacity="0" result="BackgroundImageFix"/>
<feGaussianBlur in="BackgroundImageFix" stdDeviation="0.256705"/>
<feComposite in2="SourceAlpha" operator="in" result="effect1_backgroundBlur_513_1922"/>
<feBlend mode="normal" in="SourceGraphic" in2="effect1_backgroundBlur_513_1922" result="shape"/>
</filter>
<filter id="filter18_b_513_1922" x="25.6067" y="5.53151" width="4.72311" height="4.72335" filterUnits="userSpaceOnUse" color-interpolation-filters="sRGB">
<feFlood flood-opacity="0" result="BackgroundImageFix"/>
<feGaussianBlur in="BackgroundImageFix" stdDeviation="0.256705"/>
<feComposite in2="SourceAlpha" operator="in" result="effect1_backgroundBlur_513_1922"/>
<feBlend mode="normal" in="SourceGraphic" in2="effect1_backgroundBlur_513_1922" result="shape"/>
</filter>
<filter id="filter19_b_513_1922" x="18.2132" y="5.53151" width="4.72311" height="4.72335" filterUnits="userSpaceOnUse" color-interpolation-filters="sRGB">
<feFlood flood-opacity="0" result="BackgroundImageFix"/>
<feGaussianBlur in="BackgroundImageFix" stdDeviation="0.256705"/>
<feComposite in2="SourceAlpha" operator="in" result="effect1_backgroundBlur_513_1922"/>
<feBlend mode="normal" in="SourceGraphic" in2="effect1_backgroundBlur_513_1922" result="shape"/>
</filter>
<filter id="filter20_b_513_1922" x="21.9104" y="9.22805" width="4.72311" height="4.72335" filterUnits="userSpaceOnUse" color-interpolation-filters="sRGB">
<feFlood flood-opacity="0" result="BackgroundImageFix"/>
<feGaussianBlur in="BackgroundImageFix" stdDeviation="0.256705"/>
<feComposite in2="SourceAlpha" operator="in" result="effect1_backgroundBlur_513_1922"/>
<feBlend mode="normal" in="SourceGraphic" in2="effect1_backgroundBlur_513_1922" result="shape"/>
</filter>
<filter id="filter21_b_513_1922" x="21.9104" y="1.83498" width="4.72311" height="4.72335" filterUnits="userSpaceOnUse" color-interpolation-filters="sRGB">
<feFlood flood-opacity="0" result="BackgroundImageFix"/>
<feGaussianBlur in="BackgroundImageFix" stdDeviation="0.256705"/>
<feComposite in2="SourceAlpha" operator="in" result="effect1_backgroundBlur_513_1922"/>
<feBlend mode="normal" in="SourceGraphic" in2="effect1_backgroundBlur_513_1922" result="shape"/>
</filter>
<filter id="filter22_b_513_1922" x="25.6067" y="5.53151" width="4.72311" height="4.72335" filterUnits="userSpaceOnUse" color-interpolation-filters="sRGB">
<feFlood flood-opacity="0" result="BackgroundImageFix"/>
<feGaussianBlur in="BackgroundImageFix" stdDeviation="0.256705"/>
<feComposite in2="SourceAlpha" operator="in" result="effect1_backgroundBlur_513_1922"/>
<feBlend mode="normal" in="SourceGraphic" in2="effect1_backgroundBlur_513_1922" result="shape"/>
</filter>
<filter id="filter23_b_513_1922" x="18.2132" y="5.53151" width="4.72311" height="4.72335" filterUnits="userSpaceOnUse" color-interpolation-filters="sRGB">
<feFlood flood-opacity="0" result="BackgroundImageFix"/>
<feGaussianBlur in="BackgroundImageFix" stdDeviation="0.256705"/>
<feComposite in2="SourceAlpha" operator="in" result="effect1_backgroundBlur_513_1922"/>
<feBlend mode="normal" in="SourceGraphic" in2="effect1_backgroundBlur_513_1922" result="shape"/>
</filter>
<filter id="filter24_b_513_1922" x="21.9104" y="9.22805" width="4.72311" height="4.72335" filterUnits="userSpaceOnUse" color-interpolation-filters="sRGB">
<feFlood flood-opacity="0" result="BackgroundImageFix"/>
<feGaussianBlur in="BackgroundImageFix" stdDeviation="0.256705"/>
<feComposite in2="SourceAlpha" operator="in" result="effect1_backgroundBlur_513_1922"/>
<feBlend mode="normal" in="SourceGraphic" in2="effect1_backgroundBlur_513_1922" result="shape"/>
</filter>
<filter id="filter25_bd_513_1922" x="24.4886" y="9.48451" width="21.6917" height="30.7701" filterUnits="userSpaceOnUse" color-interpolation-filters="sRGB">
<feFlood flood-opacity="0" result="BackgroundImageFix"/>
<feGaussianBlur in="BackgroundImageFix" stdDeviation="0.128352"/>
<feComposite in2="SourceAlpha" operator="in" result="effect1_backgroundBlur_513_1922"/>
<feColorMatrix in="SourceAlpha" type="matrix" values="0 0 0 0 0 0 0 0 0 0 0 0 0 0 0 0 0 0 127 0" result="hardAlpha"/>
<feOffset dy="1.84828"/>
<feGaussianBlur stdDeviation="0.924138"/>
<feComposite in2="hardAlpha" operator="out"/>
<feColorMatrix type="matrix" values="0 0 0 0 0 0 0 0 0 0 0 0 0 0 0 0 0 0 0.25 0"/>
<feBlend mode="normal" in2="effect1_backgroundBlur_513_1922" result="effect2_dropShadow_513_1922"/>
<feBlend mode="normal" in="SourceGraphic" in2="effect2_dropShadow_513_1922" result="shape"/>
</filter>
<filter id="filter26_b_513_1922" x="27.4913" y="10.1901" width="18.5085" height="27.3303" filterUnits="userSpaceOnUse" color-interpolation-filters="sRGB">
<feFlood flood-opacity="0" result="BackgroundImageFix"/>
<feGaussianBlur in="BackgroundImageFix" stdDeviation="0.128352"/>
<feComposite in2="SourceAlpha" operator="in" result="effect1_backgroundBlur_513_1922"/>
<feBlend mode="normal" in="SourceGraphic" in2="effect1_backgroundBlur_513_1922" result="shape"/>
</filter>
<filter id="filter27_d_513_1922" x="30.0199" y="36.0581" width="13.1721" height="33.2688" filterUnits="userSpaceOnUse" color-interpolation-filters="sRGB">
<feFlood flood-opacity="0" result="BackgroundImageFix"/>
<feColorMatrix in="SourceAlpha" type="matrix" values="0 0 0 0 0 0 0 0 0 0 0 0 0 0 0 0 0 0 127 0" result="hardAlpha"/>
<feOffset dy="1.84828"/>
<feGaussianBlur stdDeviation="0.924138"/>
<feComposite in2="hardAlpha" operator="out"/>
<feColorMatrix type="matrix" values="0 0 0 0 0 0 0 0 0 0 0 0 0 0 0 0 0 0 0.25 0"/>
<feBlend mode="normal" in2="BackgroundImageFix" result="effect1_dropShadow_513_1922"/>
<feBlend mode="normal" in="SourceGraphic" in2="effect1_dropShadow_513_1922" result="shape"/>
</filter>
<filter id="filter28_b_513_1922" x="37.1292" y="35.5579" width="4.69869" height="30.3327" filterUnits="userSpaceOnUse" color-interpolation-filters="sRGB">
<feFlood flood-opacity="0" result="BackgroundImageFix"/>
<feGaussianBlur in="BackgroundImageFix" stdDeviation="0.256705"/>
<feComposite in2="SourceAlpha" operator="in" result="effect1_backgroundBlur_513_1922"/>
<feBlend mode="normal" in="SourceGraphic" in2="effect1_backgroundBlur_513_1922" result="shape"/>
</filter>
<filter id="filter29_b_513_1922" x="31.3762" y="35.5447" width="8.36764" height="29.2131" filterUnits="userSpaceOnUse" color-interpolation-filters="sRGB">
<feFlood flood-opacity="0" result="BackgroundImageFix"/>
<feGaussianBlur in="BackgroundImageFix" stdDeviation="0.256705"/>
<feComposite in2="SourceAlpha" operator="in" result="effect1_backgroundBlur_513_1922"/>
<feBlend mode="normal" in="SourceGraphic" in2="effect1_backgroundBlur_513_1922" result="shape"/>
</filter>
<filter id="filter30_b_513_1922" x="31.3548" y="35.5535" width="4.82174" height="30.5229" filterUnits="userSpaceOnUse" color-interpolation-filters="sRGB">
<feFlood flood-opacity="0" result="BackgroundImageFix"/>
<feGaussianBlur in="BackgroundImageFix" stdDeviation="0.256705"/>
<feComposite in2="SourceAlpha" operator="in" result="effect1_backgroundBlur_513_1922"/>
<feBlend mode="normal" in="SourceGraphic" in2="effect1_backgroundBlur_513_1922" result="shape"/>
</filter>
<filter id="filter31_b_513_1922" x="33.3889" y="36.9307" width="8.46823" height="29.2131" filterUnits="userSpaceOnUse" color-interpolation-filters="sRGB">
<feFlood flood-opacity="0" result="BackgroundImageFix"/>
<feGaussianBlur in="BackgroundImageFix" stdDeviation="0.256705"/>
<feComposite in2="SourceAlpha" operator="in" result="effect1_backgroundBlur_513_1922"/>
<feBlend mode="normal" in="SourceGraphic" in2="effect1_backgroundBlur_513_1922" result="shape"/>
</filter>
<linearGradient id="paint0_linear_513_1922" x1="3.87732" y1="5.5213" x2="63.7741" y2="41.813" gradientUnits="userSpaceOnUse">
<stop stop-color="#4776E6"/>
<stop offset="1" stop-color="#8E54E9"/>
</linearGradient>
<linearGradient id="paint1_linear_513_1922" x1="55.7953" y1="9.80842" x2="55.8039" y2="13.438" gradientUnits="userSpaceOnUse">
<stop stop-color="#BDDCFD"/>
<stop offset="1" stop-color="#8ACEFF"/>
</linearGradient>
<linearGradient id="paint2_linear_513_1922" x1="59.4925" y1="13.505" x2="59.5012" y2="17.1345" gradientUnits="userSpaceOnUse">
<stop stop-color="#BDDCFD"/>
<stop offset="1" stop-color="#8ACEFF"/>
</linearGradient>
<linearGradient id="paint3_linear_513_1922" x1="52.099" y1="13.505" x2="52.1076" y2="17.1345" gradientUnits="userSpaceOnUse">
<stop stop-color="#BDDCFD"/>
<stop offset="1" stop-color="#8ACEFF"/>
</linearGradient>
<linearGradient id="paint4_linear_513_1922" x1="55.7953" y1="17.2015" x2="55.8039" y2="20.8311" gradientUnits="userSpaceOnUse">
<stop stop-color="#BDDCFD"/>
<stop offset="1" stop-color="#8ACEFF"/>
</linearGradient>
<linearGradient id="paint5_linear_513_1922" x1="55.7953" y1="9.80842" x2="55.8039" y2="13.438" gradientUnits="userSpaceOnUse">
<stop stop-color="#BDDCFD"/>
<stop offset="1" stop-color="#8ACEFF"/>
</linearGradient>
<linearGradient id="paint6_linear_513_1922" x1="59.4925" y1="13.505" x2="59.5012" y2="17.1345" gradientUnits="userSpaceOnUse">
<stop stop-color="#BDDCFD"/>
<stop offset="1" stop-color="#8ACEFF"/>
</linearGradient>
<linearGradient id="paint7_linear_513_1922" x1="52.099" y1="13.505" x2="52.1076" y2="17.1345" gradientUnits="userSpaceOnUse">
<stop stop-color="#BDDCFD"/>
<stop offset="1" stop-color="#8ACEFF"/>
</linearGradient>
<linearGradient id="paint8_linear_513_1922" x1="55.7953" y1="17.2015" x2="55.8039" y2="20.8311" gradientUnits="userSpaceOnUse">
<stop stop-color="#BDDCFD"/>
<stop offset="1" stop-color="#8ACEFF"/>
</linearGradient>
<linearGradient id="paint9_linear_513_1922" x1="11.8988" y1="19.0499" x2="11.9074" y2="22.6795" gradientUnits="userSpaceOnUse">
<stop stop-color="#BDDCFD"/>
<stop offset="1" stop-color="#8ACEFF"/>
</linearGradient>
<linearGradient id="paint10_linear_513_1922" x1="15.5951" y1="22.7464" x2="15.6037" y2="26.376" gradientUnits="userSpaceOnUse">
<stop stop-color="#BDDCFD"/>
<stop offset="1" stop-color="#8ACEFF"/>
</linearGradient>
<linearGradient id="paint11_linear_513_1922" x1="8.20151" y1="22.7464" x2="8.21017" y2="26.376" gradientUnits="userSpaceOnUse">
<stop stop-color="#BDDCFD"/>
<stop offset="1" stop-color="#8ACEFF"/>
</linearGradient>
<linearGradient id="paint12_linear_513_1922" x1="11.8988" y1="26.4429" x2="11.9074" y2="30.0725" gradientUnits="userSpaceOnUse">
<stop stop-color="#BDDCFD"/>
<stop offset="1" stop-color="#8ACEFF"/>
</linearGradient>
<linearGradient id="paint13_linear_513_1922" x1="11.8988" y1="19.0499" x2="11.9074" y2="22.6795" gradientUnits="userSpaceOnUse">
<stop stop-color="#BDDCFD"/>
<stop offset="1" stop-color="#8ACEFF"/>
</linearGradient>
<linearGradient id="paint14_linear_513_1922" x1="15.5951" y1="22.7464" x2="15.6037" y2="26.376" gradientUnits="userSpaceOnUse">
<stop stop-color="#BDDCFD"/>
<stop offset="1" stop-color="#8ACEFF"/>
</linearGradient>
<linearGradient id="paint15_linear_513_1922" x1="8.20151" y1="22.7464" x2="8.21017" y2="26.376" gradientUnits="userSpaceOnUse">
<stop stop-color="#BDDCFD"/>
<stop offset="1" stop-color="#8ACEFF"/>
</linearGradient>
<linearGradient id="paint16_linear_513_1922" x1="11.8988" y1="26.4429" x2="11.9074" y2="30.0725" gradientUnits="userSpaceOnUse">
<stop stop-color="#BDDCFD"/>
<stop offset="1" stop-color="#8ACEFF"/>
</linearGradient>
<linearGradient id="paint17_linear_513_1922" x1="24.1566" y1="2.4156" x2="24.1652" y2="6.04519" gradientUnits="userSpaceOnUse">
<stop stop-color="#BDDCFD"/>
<stop offset="1" stop-color="#8ACEFF"/>
</linearGradient>
<linearGradient id="paint18_linear_513_1922" x1="27.8529" y1="6.11213" x2="27.8615" y2="9.74173" gradientUnits="userSpaceOnUse">
<stop stop-color="#BDDCFD"/>
<stop offset="1" stop-color="#8ACEFF"/>
</linearGradient>
<linearGradient id="paint19_linear_513_1922" x1="20.4593" y1="6.11213" x2="20.468" y2="9.74173" gradientUnits="userSpaceOnUse">
<stop stop-color="#BDDCFD"/>
<stop offset="1" stop-color="#8ACEFF"/>
</linearGradient>
<linearGradient id="paint20_linear_513_1922" x1="24.1566" y1="9.80867" x2="24.1652" y2="13.4383" gradientUnits="userSpaceOnUse">
<stop stop-color="#BDDCFD"/>
<stop offset="1" stop-color="#8ACEFF"/>
</linearGradient>
<linearGradient id="paint21_linear_513_1922" x1="24.1566" y1="2.4156" x2="24.1652" y2="6.04519" gradientUnits="userSpaceOnUse">
<stop stop-color="#BDDCFD"/>
<stop offset="1" stop-color="#8ACEFF"/>
</linearGradient>
<linearGradient id="paint22_linear_513_1922" x1="27.8529" y1="6.11213" x2="27.8615" y2="9.74173" gradientUnits="userSpaceOnUse">
<stop stop-color="#BDDCFD"/>
<stop offset="1" stop-color="#8ACEFF"/>
</linearGradient>
<linearGradient id="paint23_linear_513_1922" x1="20.4593" y1="6.11213" x2="20.468" y2="9.74173" gradientUnits="userSpaceOnUse">
<stop stop-color="#BDDCFD"/>
<stop offset="1" stop-color="#8ACEFF"/>
</linearGradient>
<linearGradient id="paint24_linear_513_1922" x1="24.1566" y1="9.80867" x2="24.1652" y2="13.4383" gradientUnits="userSpaceOnUse">
<stop stop-color="#BDDCFD"/>
<stop offset="1" stop-color="#8ACEFF"/>
</linearGradient>
<linearGradient id="paint25_linear_513_1922" x1="35.3347" y1="13.141" x2="35.3347" y2="36.558" gradientUnits="userSpaceOnUse">
<stop stop-color="white"/>
<stop offset="1" stop-color="#8ACEFF"/>
</linearGradient>
<linearGradient id="paint26_linear_513_1922" x1="27.748" y1="23.8552" x2="45.7435" y2="23.8552" gradientUnits="userSpaceOnUse">
<stop stop-color="#E65C00"/>
<stop offset="1" stop-color="#F9D423"/>
</linearGradient>
<linearGradient id="paint27_linear_513_1922" x1="47.7213" y1="36.4641" x2="47.7213" y2="65.4531" gradientUnits="userSpaceOnUse">
<stop stop-color="#ACB6E5"/>
<stop offset="1" stop-color="#86FDE8"/>
</linearGradient>
<linearGradient id="paint28_linear_513_1922" x1="35.4646" y1="35.5401" x2="35.4646" y2="64.529" gradientUnits="userSpaceOnUse">
<stop stop-color="#ACB6E5"/>
<stop offset="1" stop-color="#86FDE8"/>
</linearGradient>
<linearGradient id="paint29_linear_513_1922" x1="27.7902" y1="36.4642" x2="27.7902" y2="65.4531" gradientUnits="userSpaceOnUse">
<stop stop-color="#ACB6E5"/>
<stop offset="1" stop-color="#86FDE8"/>
</linearGradient>
<linearGradient id="paint30_linear_513_1922" x1="36.3898" y1="36.464" x2="36.3898" y2="65.4529" gradientUnits="userSpaceOnUse">
<stop stop-color="#ACB6E5"/>
<stop offset="1" stop-color="#86FDE8"/>
</linearGradient>
<clipPath id="clip0_513_1922">
<rect width="67" height="67" rx="12.1973" fill="white"/>
</clipPath>
</defs>
</svg>
