<svg width="93" height="92" viewBox="0 0 93 92" fill="none" xmlns="http://www.w3.org/2000/svg">
<path d="M37.3116 92.0001C37.1818 92.0003 37.0533 91.9751 36.9334 91.926C36.8135 91.8769 36.7046 91.8048 36.613 91.714L0.289432 55.7892C0.197672 55.6985 0.124883 55.5908 0.0752219 55.4722C0.0255606 55.3537 0 55.2266 0 55.0983C0 54.9699 0.0255606 54.8429 0.0752219 54.7243C0.124883 54.6057 0.197672 54.498 0.289432 54.4073L39.4074 15.7187C39.5508 15.5772 39.7345 15.4823 39.9338 15.4467L63.6837 11.301C63.8403 11.2738 64.0012 11.2843 64.1528 11.3317C64.3044 11.379 64.4422 11.4618 64.5546 11.573L81.32 28.1543C81.5476 28.3794 81.6503 28.7014 81.595 29.0156L77.4017 52.5048C77.3666 52.7023 77.2706 52.8842 77.1266 53.0254L38.0102 91.714C37.9186 91.8048 37.8097 91.8769 37.6898 91.926C37.5699 91.9751 37.4414 92.0003 37.3116 92.0001ZM2.38529 55.0983L37.3116 89.6411L75.5113 51.8624L79.5592 29.1766L63.5209 13.316L40.5834 17.3195L2.38529 55.0983Z" fill="#C0C0C0"/>
<path d="M2.38529 55.0983L37.3116 89.6411L75.5113 51.8624L79.5592 29.1766L63.5209 13.316L40.5834 17.3195L2.38529 55.0983Z" fill="#C0C0C0"/>
<path d="M36.789 91.5364L36.7888 91.5362L0.465231 55.6115L0.465207 55.6114C0.396797 55.5438 0.342679 55.4636 0.305808 55.3756C0.26894 55.2876 0.25 55.1934 0.25 55.0983C0.25 55.0032 0.26894 54.9089 0.305808 54.8209L0.07539 54.7244L0.305809 54.8209C0.34268 54.7329 0.396797 54.6527 0.465207 54.5851L0.465231 54.5851L39.5831 15.8967C39.6902 15.7909 39.8277 15.7197 39.9774 15.6929C39.9775 15.6929 39.9776 15.6928 39.9778 15.6928L63.7265 11.5473C63.844 11.5269 63.9646 11.5348 64.0783 11.5703C64.1919 11.6058 64.295 11.6678 64.3788 11.7507L64.3788 11.7508L81.1442 28.332C81.3136 28.4996 81.3898 28.7391 81.3488 28.9723L77.1556 52.4609L77.1555 52.4612C77.1296 52.6071 77.0585 52.742 76.9516 52.847L76.9508 52.8477L37.8344 91.5362L37.8342 91.5364C37.7659 91.6041 37.6847 91.6579 37.595 91.6946C37.5054 91.7313 37.4092 91.7502 37.312 91.7501H37.3112C37.214 91.7502 37.1178 91.7313 37.0281 91.6946C36.9385 91.6579 36.8572 91.6041 36.789 91.5364ZM2.2095 54.9205L2.02977 55.0983L2.2095 55.276L37.1358 89.8189L37.3116 89.9928L37.4874 89.8189L75.6871 52.0401L75.7435 51.9843L75.7574 51.9063L79.8053 29.2205L79.8284 29.0912L79.735 28.9989L63.6967 13.1383L63.605 13.0476L63.478 13.0697L40.5404 17.0732L40.4633 17.0867L40.4076 17.1417L2.2095 54.9205ZM75.2791 51.7404L37.3116 89.2895L2.74082 55.0983L40.7035 17.5523L63.4369 13.5845L79.29 29.262L75.2791 51.7404Z" stroke="black" stroke-width="0.5"/>
<path d="M55.7065 60.6918H32.4798C32.2178 60.6918 31.9665 60.5889 31.7812 60.4057C31.596 60.2225 31.4919 59.9739 31.4919 59.7148V36.743C31.4919 36.2037 31.9345 35.766 32.4798 35.766H55.7065C56.2518 35.766 56.6944 36.2037 56.6944 36.743V59.7148C56.6944 60.2557 56.2518 60.6918 55.7065 60.6918ZM33.4676 58.7378H54.7187V37.7201H33.4676V58.7378ZM41.0731 84.7725C40.9433 84.7727 40.8148 84.7475 40.6949 84.6984C40.575 84.6493 40.4661 84.5772 40.3745 84.4864L7.92317 51.7554C7.73788 51.5722 7.63379 51.3236 7.63379 51.0645C7.63379 50.8053 7.73788 50.5568 7.92317 50.3735C8.10845 50.1903 8.35975 50.0873 8.62179 50.0873C8.88382 50.0873 9.13512 50.1903 9.32041 50.3735L41.7733 83.1045C41.9116 83.2412 42.0057 83.4155 42.0438 83.6052C42.0819 83.7949 42.0622 83.9915 41.9872 84.1701C41.9122 84.3487 41.7853 84.5013 41.6226 84.6085C41.4599 84.7158 41.2686 84.7728 41.0731 84.7725ZM68.0462 31.0419C67.8508 31.0419 67.6598 30.9847 67.4973 30.8773C67.3348 30.7699 67.2081 30.6173 67.1334 30.4388C67.0586 30.2602 67.039 30.0638 67.0771 29.8742C67.1153 29.6847 67.2094 29.5106 67.3476 29.3739L90.0164 6.95552C90.5759 6.40213 90.8841 5.66585 90.8841 4.88267C90.8841 4.09948 90.5759 3.3632 90.0164 2.80981C89.46 2.26111 88.7063 1.95299 87.9205 1.95299C87.1348 1.95299 86.3811 2.26111 85.8247 2.80981L70.1421 18.3203C69.9568 18.5035 69.7055 18.6065 69.4434 18.6065C69.1814 18.6065 68.9301 18.5035 68.7448 18.3203C68.5595 18.137 68.4554 17.8885 68.4554 17.6293C68.4554 17.3702 68.5595 17.1216 68.7448 16.9384L84.4274 1.42791C85.3545 0.513499 86.6104 0 87.9198 0C89.2291 0 90.485 0.513499 91.4121 1.42791C92.3366 2.34483 92.8558 3.58694 92.8558 4.88188C92.8558 6.17683 92.3366 7.41894 91.4121 8.33586L68.7448 30.7558C68.6532 30.8467 68.5443 30.9187 68.4244 30.9678C68.3045 31.0169 68.176 31.0421 68.0462 31.0419Z" fill="#C0C0C0"/>
<path d="M33.4676 58.7378H54.7187V37.7201H33.4676V58.7378Z" fill="#D4CA54"/>
<path d="M68.0462 30.7919H68.0466C68.1438 30.792 68.24 30.7732 68.3296 30.7365C68.4193 30.6998 68.5006 30.646 68.5688 30.5783L68.569 30.5781L91.236 8.15835L68.0462 30.7919ZM68.0462 30.7919C67.8996 30.7919 67.7565 30.749 67.6351 30.6687C67.5137 30.5885 67.4195 30.4748 67.3639 30.3422C67.3084 30.2097 67.294 30.064 67.3222 29.9235C67.3505 29.783 67.4203 29.6536 67.5234 29.5517L67.3476 29.3739M68.0462 30.7919L67.3476 29.3739M67.3476 29.3739L67.5234 29.5517L90.1922 7.13328L90.0164 6.95552M67.3476 29.3739L90.0164 6.95552M90.0164 6.95552L90.1922 7.13327C90.799 6.53317 91.1341 5.73299 91.1341 4.88267C91.1341 4.03234 90.799 3.23216 90.1922 2.63206L90.1919 2.6318M90.0164 6.95552L90.1919 2.6318M90.1919 2.6318C89.5884 2.03669 88.7716 1.70299 87.9205 1.70299C87.0695 1.70299 86.2526 2.03669 85.6491 2.6318L85.6489 2.63206M90.1919 2.6318L85.6489 2.63206M85.6489 2.63206L69.9663 18.1425M85.6489 2.63206L69.9663 18.1425M69.9663 18.1425C69.8281 18.2792 69.6401 18.3565 69.4434 18.3565M69.9663 18.1425L69.4434 18.3565M69.4434 18.3565C69.2468 18.3565 69.0588 18.2792 68.9206 18.1425M69.4434 18.3565L68.9206 18.1425M68.9206 18.1425C68.7825 18.0059 68.7054 17.8213 68.7054 17.6293M68.9206 18.1425L68.7054 17.6293M68.7054 17.6293C68.7054 17.4374 68.7825 17.2527 68.9206 17.1161M68.7054 17.6293L68.9206 17.1161M68.9206 17.1161L84.603 1.6059M68.9206 17.1161L84.603 1.6059M84.603 1.6059C84.603 1.60586 84.6031 1.60583 84.6031 1.60579M84.603 1.6059L84.6031 1.60579M84.6031 1.60579C85.4831 0.737874 86.6758 0.25 87.9198 0.25C89.1636 0.25 90.3562 0.737785 91.2362 1.60556C92.1136 2.47582 92.6058 3.65408 92.6058 4.88188C92.6058 6.10964 92.1136 7.28787 91.2363 8.15812L84.6031 1.60579ZM41.0735 84.5225H41.0727C40.9755 84.5226 40.8793 84.5038 40.7896 84.467C40.7003 84.4305 40.6193 84.3769 40.5512 84.3095C40.551 84.3093 40.5507 84.3091 40.5505 84.3089L8.1007 51.5794L8.10071 51.5794L8.09896 51.5777C7.96086 51.4411 7.88379 51.2564 7.88379 51.0645C7.88379 50.8725 7.96086 50.6879 8.09896 50.5513C8.23716 50.4146 8.42517 50.3373 8.62179 50.3373C8.81803 50.3373 9.00571 50.4143 9.14383 50.5505C9.14409 50.5508 9.14435 50.551 9.14461 50.5513L41.5958 83.2805L41.5975 83.2823C41.7006 83.3842 41.7705 83.5137 41.7987 83.6544C41.8269 83.795 41.8124 83.9408 41.7567 84.0733C41.701 84.2059 41.6066 84.3196 41.485 84.3998C41.3634 84.4799 41.2202 84.5227 41.0735 84.5225ZM41.0731 84.7725C40.9433 84.7727 40.8148 84.7475 40.6949 84.6984L41.0731 84.7725ZM33.2176 58.7378V58.9878H33.4676H54.7187H54.9687V58.7378V37.7201V37.4701H54.7187H33.4676H33.2176V37.7201V58.7378ZM55.7065 60.4418H32.4798C32.2832 60.4418 32.0952 60.3646 31.957 60.2279C31.819 60.0914 31.7419 59.9067 31.7419 59.7148V36.743C31.7419 36.3444 32.0699 36.016 32.4798 36.016H55.7065C56.1164 36.016 56.4444 36.3444 56.4444 36.743V59.7148C56.4444 60.1148 56.1166 60.4418 55.7065 60.4418ZM54.4687 37.9701V58.4878H33.7176V37.9701H54.4687Z" stroke="black" stroke-width="0.5"/>
<path d="M38.3119 68.3737C36.5363 68.3721 34.8335 67.6756 33.5754 66.4363C32.3174 65.197 31.6063 63.5157 31.5975 61.7597L31.539 60.6451L30.4121 60.5872C28.6366 60.5781 26.9369 59.8748 25.684 58.6306C24.4311 57.3864 23.7267 55.7026 23.7246 53.9466C23.7267 52.186 24.4348 50.4982 25.6935 49.2532C26.9522 48.0083 28.6588 47.308 30.439 47.306L44.0889 47.2528H44.0937C44.2237 47.2528 44.3524 47.2782 44.4724 47.3275C44.5925 47.3768 44.7015 47.449 44.7933 47.5401C44.8851 47.6311 44.9578 47.7392 45.0073 47.8581C45.0567 47.977 45.082 48.1044 45.0815 48.233L45.0547 54.9854L45.0278 61.7378C45.0245 63.4978 44.3156 65.1847 43.0567 66.4286C41.7977 67.6726 40.0914 68.3721 38.3119 68.3737Z" fill="#C0C0C0"/>
<path fill-rule="evenodd" clip-rule="evenodd" d="M43.0974 50.1389L33.4658 59.6649L33.5733 61.6831C33.5672 62.3027 33.6853 62.9175 33.9208 63.4918C34.1562 64.0661 34.5043 64.5886 34.945 65.0291C35.3858 65.4696 35.9103 65.8194 36.4885 66.0584C37.0666 66.2973 37.6869 66.4206 38.3135 66.4212C39.5697 66.4196 40.774 65.9253 41.6623 65.0467C42.5506 64.1682 43.0504 62.9771 43.0521 61.7346L43.0974 50.1389ZM30.4421 49.26L42.1646 49.2137L32.5317 58.741L30.4911 58.6347C29.8646 58.6407 29.243 58.5239 28.6623 58.2911C28.0817 58.0582 27.5534 57.7139 27.108 57.278C26.6625 56.8422 26.3088 56.3233 26.0672 55.7516C25.8256 55.1798 25.7009 54.5663 25.7003 53.9466C25.7003 51.3626 27.8262 49.26 30.4421 49.26Z" fill="#D4CA54"/>
<path d="M43.0974 50.1389L43.0521 61.7346C43.0504 62.9771 42.5506 64.1682 41.6623 65.0467C40.774 65.9253 39.5697 66.4196 38.3135 66.4212C37.6869 66.4206 37.0666 66.2973 36.4885 66.0584C35.9103 65.8194 35.3858 65.4696 34.945 65.0291C34.5043 64.5886 34.1562 64.0661 33.9208 63.4918C33.6853 62.9175 33.5672 62.3027 33.5733 61.6831L33.4658 59.6649L43.0974 50.1389ZM43.0974 50.1389L43.1011 49.21L42.1646 49.2137M42.1646 49.2137L30.4421 49.26C27.8262 49.26 25.7003 51.3626 25.7003 53.9466C25.7009 54.5663 25.8256 55.1798 26.0672 55.7516C26.3088 56.3234 26.6625 56.8422 27.108 57.278C27.5534 57.7139 28.0817 58.0582 28.6623 58.2911C29.243 58.5239 29.8646 58.6407 30.4911 58.6347L32.5317 58.741L42.1646 49.2137ZM38.3119 68.3737C36.5363 68.3721 34.8335 67.6756 33.5754 66.4363C32.3174 65.197 31.6063 63.5157 31.5975 61.7597L31.539 60.6451L30.4121 60.5872C28.6366 60.5781 26.9369 59.8748 25.684 58.6306C24.4311 57.3864 23.7267 55.7026 23.7246 53.9466C23.7267 52.186 24.4348 50.4982 25.6935 49.2532C26.9522 48.0083 28.6588 47.308 30.439 47.306L44.0889 47.2528H44.0937C44.2237 47.2528 44.3524 47.2782 44.4724 47.3275C44.5925 47.3768 44.7015 47.449 44.7933 47.5401C44.8851 47.6311 44.9578 47.7392 45.0073 47.8581C45.0567 47.977 45.082 48.1044 45.0815 48.233L45.0547 54.9854L45.0278 61.7378C45.0245 63.4978 44.3156 65.1847 43.0567 66.4286C41.7977 67.6726 40.0914 68.3721 38.3119 68.3737Z" stroke="black" stroke-width="0.5"/>
<path d="M50.1022 28.1232C51.8778 28.1249 53.5806 28.8214 54.8386 30.0606C56.0967 31.2999 56.8078 32.9812 56.8165 34.7373L56.875 35.8519L58.002 35.9097C59.7774 35.9188 61.4771 36.6222 62.7301 37.8663C63.983 39.1105 64.6874 40.7944 64.6895 42.5504C64.6874 44.3109 63.9793 45.9988 62.7206 47.2437C61.4618 48.4886 59.7552 49.1889 57.9751 49.191L44.3251 49.2441H44.3204C44.1904 49.2441 44.0617 49.2188 43.9416 49.1695C43.8216 49.1202 43.7125 49.0479 43.6207 48.9569C43.529 48.8658 43.4563 48.7577 43.4068 48.6388C43.3574 48.5199 43.3321 48.3926 43.3325 48.264L43.3594 41.5116L43.3863 34.7592C43.3896 32.9991 44.0985 31.3122 45.3574 30.0683C46.6163 28.8244 48.3226 28.1249 50.1022 28.1232Z" fill="#C0C0C0"/>
<path fill-rule="evenodd" clip-rule="evenodd" d="M45.3166 46.3581L54.9483 36.832L54.8408 34.8139C54.8469 34.1942 54.7287 33.5795 54.4933 33.0052C54.2579 32.4309 53.9097 31.9084 53.469 31.4679C53.0283 31.0273 52.5037 30.6775 51.9256 30.4386C51.3475 30.1996 50.7272 30.0763 50.1006 30.0757C48.8444 30.0774 47.6401 30.5717 46.7518 31.4502C45.8635 32.3288 45.3637 33.5198 45.362 34.7623L45.3166 46.3581ZM57.9719 47.2369L46.2495 47.2833L55.8824 37.7559L57.9229 37.8622C58.5495 37.8562 59.1711 37.973 59.7517 38.2059C60.3324 38.4387 60.8607 38.7831 61.3061 39.2189C61.7515 39.6548 62.1052 40.1736 62.3468 40.7454C62.5884 41.3172 62.7131 41.9306 62.7137 42.5504C62.7137 45.1344 60.5878 47.2369 57.9719 47.2369Z" fill="#D4CA54"/>
<path d="M45.3166 46.3581L45.362 34.7623C45.3637 33.5198 45.8635 32.3288 46.7518 31.4502C47.6401 30.5717 48.8444 30.0774 50.1006 30.0757C50.7272 30.0763 51.3475 30.1996 51.9256 30.4386C52.5037 30.6775 53.0283 31.0273 53.469 31.4679C53.9097 31.9084 54.2579 32.4309 54.4933 33.0052C54.7287 33.5795 54.8469 34.1942 54.8408 34.8139L54.9483 36.832L45.3166 46.3581ZM45.3166 46.3581L45.313 47.287L46.2495 47.2833M46.2495 47.2833L57.9719 47.2369C60.5878 47.2369 62.7137 45.1344 62.7137 42.5504C62.7131 41.9306 62.5884 41.3172 62.3468 40.7454C62.1052 40.1736 61.7515 39.6548 61.3061 39.2189C60.8607 38.7831 60.3324 38.4387 59.7517 38.2059C59.1711 37.973 58.5495 37.8562 57.9229 37.8622L55.8824 37.7559L46.2495 47.2833ZM50.1022 28.1232C51.8778 28.1249 53.5806 28.8214 54.8386 30.0606C56.0967 31.2999 56.8078 32.9812 56.8165 34.7373L56.875 35.8519L58.002 35.9097C59.7774 35.9188 61.4771 36.6222 62.7301 37.8664C63.983 39.1105 64.6874 40.7944 64.6895 42.5504C64.6874 44.3109 63.9793 45.9988 62.7206 47.2437C61.4618 48.4886 59.7552 49.1889 57.9751 49.191L44.3251 49.2441H44.3204C44.1904 49.2441 44.0617 49.2188 43.9416 49.1695C43.8216 49.1202 43.7125 49.0479 43.6207 48.9569C43.529 48.8658 43.4563 48.7577 43.4068 48.6388C43.3574 48.5199 43.3321 48.3926 43.3325 48.264L43.3594 41.5116L43.3863 34.7592C43.3896 32.9991 44.0985 31.3122 45.3574 30.0683C46.6163 28.8244 48.3226 28.1249 50.1022 28.1232Z" stroke="black" stroke-width="0.5"/>
<path d="M50.38 7.08693C51.6067 7.08693 52.6058 6.10274 52.6058 4.88288C52.6058 3.66302 51.6067 2.67883 50.38 2.67883C49.1534 2.67883 48.1543 3.66302 48.1543 4.88288C48.1543 6.10274 49.1534 7.08693 50.38 7.08693Z" fill="#C0C0C0" stroke="black" stroke-width="0.5"/>
<path d="M89.8957 44.2138C91.1223 44.2138 92.1214 43.2296 92.1214 42.0097C92.1214 40.7899 91.1223 39.8057 89.8957 39.8057C88.669 39.8057 87.6699 40.7899 87.6699 42.0097C87.6699 43.2296 88.669 44.2138 89.8957 44.2138Z" fill="#C0C0C0" stroke="black" stroke-width="0.5"/>
<path d="M85.9455 77.4326C87.1721 77.4326 88.1712 76.4484 88.1712 75.2286C88.1712 74.0087 87.1721 73.0245 85.9455 73.0245C84.7188 73.0245 83.7197 74.0087 83.7197 75.2286C83.7197 76.4484 84.7188 77.4326 85.9455 77.4326Z" fill="#C0C0C0" stroke="black" stroke-width="0.5"/>
<path d="M60.2599 87.2029C61.4865 87.2029 62.4857 86.2187 62.4857 84.9988C62.4857 83.779 61.4865 82.7948 60.2599 82.7948C59.0333 82.7948 58.0342 83.779 58.0342 84.9988C58.0342 86.2187 59.0333 87.2029 60.2599 87.2029Z" fill="#C0C0C0" stroke="black" stroke-width="0.5"/>
<path d="M8.89175 83.2947C10.1184 83.2947 11.1175 82.3105 11.1175 81.0906C11.1175 79.8708 10.1184 78.8866 8.89175 78.8866C7.66512 78.8866 6.66602 79.8708 6.66602 81.0906C6.66602 82.3105 7.66512 83.2947 8.89175 83.2947Z" fill="#C0C0C0" stroke="black" stroke-width="0.5"/>
<path d="M24.6974 7.08693C25.924 7.08693 26.9232 6.10274 26.9232 4.88288C26.9232 3.66302 25.924 2.67883 24.6974 2.67883C23.4708 2.67883 22.4717 3.66302 22.4717 4.88288C22.4717 6.10274 23.4708 7.08693 24.6974 7.08693Z" fill="#C0C0C0" stroke="black" stroke-width="0.5"/>
<path d="M6.91519 30.5354C8.14182 30.5354 9.14093 29.5512 9.14093 28.3314C9.14093 27.1115 8.14182 26.1273 6.91519 26.1273C5.68856 26.1273 4.68945 27.1115 4.68945 28.3314C4.68945 29.5512 5.68856 30.5354 6.91519 30.5354Z" fill="#C0C0C0" stroke="black" stroke-width="0.5"/>
</svg>
