<svg width="27" height="33" viewBox="0 0 27 33" fill="none" xmlns="http://www.w3.org/2000/svg">
<path d="M20.5995 15.4428C19.5037 17.0819 18.5493 18.8637 17.7526 20.7579C18.6722 20.2362 19.6244 19.8116 20.5995 19.4882V27.9304H4.5459V4.96777H20.5995V15.4428Z" fill="#D2D2D2"/>
<path d="M20.5996 15.4428C19.5038 17.0819 18.5494 18.8637 17.7527 20.7579C18.6723 20.2362 19.6245 19.8116 20.5996 19.4882C20.5996 26.9849 20.5461 26.5796 20.5996 26.5796C16.7677 26.5796 13.0927 24.6585 10.3832 21.2387C7.67359 17.819 6.15137 13.1809 6.15137 8.34463V4.96777H20.5996V15.4428Z" fill="#E3E3E3"/>
<path d="M21.6696 2.26624H3.47559V4.96772H21.6696V2.26624Z" fill="#33363F"/>
<path d="M21.6697 2.26624V3.61698H5.61614C5.33229 3.61698 5.06007 3.47467 4.85936 3.22135C4.65866 2.96804 4.5459 2.62447 4.5459 2.26624H21.6697Z" fill="#33363F"/>
<path d="M21.6696 27.9303H3.47559V30.6318H21.6696V27.9303Z" fill="#33363F"/>
<path d="M21.6697 27.9303V29.281H5.61614C5.33229 29.281 5.06007 29.1387 4.85936 28.8854C4.65866 28.6321 4.5459 28.2885 4.5459 27.9303H21.6697Z" fill="#33363F"/>
<path d="M23.8104 2.26627C23.8104 5.10283 23.8479 5.17712 23.7141 5.52156C23.6129 5.80178 23.4389 6.02997 23.221 6.16832C23.003 6.30666 22.7541 6.34684 22.5155 6.28221C22.277 6.21759 22.0631 6.05202 21.9093 5.81296C21.7555 5.57389 21.671 5.27569 21.6699 4.96775V2.26627C21.6699 1.90803 21.7827 1.56446 21.9834 1.31115C22.1841 1.05784 22.4563 0.915527 22.7402 0.915527C23.024 0.915527 23.2962 1.05784 23.4969 1.31115C23.6976 1.56446 23.8104 1.90803 23.8104 2.26627Z" fill="#B3B3B3"/>
<path d="M23.8104 2.2662C23.8104 5.10276 23.8478 5.17705 23.7141 5.52149C23.5512 5.61386 23.3727 5.65336 23.1947 5.63641C23.0167 5.61945 22.8449 5.54657 22.6949 5.4244C22.5449 5.30223 22.4215 5.13466 22.336 4.93693C22.2504 4.7392 22.2054 4.51761 22.205 4.29231C22.205 1.45576 22.1676 1.38146 22.3013 1.03703C22.4642 0.944654 22.6427 0.905149 22.8207 0.922105C22.9987 0.939062 23.1705 1.01194 23.3205 1.13411C23.4705 1.25628 23.5939 1.42385 23.6794 1.62158C23.765 1.81931 23.81 2.04091 23.8104 2.2662Z" fill="#BABABA"/>
<path d="M3.47544 2.26627C3.47544 5.10283 3.5129 5.17712 3.37912 5.52156C3.27796 5.80178 3.10398 6.02997 2.886 6.16832C2.66801 6.30666 2.41912 6.34684 2.18057 6.28221C1.94201 6.21759 1.72812 6.05202 1.57432 5.81296C1.42053 5.57389 1.33608 5.27569 1.33496 4.96775V2.26627C1.33496 1.90803 1.44772 1.56446 1.64843 1.31115C1.84913 1.05784 2.12135 0.915527 2.4052 0.915527C2.68904 0.915527 2.96126 1.05784 3.16197 1.31115C3.36268 1.56446 3.47544 1.90803 3.47544 2.26627Z" fill="#B3B3B3"/>
<path d="M3.47542 2.2662C3.47542 5.10276 3.51288 5.17705 3.3791 5.52149C3.21628 5.61386 3.03775 5.65336 2.85975 5.63641C2.68174 5.61945 2.50993 5.54657 2.35995 5.4244C2.20996 5.30223 2.08657 5.13466 2.00101 4.93693C1.91545 4.7392 1.87043 4.51761 1.87006 4.29231C1.87006 1.45576 1.8326 1.38146 1.96638 1.03703C2.1292 0.944654 2.30773 0.905149 2.48573 0.922105C2.66373 0.939062 2.83555 1.01194 2.98553 1.13411C3.13552 1.25628 3.25891 1.42385 3.34447 1.62158C3.43003 1.81931 3.47505 2.04091 3.47542 2.2662Z" fill="#BABABA"/>
<path d="M23.8104 27.9303C23.8104 30.7669 23.8479 30.8412 23.7141 31.1856C23.6129 31.4658 23.4389 31.694 23.221 31.8324C23.003 31.9707 22.7541 32.0109 22.5155 31.9463C22.277 31.8816 22.0631 31.7161 21.9093 31.477C21.7555 31.238 21.671 30.9397 21.6699 30.6318V27.9303C21.6699 27.5721 21.7827 27.2285 21.9834 26.9752C22.1841 26.7219 22.4563 26.5796 22.7402 26.5796C23.024 26.5796 23.2962 26.7219 23.4969 26.9752C23.6976 27.2285 23.8104 27.5721 23.8104 27.9303Z" fill="#B3B3B3"/>
<path d="M23.8104 27.9304C23.8104 30.767 23.8478 30.8413 23.7141 31.1857C23.5512 31.2781 23.3727 31.3176 23.1947 31.3007C23.0167 31.2837 22.8449 31.2108 22.6949 31.0886C22.5449 30.9665 22.4215 30.7989 22.336 30.6012C22.2504 30.4034 22.2054 30.1819 22.205 29.9566C22.205 27.12 22.1676 27.0457 22.3013 26.7013C22.4642 26.6089 22.6427 26.5694 22.8207 26.5864C22.9987 26.6033 23.1705 26.6762 23.3205 26.7984C23.4705 26.9205 23.5939 27.0881 23.6794 27.2858C23.765 27.4836 23.81 27.7052 23.8104 27.9304Z" fill="#BABABA"/>
<path d="M3.47544 27.9303C3.47544 30.7669 3.5129 30.8412 3.37912 31.1856C3.27796 31.4658 3.10398 31.694 2.886 31.8324C2.66801 31.9707 2.41912 32.0109 2.18057 31.9463C1.94201 31.8816 1.72812 31.7161 1.57432 31.477C1.42053 31.238 1.33608 30.9397 1.33496 30.6318V27.9303C1.33496 27.5721 1.44772 27.2285 1.64843 26.9752C1.84913 26.7219 2.12135 26.5796 2.4052 26.5796C2.68904 26.5796 2.96126 26.7219 3.16197 26.9752C3.36268 27.2285 3.47544 27.5721 3.47544 27.9303Z" fill="#B3B3B3"/>
<path d="M3.47542 27.9304C3.47542 30.767 3.51288 30.8413 3.3791 31.1857C3.21628 31.2781 3.03775 31.3176 2.85975 31.3007C2.68174 31.2837 2.50993 31.2108 2.35995 31.0886C2.20996 30.9665 2.08657 30.7989 2.00101 30.6012C1.91545 30.4034 1.87043 30.1819 1.87006 29.9566C1.87006 27.12 1.8326 27.0457 1.96638 26.7013C2.1292 26.6089 2.30773 26.5694 2.48573 26.5864C2.66373 26.6033 2.83555 26.6762 2.98553 26.7984C3.13552 26.9205 3.25891 27.0881 3.34447 27.2858C3.43003 27.4836 3.47505 27.7052 3.47542 27.9304Z" fill="#BABABA"/>
<path d="M24.3446 13.7475C24.3446 13.7475 25.4149 15.0983 22.2041 17.1244C24.1145 18.9344 19.2128 19.6638 17.752 20.7579C17.9285 20.3324 18.1158 19.9137 18.2871 19.5084C20.2991 15.2604 23.7399 11.0461 25.4149 9.69531C25.7869 10.263 25.9777 10.9855 25.95 11.7214C25.95 13.0722 24.3446 13.7475 24.3446 13.7475Z" fill="#DEDEDE"/>
<path d="M23.8096 13.0721C23.8096 13.0721 24.8799 14.4228 21.6691 16.4489C23.2263 17.928 20.2511 18.6844 18.3086 19.5084C20.1234 15.7617 22.4838 12.4824 25.2651 9.84381C25.3707 10.2303 25.4214 10.6373 25.415 11.046C25.415 12.3967 23.8096 13.0721 23.8096 13.0721Z" fill="white"/>
<path d="M26.4855 11.7214C26.4855 10.4855 25.8755 8.47291 25.1103 9.14153C23.6684 10.4707 22.3364 11.9799 21.1343 13.6463C21.1343 4.75162 21.0915 5.64311 21.2306 5.64311C21.3591 6.08978 21.6078 6.46528 21.9333 6.70396C22.2589 6.94265 22.6405 7.02934 23.0116 6.94887C23.3826 6.86841 23.7195 6.62591 23.9632 6.26377C24.207 5.90163 24.3421 5.44289 24.345 4.96774V2.26626C24.3421 1.79111 24.207 1.33236 23.9632 0.970225C23.7195 0.608087 23.3826 0.36559 23.0116 0.285125C22.6405 0.204661 22.2589 0.291348 21.9333 0.530033C21.6078 0.768718 21.3591 1.14422 21.2306 1.59089H3.9142C3.78578 1.14422 3.53706 0.768718 3.21152 0.530033C2.88597 0.291348 2.50431 0.204661 2.13326 0.285125C1.76221 0.36559 1.42537 0.608087 1.18162 0.970225C0.937872 1.33236 0.802726 1.79111 0.799805 2.26626V4.96774C0.802726 5.44289 0.937872 5.90163 1.18162 6.26377C1.42537 6.62591 1.76221 6.86841 2.13326 6.94887C2.50431 7.02934 2.88597 6.94265 3.21152 6.70396C3.53706 6.46528 3.78578 6.08978 3.9142 5.64311C4.06403 5.64311 4.01052 3.97494 4.01052 27.255H3.9142C3.78578 26.8083 3.53706 26.4328 3.21152 26.1941C2.88597 25.9554 2.50431 25.8687 2.13326 25.9492C1.76221 26.0297 1.42537 26.2722 1.18162 26.6343C0.937872 26.9965 0.802726 27.4552 0.799805 27.9303V30.6318C0.802726 31.107 0.937872 31.5657 1.18162 31.9279C1.42537 32.29 1.76221 32.5325 2.13326 32.613C2.50431 32.6934 2.88597 32.6067 3.21152 32.3681C3.53706 32.1294 3.78578 31.7539 3.9142 31.3072H21.2306C21.3591 31.7539 21.6078 32.1294 21.9333 32.3681C22.2589 32.6067 22.6405 32.6934 23.0116 32.613C23.3826 32.5325 23.7195 32.29 23.9632 31.9279C24.207 31.5657 24.3421 31.107 24.345 30.6318V27.9303C24.3421 27.4552 24.207 26.9965 23.9632 26.6343C23.7195 26.2722 23.3826 26.0297 23.0116 25.9492C22.6405 25.8687 22.2589 25.9554 21.9333 26.1941C21.6078 26.4328 21.3591 26.8083 21.2306 27.255C21.0915 27.255 21.1343 28.0654 21.1343 19.9745C22.2848 19.4747 23.6226 18.671 23.0554 17.3135C24.024 16.6381 25.1959 15.4968 25.0353 14.1055C25.624 13.7476 26.4855 12.9641 26.4855 11.7214ZM23.2748 2.26626V4.96774C23.2748 5.14686 23.2184 5.31864 23.1181 5.4453C23.0177 5.57196 22.8816 5.64311 22.7397 5.64311C22.5978 5.64311 22.4617 5.57196 22.3613 5.4453C22.2609 5.31864 22.2046 5.14686 22.2046 4.96774V2.26626C22.2046 2.08714 22.2609 1.91535 22.3613 1.7887C22.4617 1.66204 22.5978 1.59089 22.7397 1.59089C22.8816 1.59089 23.0177 1.66204 23.1181 1.7887C23.2184 1.91535 23.2748 2.08714 23.2748 2.26626ZM21.1343 4.29237H4.01052V2.94163H21.1343V4.29237ZM1.87004 4.96774V2.26626C1.87004 2.08714 1.92642 1.91535 2.02678 1.7887C2.12713 1.66204 2.26324 1.59089 2.40516 1.59089C2.54708 1.59089 2.68319 1.66204 2.78355 1.7887C2.8839 1.91535 2.94028 2.08714 2.94028 2.26626V4.96774C2.94028 5.14686 2.8839 5.31864 2.78355 5.4453C2.68319 5.57196 2.54708 5.64311 2.40516 5.64311C2.26324 5.64311 2.12713 5.57196 2.02678 5.4453C1.92642 5.31864 1.87004 5.14686 1.87004 4.96774ZM1.87004 30.6318V27.9303C1.87004 27.7512 1.92642 27.5794 2.02678 27.4528C2.12713 27.3261 2.26324 27.255 2.40516 27.255C2.54708 27.255 2.68319 27.3261 2.78355 27.4528C2.8839 27.5794 2.94028 27.7512 2.94028 27.9303V30.6318C2.94028 30.8109 2.8839 30.9827 2.78355 31.1094C2.68319 31.236 2.54708 31.3072 2.40516 31.3072C2.26324 31.3072 2.12713 31.236 2.02678 31.1094C1.92642 30.9827 1.87004 30.8109 1.87004 30.6318ZM4.01052 28.6057H21.1343V29.9565H4.01052V28.6057ZM23.2748 27.9303V30.6318C23.2748 30.8109 23.2184 30.9827 23.1181 31.1094C23.0177 31.236 22.8816 31.3072 22.7397 31.3072C22.5978 31.3072 22.4617 31.236 22.3613 31.1094C22.2609 30.9827 22.2046 30.8109 22.2046 30.6318V27.9303C22.2046 27.7512 22.2609 27.5794 22.3613 27.4528C22.4617 27.3261 22.5978 27.255 22.7397 27.255C22.8816 27.255 23.0177 27.3261 23.1181 27.4528C23.2184 27.5794 23.2748 27.7512 23.2748 27.9303ZM20.0641 27.255H5.08076V5.64311H20.0641V15.1996C18.1162 18.0758 16.6589 21.4278 15.7831 25.0465C15.7603 25.149 15.757 25.2568 15.7735 25.3612C15.7899 25.4655 15.8257 25.5635 15.8778 25.6471C15.93 25.7308 15.9971 25.7976 16.0736 25.8423C16.1502 25.887 16.234 25.9082 16.3183 25.9042C17.0514 25.9042 16.634 24.9857 18.1484 21.2509C18.7704 20.913 19.4106 20.6309 20.0641 20.4067V27.255ZM24.1738 13.106C24.0896 13.1419 24.0138 13.2036 23.9533 13.2858C23.8927 13.3679 23.8494 13.4677 23.8271 13.5763C23.8048 13.6849 23.8042 13.7988 23.8255 13.9077C23.8468 14.0166 23.8893 14.1171 23.9491 14.2001C23.9635 14.2404 23.971 14.2841 23.971 14.3284C23.971 14.3726 23.9635 14.4164 23.9491 14.4567C23.9009 14.7268 23.6066 15.4698 21.9424 16.5233C21.8614 16.5752 21.7922 16.6522 21.7413 16.7471C21.6904 16.842 21.6595 16.9518 21.6514 17.0659C21.6434 17.1801 21.6585 17.295 21.6954 17.3997C21.7322 17.5045 21.7896 17.5957 21.8621 17.6647C21.9397 17.7316 22.0083 17.8137 22.0654 17.9078C21.7604 18.4009 19.7056 19.1168 18.9564 19.4139C20.6516 16.0704 22.785 13.1152 25.2654 10.6746C25.3676 11.0084 25.4185 11.3637 25.4153 11.7214C25.4153 12.3968 24.4949 12.9709 24.1738 13.106Z" fill="black"/>
<path d="M8.29184 9.6953H7.22161V8.34456C7.22161 8.16544 7.16523 7.99366 7.06487 7.867C6.96452 7.74034 6.82841 7.66919 6.68649 7.66919C6.54456 7.66919 6.40845 7.74034 6.3081 7.867C6.20775 7.99366 6.15137 8.16544 6.15137 8.34456V10.3707C6.15137 10.5498 6.20775 10.7216 6.3081 10.8482C6.40845 10.9749 6.54456 11.046 6.68649 11.046H8.29184C8.43377 11.046 8.56988 10.9749 8.67023 10.8482C8.77058 10.7216 8.82696 10.5498 8.82696 10.3707C8.82696 10.1916 8.77058 10.0198 8.67023 9.89311C8.56988 9.76646 8.43377 9.6953 8.29184 9.6953ZM11.5026 10.3707V8.34456C11.5026 8.16544 11.4462 7.99366 11.3458 7.867C11.2455 7.74034 11.1094 7.66919 10.9674 7.66919C10.8255 7.66919 10.6894 7.74034 10.5891 7.867C10.4887 7.99366 10.4323 8.16544 10.4323 8.34456V10.3707C10.4323 10.5498 10.4887 10.7216 10.5891 10.8482C10.6894 10.9749 10.8255 11.046 10.9674 11.046C11.1094 11.046 11.2455 10.9749 11.3458 10.8482C11.4462 10.7216 11.5026 10.5498 11.5026 10.3707ZM16.8537 9.01993H18.4591C18.601 9.01993 18.7371 8.94878 18.8375 8.82212C18.9378 8.69546 18.9942 8.52368 18.9942 8.34456C18.9942 8.16544 18.9378 7.99366 18.8375 7.867C18.7371 7.74034 18.601 7.66919 18.4591 7.66919H16.8537C16.7118 7.66919 16.5757 7.74034 16.4754 7.867C16.375 7.99366 16.3186 8.16544 16.3186 8.34456C16.3186 8.52368 16.375 8.69546 16.4754 8.82212C16.5757 8.94878 16.7118 9.01993 16.8537 9.01993ZM18.4591 9.6953H17.3889C17.2469 9.6953 17.1108 9.76646 17.0105 9.89311C16.9101 10.0198 16.8537 10.1916 16.8537 10.3707C16.8537 10.5498 16.9101 10.7216 17.0105 10.8482C17.1108 10.9749 17.2469 11.046 17.3889 11.046H18.4591C18.601 11.046 18.7371 10.9749 18.8375 10.8482C18.9378 10.7216 18.9942 10.5498 18.9942 10.3707C18.9942 10.1916 18.9378 10.0198 18.8375 9.89311C18.7371 9.76646 18.601 9.6953 18.4591 9.6953ZM12.0377 13.0722H10.4323C10.2904 13.0722 10.1543 13.1433 10.0539 13.27C9.95358 13.3966 9.8972 13.5684 9.8972 13.7475V15.7736C9.8972 15.9528 9.95358 16.1245 10.0539 16.2512C10.1543 16.3779 10.2904 16.449 10.4323 16.449C10.5742 16.449 10.7104 16.3779 10.8107 16.2512C10.9111 16.1245 10.9674 15.9528 10.9674 15.7736V14.4229H12.0377C12.1796 14.4229 12.3157 14.3517 12.4161 14.2251C12.5164 14.0984 12.5728 13.9266 12.5728 13.7475C12.5728 13.5684 12.5164 13.3966 12.4161 13.27C12.3157 13.1433 12.1796 13.0722 12.0377 13.0722ZM13.643 13.7475V15.7736C13.643 15.9528 13.6994 16.1245 13.7998 16.2512C13.9001 16.3779 14.0362 16.449 14.1782 16.449C14.3201 16.449 14.4562 16.3779 14.5565 16.2512C14.6569 16.1245 14.7133 15.9528 14.7133 15.7736V13.7475C14.7133 13.5684 14.6569 13.3966 14.5565 13.27C14.4562 13.1433 14.3201 13.0722 14.1782 13.0722C14.0362 13.0722 13.9001 13.1433 13.7998 13.27C13.6994 13.3966 13.643 13.5684 13.643 13.7475ZM18.4591 13.0722H17.3889C17.2469 13.0722 17.1108 13.1433 17.0105 13.27C16.9101 13.3966 16.8537 13.5684 16.8537 13.7475V15.7736C16.8537 15.9528 16.9101 16.1245 17.0105 16.2512C17.1108 16.3779 17.2469 16.449 17.3889 16.449C17.5308 16.449 17.6669 16.3779 17.7673 16.2512C17.8676 16.1245 17.924 15.9528 17.924 15.7736V14.4229H18.4591C18.601 14.4229 18.7371 14.3517 18.8375 14.2251C18.9378 14.0984 18.9942 13.9266 18.9942 13.7475C18.9942 13.5684 18.9378 13.3966 18.8375 13.27C18.7371 13.1433 18.601 13.0722 18.4591 13.0722ZM8.29184 13.0722H6.68649C6.54456 13.0722 6.40845 13.1433 6.3081 13.27C6.20775 13.3966 6.15137 13.5684 6.15137 13.7475C6.15137 13.9266 6.20775 14.0984 6.3081 14.2251C6.40845 14.3517 6.54456 14.4229 6.68649 14.4229H8.29184C8.43377 14.4229 8.56988 14.3517 8.67023 14.2251C8.77058 14.0984 8.82696 13.9266 8.82696 13.7475C8.82696 13.5684 8.77058 13.3966 8.67023 13.27C8.56988 13.1433 8.43377 13.0722 8.29184 13.0722ZM6.68649 16.449H7.75672C7.89865 16.449 8.03476 16.3779 8.13511 16.2512C8.23546 16.1245 8.29184 15.9528 8.29184 15.7736C8.29184 15.5945 8.23546 15.4227 8.13511 15.2961C8.03476 15.1694 7.89865 15.0983 7.75672 15.0983H6.68649C6.54456 15.0983 6.40845 15.1694 6.3081 15.2961C6.20775 15.4227 6.15137 15.5945 6.15137 15.7736C6.15137 15.9528 6.20775 16.1245 6.3081 16.2512C6.40845 16.3779 6.54456 16.449 6.68649 16.449ZM14.1782 10.3707H14.7133C14.8552 10.3707 14.9913 10.2995 15.0917 10.1729C15.192 10.0462 15.2484 9.87442 15.2484 9.6953V8.34456C15.2484 8.16544 15.192 7.99366 15.0917 7.867C14.9913 7.74034 14.8552 7.66919 14.7133 7.66919C14.5713 7.66919 14.4352 7.74034 14.3349 7.867C14.2345 7.99366 14.1782 8.16544 14.1782 8.34456V9.01993H13.1079C12.966 9.01993 12.8299 9.09109 12.7295 9.21774C12.6292 9.3444 12.5728 9.51618 12.5728 9.6953C12.5728 9.87442 12.6292 10.0462 12.7295 10.1729C12.8299 10.2995 12.966 10.3707 13.1079 10.3707C13.1079 10.5498 13.1643 10.7216 13.2646 10.8482C13.365 10.9749 13.5011 11.046 13.643 11.046C13.785 11.046 13.9211 10.9749 14.0214 10.8482C14.1218 10.7216 14.1782 10.5498 14.1782 10.3707ZM15.2484 20.5012H14.7133V19.1505C14.7133 18.9714 14.6569 18.7996 14.5565 18.6729C14.4562 18.5463 14.3201 18.4751 14.1782 18.4751C14.0362 18.4751 13.9001 18.5463 13.7998 18.6729C13.6994 18.7996 13.643 18.9714 13.643 19.1505V21.1766C13.643 21.3557 13.6994 21.5275 13.7998 21.6542C13.9001 21.7808 14.0362 21.852 14.1782 21.852H15.2484C15.3903 21.852 15.5264 21.7808 15.6268 21.6542C15.7271 21.5275 15.7835 21.3557 15.7835 21.1766C15.7835 20.9975 15.7271 20.8257 15.6268 20.699C15.5264 20.5724 15.3903 20.5012 15.2484 20.5012ZM11.5026 19.1505V21.1766C11.5026 21.3557 11.5589 21.5275 11.6593 21.6542C11.7596 21.7808 11.8958 21.852 12.0377 21.852C12.1796 21.852 12.3157 21.7808 12.4161 21.6542C12.5164 21.5275 12.5728 21.3557 12.5728 21.1766V19.1505C12.5728 18.9714 12.5164 18.7996 12.4161 18.6729C12.3157 18.5463 12.1796 18.4751 12.0377 18.4751C11.8958 18.4751 11.7596 18.5463 11.6593 18.6729C11.5589 18.7996 11.5026 18.9714 11.5026 19.1505ZM9.8972 19.8259V21.1766C9.8972 21.3557 9.95358 21.5275 10.0539 21.6542C10.1543 21.7808 10.2904 21.852 10.4323 21.852C10.5742 21.852 10.7104 21.7808 10.8107 21.6542C10.9111 21.5275 10.9674 21.3557 10.9674 21.1766V19.8259C10.9674 19.6467 10.9111 19.475 10.8107 19.3483C10.7104 19.2216 10.5742 19.1505 10.4323 19.1505C10.2904 19.1505 10.1543 19.2216 10.0539 19.3483C9.95358 19.475 9.8972 19.6467 9.8972 19.8259ZM7.75672 19.1505V20.5012H7.22161V19.1505C7.22161 18.9714 7.16523 18.7996 7.06487 18.6729C6.96452 18.5463 6.82841 18.4751 6.68649 18.4751C6.54456 18.4751 6.40845 18.5463 6.3081 18.6729C6.20775 18.7996 6.15137 18.9714 6.15137 19.1505V21.1766C6.15137 21.3557 6.20775 21.5275 6.3081 21.6542C6.40845 21.7808 6.54456 21.852 6.68649 21.852H8.29184C8.43377 21.852 8.56988 21.7808 8.67023 21.6542C8.77058 21.5275 8.82696 21.3557 8.82696 21.1766V19.1505C8.82696 18.9714 8.77058 18.7996 8.67023 18.6729C8.56988 18.5463 8.43377 18.4751 8.29184 18.4751C8.14992 18.4751 8.01381 18.5463 7.91346 18.6729C7.8131 18.7996 7.75672 18.9714 7.75672 19.1505Z" fill="black"/>
</svg>
